<?xml version="1.0" standalone="no"?>
<!DOCTYPE svg PUBLIC "-//W3C//DTD SVG 1.1//EN" "http://www.w3.org/Graphics/SVG/1.1/DTD/svg11.dtd" >
<svg xmlns="http://www.w3.org/2000/svg" xmlns:xlink="http://www.w3.org/1999/xlink" version="1.1">
<metadata>
Created by FontForge 20200314 at Mon May 18 21:06:04 2020
 By Jorge Vázquez Saborido
2005 Albert-Jan Pool published by FSI FontShop International GmbH
</metadata>
<defs>
<font id="DINPro-Light" horiz-adv-x="526" >
  <font-face 
    font-family="DIN Pro Light"
    font-weight="300"
    font-stretch="normal"
    units-per-em="1024"
    panose-1="2 11 5 4 2 1 1 1 1 2"
    ascent="819"
    descent="-205"
    x-height="494"
    cap-height="729"
    bbox="-174 -242 1202 1159"
    underline-thickness="38.912"
    underline-position="-144.384"
    stemh="46"
    stemv="52"
    unicode-range="U+000D-FEFF"
  />
<missing-glyph horiz-adv-x="572" 
d="M473 0h-374v729h374v-729zM434 39v651h-296v-651h296z" />
    <glyph glyph-name=".notdef" horiz-adv-x="572" 
d="M473 0h-374v729h374v-729zM434 39v651h-296v-651h296z" />
    <glyph glyph-name=".null" horiz-adv-x="0" 
 />
    <glyph glyph-name=".null" horiz-adv-x="0" 
 />
    <glyph glyph-name="CR" unicode="&#xd;" horiz-adv-x="261" 
 />
    <glyph glyph-name="space" unicode=" " horiz-adv-x="261" 
 />
    <glyph glyph-name="exclam" unicode="!" horiz-adv-x="311" 
d="M199 729l-3 -532h-51l-3 532h57zM205 0h-69v69h69v-69z" />
    <glyph glyph-name="quotedbl" unicode="&#x22;" horiz-adv-x="417" 
d="M162 569h-65v160h65v-160zM321 569h-65v160h65v-160z" />
    <glyph glyph-name="numbersign" unicode="#" horiz-adv-x="654" 
d="M602 447h-102l-26 -156h98v-45h-105l-39 -246h-52l40 246h-180l-38 -246h-53l39 246h-98v45h105l26 156h-101v47h107l37 235h53l-38 -235h180l37 235h51l-37 -235h96v-47zM422 291l25 156h-179l-25 -156h179z" />
    <glyph glyph-name="dollar" unicode="$" horiz-adv-x="601" 
d="M541 196c0 -118 -85 -194 -224 -201v-112h-46v111c-95 4 -157 34 -219 96l39 39c59 -59 107 -80 180 -85v302c-69 7 -118 31 -146 55c-38 33 -57 79 -57 135c0 116 76 190 203 198v91h46v-91c78 -4 130 -29 187 -78l-36 -35c-40 36 -81 61 -151 66v-297
c100 -16 130 -27 160 -53c40 -33 64 -83 64 -141zM271 687c-94 -7 -149 -63 -149 -149c0 -42 12 -74 38 -96c33 -28 72 -40 111 -45v290zM485 194c0 44 -12 78 -40 102c-36 31 -63 32 -128 42v-294c103 7 168 60 168 150z" />
    <glyph glyph-name="percent" unicode="%" horiz-adv-x="847" 
d="M295 492v105c0 61 -24 100 -89 100s-90 -39 -90 -100v-105c0 -61 25 -100 90 -100s89 39 89 100zM340 489c0 -82 -54 -136 -134 -136s-135 54 -135 136v110c0 82 55 137 135 137s134 -55 134 -137v-110zM278 0h-47l340 729h46zM732 131v106c0 61 -24 100 -89 100
s-90 -39 -90 -100v-106c0 -61 25 -99 90 -99s89 38 89 99zM777 129c0 -82 -54 -136 -134 -136s-135 54 -135 136v110c0 82 55 137 135 137s134 -55 134 -137v-110z" />
    <glyph glyph-name="ampersand" unicode="&#x26;" horiz-adv-x="763" 
d="M678 0h-71l-70 86c-28 -28 -105 -92 -225 -92c-134 0 -226 84 -226 208c0 112 76 165 167 226c-38 46 -81 99 -81 162c0 82 67 145 149 145s148 -64 148 -146c0 -60 -38 -99 -84 -131l-54 -37l209 -253c33 49 43 89 43 181h54c0 -91 -18 -165 -64 -222zM285 391
c-77 -51 -144 -97 -144 -186c0 -95 69 -162 170 -162c58 0 121 15 195 81zM415 589c0 56 -41 97 -94 97s-94 -40 -94 -94c0 -37 15 -66 72 -134c68 43 116 75 116 131z" />
    <glyph glyph-name="quotesingle" unicode="'" horiz-adv-x="259" 
d="M162 569h-65v160h65v-160z" />
    <glyph glyph-name="parenleft" unicode="(" horiz-adv-x="290" 
d="M99 81v567c0 33 4 63 20 95c15 30 32 47 67 82l38 -38c-24 -24 -43 -40 -55 -66c-11 -22 -14 -47 -14 -79v-555c0 -32 3 -57 14 -79c12 -26 31 -42 55 -66l-38 -38c-36 36 -52 52 -67 82c-17 34 -20 60 -20 95z" />
    <glyph glyph-name="parenright" unicode=")" horiz-adv-x="290" 
d="M191 81c0 -35 -2 -61 -19 -95c-15 -30 -32 -46 -68 -82l-37 38c24 24 43 40 55 66c11 22 14 47 14 79v555c0 32 -3 57 -14 79c-12 26 -31 42 -55 66l37 38c35 -35 53 -52 68 -82c16 -32 19 -62 19 -95v-567z" />
    <glyph glyph-name="asterisk" unicode="*" horiz-adv-x="478" 
d="M404 487l-22 -38l-123 74l3 -144h-46l3 144l-123 -74l-22 38l126 70l-126 70l22 39l123 -75l-3 144h46l-3 -144l123 75l22 -39l-125 -70z" />
    <glyph glyph-name="plus" unicode="+" 
d="M472 246h-184v-186h-48v186h-186v48h186v184h48v-184h184v-48z" />
    <glyph glyph-name="comma" unicode="," horiz-adv-x="264" 
d="M167 -70l-70 -69v209h70v-140z" />
    <glyph glyph-name="hyphen" unicode="-" horiz-adv-x="436" 
d="M352 246h-268v48h268v-48z" />
    <glyph glyph-name="period" unicode="." horiz-adv-x="270" 
d="M173 0h-76v76h76v-76z" />
    <glyph glyph-name="slash" unicode="/" horiz-adv-x="346" 
d="M346 805l-292 -881h-54l292 881h54z" />
    <glyph glyph-name="zero" unicode="0" 
d="M455 188c0 -114 -79 -194 -192 -194s-191 80 -191 194v353c0 114 78 194 191 194s192 -80 192 -194v-353zM402 194v342c0 86 -48 153 -139 153s-139 -67 -139 -153v-342c0 -86 48 -154 139 -154s139 68 139 154z" />
    <glyph glyph-name="one" unicode="1" 
d="M321 0h-53v670l-132 -117v62l132 114h53v-729z" />
    <glyph glyph-name="two" unicode="2" 
d="M460 0h-386v46l293 384c29 37 41 72 41 114c0 87 -52 145 -141 145c-76 0 -140 -43 -140 -145h-52c0 109 72 191 192 191c117 0 193 -76 193 -191c0 -54 -13 -93 -50 -141l-274 -357h324v-46z" />
    <glyph glyph-name="three" unicode="3" 
d="M458 195c0 -130 -89 -202 -207 -202c-114 0 -200 58 -208 184h52c8 -99 79 -138 156 -138c87 0 155 59 155 156c0 98 -47 155 -159 155h-13v46h13c98 0 144 53 144 147c0 95 -62 147 -141 147c-86 0 -137 -51 -146 -133h-52c11 115 92 179 198 179
c115 0 193 -75 193 -193c0 -78 -29 -134 -103 -166c82 -28 118 -89 118 -182z" />
    <glyph glyph-name="four" unicode="4" 
d="M482 120h-97v-120h-52v120h-289v46l268 563h56l-269 -563h234v231h52v-231h97v-46z" />
    <glyph glyph-name="five" unicode="5" 
d="M462 239c0 -70 -4 -142 -56 -194c-35 -35 -83 -52 -141 -52c-60 0 -108 16 -140 49c-29 29 -45 69 -49 119h52c11 -78 51 -122 137 -122c40 0 77 13 101 37c43 43 44 108 44 163c0 91 -18 194 -137 194c-67 0 -117 -28 -132 -77h-46v373h350v-46h-304v-258
c32 36 79 54 139 54c52 0 92 -14 122 -44c52 -52 60 -127 60 -196z" />
    <glyph glyph-name="six" unicode="6" 
d="M459 206c0 -117 -70 -212 -193 -212s-193 86 -193 205c0 48 11 91 41 152l187 378h52l-168 -337c25 11 53 18 85 18c119 0 189 -90 189 -204zM407 202c0 87 -49 162 -142 162c-86 0 -140 -64 -140 -162s54 -162 140 -162s142 64 142 162z" />
    <glyph glyph-name="seven" unicode="7" 
d="M470 683l-258 -683h-53l258 683h-277v-115h-52v161h382v-46z" />
    <glyph glyph-name="eight" unicode="8" 
d="M471 197c0 -117 -90 -203 -208 -203s-208 86 -208 203c0 85 46 145 116 182c-66 36 -100 91 -100 166c0 106 78 190 192 190s193 -84 193 -190c0 -75 -33 -130 -100 -166c70 -37 115 -97 115 -182zM419 197c0 89 -68 157 -156 157s-155 -68 -155 -157
c0 -90 67 -157 155 -157s156 67 156 157zM403 545c0 85 -57 144 -140 144s-140 -59 -140 -144s57 -145 140 -145s140 60 140 145z" />
    <glyph glyph-name="nine" unicode="9" 
d="M454 530c0 -48 -11 -91 -41 -152l-188 -378h-52l168 337c-25 -11 -53 -18 -86 -18c-120 0 -187 90 -187 204c0 117 69 212 192 212s194 -86 194 -205zM401 527c0 98 -55 162 -141 162s-140 -64 -140 -162c0 -87 47 -161 140 -161c86 0 141 63 141 161z" />
    <glyph glyph-name="colon" unicode=":" horiz-adv-x="299" 
d="M202 0h-76v76h76v-76zM202 319h-76v76h76v-76z" />
    <glyph glyph-name="semicolon" unicode=";" horiz-adv-x="299" 
d="M198 -70l-70 -69v209h70v-140zM202 319h-76v76h76v-76z" />
    <glyph glyph-name="less" unicode="&#x3c;" 
d="M419 80l-311 165v49l311 165v-57l-260 -133l260 -133v-56z" />
    <glyph glyph-name="equal" unicode="=" 
d="M472 167h-418v48h418v-48zM472 324h-418v48h418v-48z" />
    <glyph glyph-name="greater" unicode="&#x3e;" 
d="M419 245l-311 -165v56l260 133l-260 133v57l311 -165v-49z" />
    <glyph glyph-name="question" unicode="?" horiz-adv-x="499" 
d="M449 555c0 -48 -18 -82 -46 -122l-87 -128c-13 -19 -18 -45 -18 -61v-48h-52v46c0 40 9 62 29 92l86 127c20 32 35 54 35 94c0 77 -56 134 -131 134c-80 0 -131 -62 -131 -134h-52c0 98 73 180 183 180c104 0 184 -78 184 -180zM306 0h-68v69h68v-69z" />
    <glyph glyph-name="at" unicode="@" horiz-adv-x="713" 
d="M635 0h-52v60c-34 -46 -77 -67 -143 -67c-60 0 -108 22 -142 66c-32 43 -44 95 -44 188c0 90 11 144 40 185c30 44 84 69 145 69c62 0 108 -22 144 -70v91c0 58 -10 90 -42 122c-30 30 -65 43 -117 43h-135c-52 0 -86 -13 -116 -43c-32 -32 -42 -62 -42 -122v-361
c0 -70 13 -94 64 -132l-36 -36c-62 44 -80 79 -80 168v358c0 66 20 118 56 155s85 55 145 55h153c60 0 109 -19 145 -55c38 -38 57 -90 57 -155v-519zM583 247c0 100 -16 208 -139 208s-138 -108 -138 -208s15 -208 138 -208s139 108 139 208z" />
    <glyph glyph-name="A" unicode="A" horiz-adv-x="616" 
d="M601 0h-59l-64 177h-340l-63 -177h-60l269 729h49zM308 655l-152 -429h305z" />
    <glyph glyph-name="B" unicode="B" horiz-adv-x="687" 
d="M603 199c0 -130 -86 -199 -214 -199h-276v729h268c121 0 211 -70 211 -190c0 -77 -43 -140 -114 -164c79 -28 125 -91 125 -176zM548 199c0 94 -66 149 -165 149h-215v-299h215c99 0 165 56 165 150zM537 539c0 100 -74 141 -162 141h-207v-283h207c88 0 162 42 162 142z
" />
    <glyph glyph-name="C" unicode="C" horiz-adv-x="659" 
d="M582 207c-25 -131 -119 -213 -248 -213c-73 0 -134 26 -177 69c-68 68 -73 125 -73 302s5 233 73 301c43 43 104 69 177 69c131 0 223 -82 248 -213h-57c-22 101 -93 164 -191 164c-53 0 -100 -18 -138 -56c-52 -52 -57 -111 -57 -265s5 -214 57 -266
c38 -38 85 -56 138 -56c98 0 171 63 193 164h55z" />
    <glyph glyph-name="D" unicode="D" horiz-adv-x="694" 
d="M610 365c0 -109 0 -228 -70 -298c-44 -44 -106 -67 -183 -67h-244v729h244c77 0 139 -22 183 -66c70 -70 70 -189 70 -298zM555 365c0 96 0 202 -54 259c-42 44 -99 56 -157 56h-176v-631h176c58 0 115 12 157 56c54 57 54 164 54 260z" />
    <glyph glyph-name="E" unicode="E" horiz-adv-x="612" 
d="M555 0h-442v729h442v-49h-387v-288h330v-49h-330v-294h387v-49z" />
    <glyph glyph-name="F" unicode="F" horiz-adv-x="589" 
d="M555 680h-387v-300h330v-49h-330v-331h-55v729h442v-49z" />
    <glyph glyph-name="G" unicode="G" horiz-adv-x="666" 
d="M585 254c0 -77 -17 -128 -60 -176c-47 -52 -117 -84 -191 -84c-73 0 -134 26 -177 69c-68 68 -73 125 -73 302s5 233 73 301c43 43 104 69 177 69c127 0 227 -85 249 -213h-56c-22 101 -95 164 -193 164c-53 0 -100 -18 -138 -56c-52 -52 -57 -111 -57 -265
s5 -214 57 -266c38 -38 85 -56 138 -56c57 0 113 25 151 71c32 40 44 82 44 144v66h-195v49h251v-119z" />
    <glyph glyph-name="H" unicode="H" horiz-adv-x="715" 
d="M603 0h-55v343h-380v-343h-55v729h55v-337h380v337h55v-729z" />
    <glyph glyph-name="I" unicode="I" horiz-adv-x="280" 
d="M168 0h-55v729h55v-729z" />
    <glyph glyph-name="J" unicode="J" horiz-adv-x="509" 
d="M408 215c0 -133 -86 -221 -218 -221c-65 0 -117 20 -159 62l38 38c28 -28 56 -51 121 -51c105 0 162 65 162 183v503h56v-514z" />
    <glyph glyph-name="K" unicode="K" horiz-adv-x="660" 
d="M642 0h-65l-235 409l-174 -211v-198h-55v729h55v-456l370 456h66l-225 -278z" />
    <glyph glyph-name="L" unicode="L" horiz-adv-x="585" 
d="M555 0h-442v729h55v-680h387v-49z" />
    <glyph glyph-name="M" unicode="M" horiz-adv-x="837" 
d="M725 0h-55v601l-221 -499h-56l-225 499v-601h-55v729h55l254 -562l248 562h55v-729z" />
    <glyph glyph-name="N" unicode="N" horiz-adv-x="756" 
d="M644 0h-55l-421 634v-634h-55v729h55l421 -632v632h55v-729z" />
    <glyph glyph-name="O" unicode="O" horiz-adv-x="667" 
d="M584 365c0 -177 -5 -234 -73 -302c-43 -43 -104 -69 -177 -69s-134 26 -177 69c-68 68 -73 125 -73 302s5 233 73 301c43 43 104 69 177 69s134 -26 177 -69c68 -68 73 -124 73 -301zM528 365c0 154 -4 213 -56 265c-38 38 -85 56 -138 56s-100 -18 -138 -56
c-52 -52 -57 -111 -57 -265s5 -214 57 -266c38 -38 85 -56 138 -56s100 18 138 56c52 52 56 112 56 266z" />
    <glyph glyph-name="P" unicode="P" horiz-adv-x="646" 
d="M600 519c0 -133 -94 -210 -220 -210h-212v-309h-55v729h267c126 0 220 -77 220 -210zM545 519c0 110 -70 161 -171 161h-206v-322h206c101 0 171 51 171 161z" />
    <glyph glyph-name="Q" unicode="Q" horiz-adv-x="666" 
d="M584 365c0 -158 -5 -220 -53 -279l86 -86l-36 -37l-86 85c-41 -34 -98 -54 -161 -54c-73 0 -134 26 -177 69c-68 68 -73 125 -73 302s5 233 73 301c43 43 104 69 177 69s134 -26 177 -69c68 -68 73 -124 73 -301zM528 365c0 154 -4 213 -56 265c-38 38 -85 56 -138 56
s-100 -18 -138 -56c-52 -52 -57 -111 -57 -265s5 -214 57 -266c38 -38 85 -56 138 -56c46 0 88 13 124 43l-103 102l37 37l101 -101c33 48 35 111 35 241z" />
    <glyph glyph-name="R" unicode="R" horiz-adv-x="672" 
d="M607 0h-64l-174 336h-201v-336h-55v729h277c119 0 209 -68 209 -195c0 -110 -66 -180 -168 -197zM544 532c0 101 -67 148 -161 148h-215v-295h215c94 0 161 46 161 147z" />
    <glyph glyph-name="S" unicode="S" horiz-adv-x="601" 
d="M541 196c0 -123 -93 -202 -246 -202c-108 0 -176 29 -243 96l39 39c66 -66 120 -86 207 -86c116 0 187 56 187 151c0 44 -12 78 -40 102c-26 23 -47 30 -105 39l-85 13c-55 8 -98 24 -130 52c-38 32 -57 78 -57 136c0 122 86 199 226 199c90 0 148 -25 210 -79l-36 -35
c-43 41 -91 67 -177 67c-106 0 -169 -57 -169 -150c0 -42 11 -75 37 -97s63 -36 104 -42l85 -13c68 -10 96 -21 130 -50c39 -34 63 -81 63 -140z" />
    <glyph glyph-name="T" unicode="T" horiz-adv-x="551" 
d="M521 680h-218v-680h-55v680h-217v49h490v-49z" />
    <glyph glyph-name="U" unicode="U" horiz-adv-x="704" 
d="M602 237c0 -142 -104 -243 -250 -243s-250 101 -250 243v492h56v-485c0 -121 76 -201 194 -201s195 80 195 201v485h55v-492z" />
    <glyph glyph-name="V" unicode="V" horiz-adv-x="546" 
d="M537 729l-240 -729h-47l-240 729h59l204 -632l205 632h59z" />
    <glyph glyph-name="W" unicode="W" horiz-adv-x="862" 
d="M842 729l-183 -729h-56l-172 635l-172 -635h-56l-183 729h59l153 -634l170 634h58l170 -634l153 634h59z" />
    <glyph glyph-name="X" unicode="X" horiz-adv-x="544" 
d="M526 0h-64l-191 325l-190 -325h-63l224 374l-209 355h64l174 -306l175 306h64l-209 -355z" />
    <glyph glyph-name="Y" unicode="Y" horiz-adv-x="505" 
d="M496 729l-215 -427v-302h-56v302l-215 427h60l185 -369l181 369h60z" />
    <glyph glyph-name="Z" unicode="Z" horiz-adv-x="572" 
d="M508 0h-443v58l384 622h-369v49h428v-49l-387 -631h387v-49z" />
    <glyph glyph-name="bracketleft" unicode="[" horiz-adv-x="296" 
d="M251 -76h-152v881h152v-46h-99v-789h99v-46z" />
    <glyph glyph-name="backslash" unicode="\" horiz-adv-x="346" 
d="M346 -76h-54l-292 881h54z" />
    <glyph glyph-name="bracketright" unicode="]" horiz-adv-x="300" 
d="M201 -76h-155v43h102v795h-102v43h155v-881z" />
    <glyph glyph-name="asciicircum" unicode="^" 
d="M449 432h-53l-133 248l-133 -248h-52l162 303h47z" />
    <glyph glyph-name="underscore" unicode="_" 
d="M526 -164h-526v39h526v-39z" />
    <glyph glyph-name="grave" unicode="`" horiz-adv-x="512" 
d="M304 604h-59l-109 151h69z" />
    <glyph glyph-name="a" unicode="a" horiz-adv-x="536" 
d="M441 0h-52v49c-42 -42 -80 -55 -150 -55c-74 0 -114 12 -146 45c-24 24 -36 59 -36 96c0 90 64 143 172 143h160v55c0 79 -38 121 -139 121c-70 0 -104 -18 -136 -63l-38 33c42 58 93 76 174 76c131 0 191 -59 191 -162v-338zM389 172v64h-153c-84 0 -126 -33 -126 -100
c0 -66 39 -96 129 -96c45 0 86 4 122 38c18 17 28 49 28 94z" />
    <glyph glyph-name="b" unicode="b" horiz-adv-x="552" 
d="M482 247c0 -78 -13 -160 -63 -210c-26 -26 -69 -43 -121 -43c-56 0 -102 12 -146 69v-63h-53v729h53v-299c44 57 90 70 146 70c52 0 95 -17 121 -43c50 -50 63 -132 63 -210zM430 247c0 102 -18 207 -139 207s-139 -105 -139 -207s18 -207 139 -207s139 105 139 207z" />
    <glyph glyph-name="c" unicode="c" horiz-adv-x="504" 
d="M451 70c-52 -58 -95 -76 -163 -76c-135 0 -217 96 -217 253s82 253 217 253c68 0 111 -18 163 -76l-36 -33c-42 47 -75 63 -127 63c-56 0 -101 -22 -131 -66c-25 -36 -34 -74 -34 -141s9 -106 34 -142c30 -44 75 -65 131 -65c52 0 85 16 127 62z" />
    <glyph glyph-name="d" unicode="d" horiz-adv-x="552" 
d="M454 0h-53v63c-44 -57 -90 -69 -146 -69c-52 0 -95 17 -121 43c-50 50 -63 132 -63 210s13 160 63 210c26 26 69 43 121 43c56 0 102 -13 146 -70v299h53v-729zM401 247c0 102 -18 207 -139 207s-139 -105 -139 -207s18 -207 139 -207s139 105 139 207z" />
    <glyph glyph-name="e" unicode="e" horiz-adv-x="535" 
d="M466 236h-343c0 -126 56 -195 161 -195c58 0 94 17 136 59l39 -30c-50 -50 -96 -76 -178 -76c-136 0 -210 88 -210 253c0 160 73 253 197 253s198 -89 198 -241v-23zM414 278c-3 47 -5 63 -18 93c-22 52 -71 83 -128 83s-104 -32 -128 -83c-13 -30 -14 -46 -17 -93h291z
" />
    <glyph glyph-name="f" unicode="f" horiz-adv-x="311" 
d="M279 455h-112v-455h-52v455h-68v39h68v106c0 75 40 129 118 129h46v-46h-36c-52 0 -76 -30 -76 -82v-107h112v-39z" />
    <glyph glyph-name="g" unicode="g" horiz-adv-x="552" 
d="M454 -28c0 -124 -74 -214 -202 -214c-74 0 -112 20 -163 66l35 35c39 -36 66 -55 128 -55c103 0 149 73 149 171v88c-44 -57 -90 -69 -146 -69c-52 0 -95 17 -121 43c-50 50 -63 132 -63 210s13 160 63 210c26 26 69 43 121 43c56 0 102 -13 146 -70v64h53v-522zM401 247
c0 102 -18 207 -139 207s-139 -105 -139 -207s18 -207 139 -207s139 105 139 207z" />
    <glyph glyph-name="h" unicode="h" horiz-adv-x="572" 
d="M479 0h-52v306c0 95 -47 148 -136 148s-139 -53 -139 -148v-306h-53v729h53v-294c37 43 85 65 145 65c114 0 182 -70 182 -185v-315z" />
    <glyph glyph-name="i" unicode="i" horiz-adv-x="250" 
d="M152 0h-53v494h53v-494zM158 665h-65v64h65v-64z" />
    <glyph glyph-name="j" unicode="j" horiz-adv-x="250" 
d="M152 -108c0 -78 -38 -128 -119 -128h-45v47h36c58 0 75 27 75 83v600h53v-602zM158 665h-65v64h65v-64z" />
    <glyph glyph-name="k" unicode="k" horiz-adv-x="539" 
d="M499 0h-65l-170 271l-112 -130v-141h-53v729h53v-514l244 279h67l-163 -185z" />
    <glyph glyph-name="l" unicode="l" horiz-adv-x="293" 
d="M261 0h-45c-81 0 -119 50 -119 128v601h53v-600c0 -56 17 -83 75 -83h36v-46z" />
    <glyph glyph-name="m" unicode="m" horiz-adv-x="899" 
d="M807 0h-52v306c0 95 -48 148 -137 148c-86 0 -139 -54 -139 -139v-315h-52v306c0 95 -47 148 -136 148s-139 -54 -139 -148v-306h-53v494h53v-59c37 43 86 65 146 65c74 0 129 -32 159 -90c37 58 94 90 168 90c54 0 98 -17 130 -47c34 -33 52 -80 52 -138v-315z" />
    <glyph glyph-name="n" unicode="n" horiz-adv-x="572" 
d="M479 0h-52v306c0 95 -47 148 -136 148s-139 -54 -139 -148v-306h-53v494h53v-59c37 43 85 65 145 65c54 0 98 -15 131 -47c34 -33 51 -80 51 -138v-315z" />
    <glyph glyph-name="o" unicode="o" horiz-adv-x="538" 
d="M468 247c0 -71 -9 -147 -61 -199c-36 -36 -83 -54 -138 -54s-101 18 -137 54c-52 52 -61 128 -61 199s9 146 61 198c36 36 82 55 137 55s102 -19 138 -55c52 -52 61 -127 61 -198zM416 247c0 57 -3 124 -44 165c-28 28 -63 42 -103 42s-74 -14 -102 -42
c-41 -41 -44 -108 -44 -165s3 -124 44 -165c28 -28 62 -42 102 -42s75 14 103 42c41 41 44 108 44 165z" />
    <glyph glyph-name="p" unicode="p" horiz-adv-x="552" 
d="M482 247c0 -78 -13 -160 -63 -210c-26 -26 -69 -43 -121 -43c-56 0 -102 12 -146 69v-299h-53v730h53v-64c44 57 90 70 146 70c52 0 95 -17 121 -43c50 -50 63 -132 63 -210zM430 247c0 102 -18 207 -139 207s-139 -105 -139 -207s18 -207 139 -207s139 105 139 207z" />
    <glyph glyph-name="q" unicode="q" horiz-adv-x="552" 
d="M454 -236h-53v299c-44 -57 -90 -69 -146 -69c-52 0 -95 17 -121 43c-50 50 -63 132 -63 210s13 160 63 210c26 26 69 43 121 43c56 0 102 -13 146 -70v64h53v-730zM401 247c0 102 -18 207 -139 207s-139 -105 -139 -207s18 -207 139 -207s139 105 139 207z" />
    <glyph glyph-name="r" unicode="r" horiz-adv-x="418" 
d="M377 415c-30 30 -52 39 -93 39c-85 0 -132 -71 -132 -150v-304h-53v494h53v-66c29 46 86 72 144 72c48 0 83 -11 119 -47z" />
    <glyph glyph-name="s" unicode="s" horiz-adv-x="505" 
d="M449 140c0 -90 -76 -146 -198 -146c-86 0 -150 23 -200 71l36 35c38 -40 92 -60 162 -60c97 0 148 33 148 100c0 52 -28 77 -94 83l-82 7c-99 8 -148 51 -148 129c0 86 69 141 177 141c69 0 129 -20 173 -53l-35 -34c-38 28 -84 42 -138 42c-82 0 -126 -35 -126 -96
c0 -52 30 -76 100 -83l80 -7c82 -8 145 -33 145 -129z" />
    <glyph glyph-name="t" unicode="t" horiz-adv-x="332" 
d="M275 0h-45c-78 0 -118 54 -118 129v326h-68v39h68v157h52v-157h111v-39h-111v-327c0 -52 24 -82 76 -82h35v-46z" />
    <glyph glyph-name="u" unicode="u" horiz-adv-x="572" 
d="M473 0h-52v58c-37 -43 -86 -64 -146 -64c-54 0 -98 15 -131 47c-34 33 -51 79 -51 137v316h52v-307c0 -95 48 -147 137 -147s139 53 139 147v307h52v-494z" />
    <glyph glyph-name="v" unicode="v" horiz-adv-x="440" 
d="M426 494l-180 -494h-51l-181 494h58l148 -433l149 433h57z" />
    <glyph glyph-name="w" unicode="w" horiz-adv-x="729" 
d="M715 494l-158 -494h-53l-139 412l-140 -412h-53l-158 494h58l126 -433l141 433h51l141 -433l126 433h58z" />
    <glyph glyph-name="x" unicode="x" horiz-adv-x="471" 
d="M430 0h-63l-130 208l-133 -208h-63l167 252l-160 242h64l125 -199l122 199h64l-160 -242z" />
    <glyph glyph-name="y" unicode="y" horiz-adv-x="440" 
d="M426 494l-229 -628c-9 -27 -21 -46 -34 -57c-25 -24 -60 -32 -93 -32h-25v46h20c56 0 73 18 90 67l40 110l-181 494h58l148 -433l149 433h57z" />
    <glyph glyph-name="z" unicode="z" horiz-adv-x="462" 
d="M408 0h-353v49l297 398h-280v47h336v-50l-298 -398h298v-46z" />
    <glyph glyph-name="braceleft" unicode="{" horiz-adv-x="323" 
d="M272 -76h-14c-50 0 -79 8 -99 28c-19 19 -27 41 -27 97v212c0 29 -6 50 -18 62c-11 11 -25 19 -44 19h-19v45h19c19 0 33 9 44 20c12 12 18 32 18 61v212c0 56 8 78 27 97c20 20 49 28 99 28h14v-46h-13c-37 0 -49 -3 -60 -14s-15 -28 -15 -66v-212
c0 -53 -18 -80 -62 -102c44 -22 62 -50 62 -103v-212c0 -38 4 -55 15 -66s23 -14 60 -14h13v-46z" />
    <glyph glyph-name="bar" unicode="|" horiz-adv-x="324" 
d="M188 -76h-52v881h52v-881z" />
    <glyph glyph-name="braceright" unicode="}" horiz-adv-x="323" 
d="M272 342h-18c-19 0 -33 -8 -44 -19c-12 -12 -19 -33 -19 -62v-212c0 -56 -7 -78 -26 -97c-20 -20 -49 -28 -99 -28h-15v46h14c37 0 49 3 60 14s14 28 14 66v212c0 53 19 81 63 103c-44 22 -63 49 -63 102v212c0 38 -3 55 -14 66s-23 14 -60 14h-14v46h15
c50 0 79 -8 99 -28c19 -19 26 -41 26 -97v-212c0 -29 7 -49 19 -61c11 -11 25 -20 44 -20h18v-45z" />
    <glyph glyph-name="asciitilde" unicode="~" 
d="M472 284c-55 -55 -79 -64 -119 -64c-34 0 -67 17 -104 32c-29 12 -50 23 -78 23c-29 0 -44 -5 -85 -46l-32 32c55 55 79 64 119 64c34 0 68 -17 105 -32c29 -12 49 -24 77 -24c30 0 44 5 85 46z" />
    <glyph glyph-name="uni00A0" unicode="&#xa0;" horiz-adv-x="261" 
 />
    <glyph glyph-name="exclamdown" unicode="&#xa1;" horiz-adv-x="311" 
d="M169 -236h-56l3 533h50zM175 425h-69v69h69v-69z" />
    <glyph glyph-name="cent" unicode="&#xa2;" horiz-adv-x="509" 
d="M451 198c-50 -55 -90 -73 -152 -76v-122h-44v124c-116 15 -184 107 -184 251s68 236 184 251v103h44v-101c62 -3 102 -21 152 -76l-36 -33c-40 44 -70 60 -116 63v-414c46 3 76 18 116 62zM255 579c-42 -7 -74 -29 -98 -63c-25 -36 -34 -74 -34 -141s9 -106 34 -142
c24 -34 56 -55 98 -62v408z" />
    <glyph glyph-name="sterling" unicode="&#xa3;" horiz-adv-x="549" 
d="M494 0h-377v350h-66v39h66v125c0 133 85 221 217 221c65 0 118 -20 160 -62l-38 -38c-28 28 -57 51 -122 51c-105 0 -162 -65 -162 -183v-114h162v-39h-162v-301h322v-49z" />
    <glyph glyph-name="currency" unicode="&#xa4;" horiz-adv-x="672" 
d="M558 271c0 -53 -16 -102 -48 -140l76 -76l-33 -32l-77 75c-38 -32 -87 -49 -140 -49s-102 17 -140 49l-76 -75l-33 32l76 76c-32 38 -49 87 -49 140s17 104 49 142l-76 74l33 33l76 -75c38 32 87 49 140 49s102 -17 140 -49l77 75l33 -33l-76 -74c32 -38 48 -89 48 -142z
M509 271c0 96 -77 173 -173 173s-173 -77 -173 -173s77 -173 173 -173s173 77 173 173z" />
    <glyph glyph-name="yen" unicode="&#xa5;" horiz-adv-x="504" 
d="M495 729l-167 -334h110v-39h-130l-27 -54v-54h157v-39h-157v-209h-56v209h-158v39h158v54l-27 54h-131v39h111l-168 334h59l185 -370l183 370h58z" />
    <glyph glyph-name="brokenbar" unicode="&#xa6;" horiz-adv-x="335" 
d="M188 -76h-52v359h52v-359zM188 446h-52v359h52v-359z" />
    <glyph glyph-name="section" unicode="&#xa7;" horiz-adv-x="579" 
d="M480 253c0 -86 -52 -146 -112 -174c65 -22 105 -76 105 -150c0 -99 -75 -171 -183 -171c-102 0 -181 58 -189 159h56c7 -74 55 -110 133 -110s128 43 128 122c0 54 -38 99 -96 115l-85 24c-87 25 -138 96 -138 185c0 86 53 146 113 174c-65 28 -101 69 -101 144
c0 102 81 164 179 164c95 0 177 -55 182 -154h-54c-7 77 -53 106 -128 106c-77 0 -125 -38 -125 -116c0 -62 40 -94 93 -109l85 -24c86 -25 137 -97 137 -185zM425 253c0 40 -6 73 -36 103c-28 28 -61 42 -99 42c-40 0 -74 -14 -100 -42c-28 -30 -35 -59 -35 -103
c0 -46 11 -78 35 -103c26 -28 60 -42 100 -42s73 14 99 42c24 26 36 55 36 103z" />
    <glyph glyph-name="dieresis" unicode="&#xa8;" horiz-adv-x="512" 
d="M179 614h-59v79h59v-79zM392 614h-59v79h59v-79z" />
    <glyph glyph-name="copyright" unicode="&#xa9;" horiz-adv-x="915" 
d="M828 365c0 -205 -165 -371 -370 -371s-371 166 -371 371s166 370 371 370s370 -165 370 -370zM779 365c0 176 -145 325 -321 325s-322 -149 -322 -325s146 -326 322 -326s321 150 321 326zM596 207c-40 -36 -77 -53 -134 -53c-125 0 -181 96 -181 211s56 212 181 212
c57 0 92 -17 134 -55l-31 -30c-37 33 -62 43 -103 43c-103 0 -135 -80 -135 -170s32 -169 135 -169c41 0 66 9 103 42z" />
    <glyph glyph-name="ordfeminine" unicode="&#xaa;" horiz-adv-x="457" 
d="M365 335h-44v37c-33 -32 -64 -42 -117 -42c-57 0 -89 8 -115 36c-19 19 -29 46 -29 76c0 73 51 114 137 114h124v43c0 61 -30 93 -108 93c-54 0 -82 -12 -107 -49l-32 28c36 48 77 61 139 61c102 0 152 -47 152 -129v-268zM321 472v48h-119c-65 0 -98 -26 -98 -77
c0 -50 30 -73 100 -73c36 0 68 2 96 28c13 13 21 38 21 74z" />
    <glyph glyph-name="guillemotleft" unicode="&#xab;" horiz-adv-x="539" 
d="M244 71l-201 200l201 201v-68l-133 -133l133 -133v-67zM456 71l-201 200l201 201v-68l-133 -133l133 -133v-67z" />
    <glyph glyph-name="logicalnot" unicode="&#xac;" 
d="M472 110h-48v136h-370v48h418v-184z" />
    <glyph glyph-name="uni00AD" unicode="&#xad;" horiz-adv-x="436" 
d="M352 246h-268v48h268v-48z" />
    <glyph glyph-name="registered" unicode="&#xae;" horiz-adv-x="915" 
d="M828 365c0 -205 -165 -371 -370 -371s-371 166 -371 371s166 370 371 370s370 -165 370 -370zM780 365c0 177 -145 326 -322 326s-323 -149 -323 -326s146 -327 323 -327s322 150 322 327zM556 160l-101 171h-68v-171h-46v410h131c69 0 127 -50 127 -120
c0 -61 -39 -100 -93 -115l103 -175h-53zM553 450c0 45 -37 78 -86 78h-80v-156h80c49 0 86 33 86 78z" />
    <glyph glyph-name="macron" unicode="&#xaf;" horiz-adv-x="512" 
d="M408 625h-304v47h304v-47z" />
    <glyph glyph-name="degree" unicode="&#xb0;" horiz-adv-x="468" 
d="M395 575c0 -89 -72 -160 -161 -160s-160 71 -160 160s71 161 160 161s161 -72 161 -161zM349 575c0 66 -50 118 -116 118s-113 -49 -113 -118s48 -117 114 -117s115 48 115 117z" />
    <glyph glyph-name="plusminus" unicode="&#xb1;" 
d="M472 276h-184v-186h-48v186h-186v49h186v185h48v-185h184v-49zM472 0h-418v48h418v-48z" />
    <glyph glyph-name="twosuperior" unicode="&#xb2;" horiz-adv-x="320" 
d="M287 292h-242v41l172 218c15 20 24 41 24 63c0 48 -27 78 -75 78c-40 0 -76 -21 -76 -78h-45c0 70 47 119 121 119c73 0 121 -45 121 -119c0 -36 -10 -57 -35 -89l-153 -192h188v-41z" />
    <glyph glyph-name="threesuperior" unicode="&#xb3;" horiz-adv-x="320" 
d="M289 413c0 -81 -56 -125 -128 -125c-70 0 -127 37 -130 116h46c3 -54 42 -75 84 -75c46 0 83 32 83 84c0 51 -28 83 -86 83h-8v40h8c51 0 78 29 78 77c0 51 -36 79 -76 79c-46 0 -74 -27 -78 -71h-45c5 71 56 112 123 112c73 0 121 -46 121 -119c0 -47 -20 -79 -59 -96
c44 -16 67 -51 67 -105z" />
    <glyph glyph-name="acute" unicode="&#xb4;" horiz-adv-x="512" 
d="M376 755l-109 -151h-59l99 151h69z" />
    <glyph glyph-name="mu" unicode="&#xb5;" horiz-adv-x="569" 
d="M470 0h-52v58c-37 -43 -86 -64 -146 -64c-54 0 -97 15 -130 46v-276h-52v730h52v-307c0 -95 48 -147 137 -147s139 53 139 147v307h52v-494z" />
    <glyph glyph-name="paragraph" unicode="&#xb6;" horiz-adv-x="592" 
d="M480 -236h-52v916h-126v-916h-52v576c-131 0 -204 100 -204 195c0 100 76 194 216 194h218v-965z" />
    <glyph glyph-name="periodcentered" unicode="&#xb7;" horiz-adv-x="270" 
d="M173 232h-76v76h76v-76z" />
    <glyph glyph-name="cedilla" unicode="&#xb8;" horiz-adv-x="512" 
d="M315 -72l-65 -153h-65l74 153h56z" />
    <glyph glyph-name="onesuperior" unicode="&#xb9;" horiz-adv-x="320" 
d="M201 292h-45v387l-82 -73v52l82 71h45v-437z" />
    <glyph glyph-name="ordmasculine" unicode="&#xba;" horiz-adv-x="462" 
d="M389 531c0 -57 -7 -115 -49 -157c-29 -29 -65 -43 -109 -43s-79 14 -108 43c-42 42 -49 100 -49 157s7 116 49 158c29 29 64 43 108 43s80 -14 109 -43c42 -42 49 -101 49 -158zM345 531c0 44 -2 96 -34 128c-22 22 -48 33 -80 33s-57 -11 -79 -33
c-32 -32 -34 -84 -34 -128s2 -96 34 -128c20 -20 47 -32 79 -32s60 12 80 32c32 32 34 84 34 128z" />
    <glyph glyph-name="guillemotright" unicode="&#xbb;" horiz-adv-x="539" 
d="M285 271l-201 -200v67l133 133l-133 133v68zM497 271l-201 -200v67l133 133l-133 133v68z" />
    <glyph glyph-name="onequarter" unicode="&#xbc;" horiz-adv-x="822" 
d="M201 292h-45v387l-82 -73v52l82 71h45v-437zM604 729l-340 -729h-46l340 729h46zM799 69h-54v-69h-45v69h-174v41l158 327h48l-157 -327h125v122h45v-122h54v-41z" />
    <glyph glyph-name="onehalf" unicode="&#xbd;" horiz-adv-x="822" 
d="M201 292h-45v387l-82 -73v52l82 71h45v-437zM604 729l-340 -729h-46l340 729h46zM788 0h-241v41l172 218c15 20 23 42 23 64c0 48 -26 77 -74 77c-40 0 -76 -20 -76 -77h-45c0 70 47 118 121 118c73 0 120 -44 120 -118c0 -36 -9 -58 -34 -90l-153 -192h187v-41z" />
    <glyph glyph-name="threequarters" unicode="&#xbe;" horiz-adv-x="822" 
d="M289 413c0 -81 -56 -125 -128 -125c-70 0 -127 37 -130 116h46c3 -54 42 -75 84 -75c46 0 83 32 83 84c0 51 -28 83 -86 83h-8v40h8c51 0 78 29 78 77c0 51 -36 79 -76 79c-46 0 -74 -27 -78 -71h-45c5 71 56 112 123 112c73 0 121 -46 121 -119c0 -47 -20 -79 -59 -96
c44 -16 67 -51 67 -105zM604 729l-340 -729h-46l340 729h46zM799 69h-54v-69h-45v69h-174v41l158 327h48l-157 -327h125v122h45v-122h54v-41z" />
    <glyph glyph-name="questiondown" unicode="&#xbf;" horiz-adv-x="499" 
d="M418 -61c0 -98 -74 -181 -184 -181c-104 0 -183 79 -183 181c0 48 17 81 45 121l87 128c13 19 19 46 19 62v48h52v-46c0 -40 -10 -62 -30 -92l-86 -127c-20 -32 -35 -54 -35 -94c0 -77 56 -135 131 -135c80 0 132 63 132 135h52zM262 425h-68v69h68v-69z" />
    <glyph glyph-name="Agrave" unicode="&#xc0;" horiz-adv-x="616" 
d="M601 0h-59l-64 177h-340l-63 -177h-60l269 729h49zM308 655l-152 -429h305zM356 799h-59l-109 150h69z" />
    <glyph glyph-name="Aacute" unicode="&#xc1;" horiz-adv-x="616" 
d="M601 0h-59l-64 177h-340l-63 -177h-60l269 729h49zM308 655l-152 -429h305zM428 949l-109 -150h-59l99 150h69z" />
    <glyph glyph-name="Acircumflex" unicode="&#xc2;" horiz-adv-x="616" 
d="M601 0h-59l-64 177h-340l-63 -177h-60l269 729h49zM308 655l-152 -429h305zM462 799h-59l-95 111l-95 -111h-58l126 150h55z" />
    <glyph glyph-name="Atilde" unicode="&#xc3;" horiz-adv-x="616" 
d="M601 0h-59l-64 177h-340l-63 -177h-60l269 729h49zM308 655l-152 -429h305zM461 863c-47 -47 -73 -49 -91 -49c-24 0 -39 7 -71 25c-19 11 -37 21 -57 21c-16 0 -29 -2 -61 -34l-30 30c47 47 72 49 91 49c30 0 45 -9 70 -24c22 -13 38 -22 58 -22c15 0 28 2 60 34z" />
    <glyph glyph-name="Adieresis" unicode="&#xc4;" horiz-adv-x="616" 
d="M601 0h-59l-64 177h-340l-63 -177h-60l269 729h49zM308 655l-152 -429h305zM231 809h-59v79h59v-79zM444 809h-59v79h59v-79z" />
    <glyph glyph-name="Aring" unicode="&#xc5;" horiz-adv-x="616" 
d="M601 0h-59l-64 177h-340l-63 -177h-60l269 729h49zM308 655l-152 -429h305zM425 882c0 -65 -52 -118 -117 -118s-117 53 -117 118s52 116 117 116s117 -51 117 -116zM383 882c0 41 -34 73 -75 73s-75 -32 -75 -73s34 -75 75 -75s75 34 75 75z" />
    <glyph glyph-name="AE" unicode="&#xc6;" horiz-adv-x="922" 
d="M865 0h-441v177h-261l-92 -177h-61l386 729h469v-49h-387v-291h330v-49h-330v-291h387v-49zM424 226v454l-238 -454h238z" />
    <glyph glyph-name="Ccedilla" unicode="&#xc7;" horiz-adv-x="659" 
d="M582 207c-25 -131 -119 -213 -248 -213c-73 0 -134 26 -177 69c-68 68 -73 125 -73 302s5 233 73 301c43 43 104 69 177 69c131 0 223 -82 248 -213h-57c-22 101 -93 164 -191 164c-53 0 -100 -18 -138 -56c-52 -52 -57 -111 -57 -265s5 -214 57 -266
c38 -38 85 -56 138 -56c98 0 171 63 193 164h55zM375 -72l-66 -153h-64l73 153h57z" />
    <glyph glyph-name="Egrave" unicode="&#xc8;" horiz-adv-x="612" 
d="M555 0h-442v729h442v-49h-387v-288h330v-49h-330v-294h387v-49zM370 799h-60l-108 150h68z" />
    <glyph glyph-name="Eacute" unicode="&#xc9;" horiz-adv-x="612" 
d="M555 0h-442v729h442v-49h-387v-288h330v-49h-330v-294h387v-49zM441 949l-108 -150h-60l100 150h68z" />
    <glyph glyph-name="Ecircumflex" unicode="&#xca;" horiz-adv-x="612" 
d="M555 0h-442v729h442v-49h-387v-288h330v-49h-330v-294h387v-49zM475 799h-58l-95 111l-96 -111h-58l126 150h55z" />
    <glyph glyph-name="Edieresis" unicode="&#xcb;" horiz-adv-x="612" 
d="M555 0h-442v729h442v-49h-387v-288h330v-49h-330v-294h387v-49zM245 809h-60v79h60v-79zM458 809h-60v79h60v-79z" />
    <glyph glyph-name="Igrave" unicode="&#xcc;" horiz-adv-x="280" 
d="M168 0h-55v729h55v-729zM175 799h-59l-109 150h69z" />
    <glyph glyph-name="Iacute" unicode="&#xcd;" horiz-adv-x="280" 
d="M273 949l-108 -150h-60l100 150h68zM168 0h-55v729h55v-729z" />
    <glyph glyph-name="Icircumflex" unicode="&#xce;" horiz-adv-x="280" 
d="M168 0h-55v729h55v-729zM296 799h-58l-96 111l-95 -111h-58l126 150h55z" />
    <glyph glyph-name="Idieresis" unicode="&#xcf;" horiz-adv-x="280" 
d="M168 0h-55v729h55v-729zM63 809h-59v79h59v-79zM276 809h-59v79h59v-79z" />
    <glyph glyph-name="Eth" unicode="&#xd0;" horiz-adv-x="705" 
d="M622 365c0 -109 -1 -228 -71 -298c-44 -44 -105 -67 -182 -67h-245v346h-83v43h83v340h245c77 0 138 -22 182 -66c70 -70 71 -189 71 -298zM566 365c0 96 0 202 -54 259c-42 44 -99 56 -157 56h-176v-291h182v-43h-182v-297h176c58 0 115 12 157 56c54 57 54 164 54 260z
" />
    <glyph glyph-name="Ntilde" unicode="&#xd1;" horiz-adv-x="756" 
d="M644 0h-55l-421 634v-634h-55v729h55l421 -632v632h55v-729zM531 863c-47 -47 -73 -49 -91 -49c-24 0 -38 7 -70 25c-19 11 -38 21 -58 21c-16 0 -28 -2 -60 -34l-31 30c47 47 72 49 91 49c30 0 46 -9 71 -24c22 -13 37 -22 57 -22c15 0 29 2 61 34z" />
    <glyph glyph-name="Ograve" unicode="&#xd2;" horiz-adv-x="667" 
d="M584 365c0 -177 -5 -234 -73 -302c-43 -43 -104 -69 -177 -69s-134 26 -177 69c-68 68 -73 125 -73 302s5 233 73 301c43 43 104 69 177 69s134 -26 177 -69c68 -68 73 -124 73 -301zM528 365c0 154 -4 213 -56 265c-38 38 -85 56 -138 56s-100 -18 -138 -56
c-52 -52 -57 -111 -57 -265s5 -214 57 -266c38 -38 85 -56 138 -56s100 18 138 56c52 52 56 112 56 266zM382 799h-59l-109 150h69z" />
    <glyph glyph-name="Oacute" unicode="&#xd3;" horiz-adv-x="667" 
d="M584 365c0 -177 -5 -234 -73 -302c-43 -43 -104 -69 -177 -69s-134 26 -177 69c-68 68 -73 125 -73 302s5 233 73 301c43 43 104 69 177 69s134 -26 177 -69c68 -68 73 -124 73 -301zM528 365c0 154 -4 213 -56 265c-38 38 -85 56 -138 56s-100 -18 -138 -56
c-52 -52 -57 -111 -57 -265s5 -214 57 -266c38 -38 85 -56 138 -56s100 18 138 56c52 52 56 112 56 266zM454 949l-109 -150h-59l99 150h69z" />
    <glyph glyph-name="Ocircumflex" unicode="&#xd4;" horiz-adv-x="667" 
d="M584 365c0 -177 -5 -234 -73 -302c-43 -43 -104 -69 -177 -69s-134 26 -177 69c-68 68 -73 125 -73 302s5 233 73 301c43 43 104 69 177 69s134 -26 177 -69c68 -68 73 -124 73 -301zM528 365c0 154 -4 213 -56 265c-38 38 -85 56 -138 56s-100 -18 -138 -56
c-52 -52 -57 -111 -57 -265s5 -214 57 -266c38 -38 85 -56 138 -56s100 18 138 56c52 52 56 112 56 266zM487 799h-58l-95 111l-95 -111h-59l126 150h55z" />
    <glyph glyph-name="Otilde" unicode="&#xd5;" horiz-adv-x="667" 
d="M584 365c0 -177 -5 -234 -73 -302c-43 -43 -104 -69 -177 -69s-134 26 -177 69c-68 68 -73 125 -73 302s5 233 73 301c43 43 104 69 177 69s134 -26 177 -69c68 -68 73 -124 73 -301zM528 365c0 154 -4 213 -56 265c-38 38 -85 56 -138 56s-100 -18 -138 -56
c-52 -52 -57 -111 -57 -265s5 -214 57 -266c38 -38 85 -56 138 -56s100 18 138 56c52 52 56 112 56 266zM486 863c-47 -47 -73 -49 -91 -49c-24 0 -38 7 -70 25c-19 11 -38 21 -58 21c-16 0 -28 -2 -60 -34l-31 30c47 47 72 49 91 49c30 0 46 -9 71 -24
c22 -13 37 -22 57 -22c15 0 29 2 61 34z" />
    <glyph glyph-name="Odieresis" unicode="&#xd6;" horiz-adv-x="667" 
d="M584 365c0 -177 -5 -234 -73 -302c-43 -43 -104 -69 -177 -69s-134 26 -177 69c-68 68 -73 125 -73 302s5 233 73 301c43 43 104 69 177 69s134 -26 177 -69c68 -68 73 -124 73 -301zM528 365c0 154 -4 213 -56 265c-38 38 -85 56 -138 56s-100 -18 -138 -56
c-52 -52 -57 -111 -57 -265s5 -214 57 -266c38 -38 85 -56 138 -56s100 18 138 56c52 52 56 112 56 266zM257 809h-59v79h59v-79zM470 809h-59v79h59v-79z" />
    <glyph glyph-name="multiply" unicode="&#xd7;" 
d="M454 112l-32 -32l-159 159l-159 -159l-31 32l158 158l-158 159l31 32l159 -159l159 159l32 -32l-159 -159z" />
    <glyph glyph-name="Oslash" unicode="&#xd8;" horiz-adv-x="667" 
d="M584 365c0 -177 -5 -234 -73 -302c-43 -43 -104 -69 -177 -69c-51 0 -95 13 -133 36l-36 -75h-54l50 104c-73 71 -77 129 -77 306s5 233 73 301c43 43 104 69 177 69c50 0 96 -13 133 -36l36 75h54l-50 -104c73 -72 77 -128 77 -305zM444 652c-33 23 -69 34 -110 34
c-53 0 -100 -18 -138 -56c-52 -52 -57 -111 -57 -265c0 -143 3 -205 46 -254zM528 365c0 142 -4 203 -46 253l-259 -541c33 -23 69 -34 111 -34c53 0 100 18 138 56c52 52 56 112 56 266z" />
    <glyph glyph-name="Ugrave" unicode="&#xd9;" horiz-adv-x="704" 
d="M602 237c0 -142 -104 -243 -250 -243s-250 101 -250 243v492h56v-485c0 -121 76 -201 194 -201s195 80 195 201v485h55v-492zM400 799h-59l-109 150h69z" />
    <glyph glyph-name="Uacute" unicode="&#xda;" horiz-adv-x="704" 
d="M602 237c0 -142 -104 -243 -250 -243s-250 101 -250 243v492h56v-485c0 -121 76 -201 194 -201s195 80 195 201v485h55v-492zM472 949l-108 -150h-60l99 150h69z" />
    <glyph glyph-name="Ucircumflex" unicode="&#xdb;" horiz-adv-x="704" 
d="M602 237c0 -142 -104 -243 -250 -243s-250 101 -250 243v492h56v-485c0 -121 76 -201 194 -201s195 80 195 201v485h55v-492zM506 799h-59l-95 111l-95 -111h-58l126 150h55z" />
    <glyph glyph-name="Udieresis" unicode="&#xdc;" horiz-adv-x="704" 
d="M602 237c0 -142 -104 -243 -250 -243s-250 101 -250 243v492h56v-485c0 -121 76 -201 194 -201s195 80 195 201v485h55v-492zM275 809h-59v79h59v-79zM488 809h-59v79h59v-79z" />
    <glyph glyph-name="Yacute" unicode="&#xdd;" horiz-adv-x="505" 
d="M496 729l-215 -427v-302h-56v302l-215 427h60l185 -369l181 369h60zM373 949l-109 -150h-59l99 150h69z" />
    <glyph glyph-name="Thorn" unicode="&#xde;" horiz-adv-x="661" 
d="M600 368c0 -133 -94 -210 -220 -210h-212v-158h-55v729h55v-151h212c126 0 220 -76 220 -210zM545 368c0 110 -70 160 -171 160h-206v-321h206c101 0 171 51 171 161z" />
    <glyph glyph-name="germandbls" unicode="&#xdf;" horiz-adv-x="563" 
d="M484 137c0 -44 -15 -78 -40 -102c-28 -25 -53 -35 -97 -35h-55v46h45c33 0 47 8 66 23s29 39 29 74v183c0 33 -6 53 -23 69c-15 15 -38 24 -67 24h-50v46h40c61 0 100 42 100 104c0 34 -11 64 -36 87c-24 22 -58 33 -106 33c-98 0 -138 -62 -138 -152v-537h-53v537
c0 124 73 198 197 198c102 0 187 -51 187 -166c0 -54 -21 -96 -64 -125c53 -27 65 -62 65 -127v-180z" />
    <glyph glyph-name="agrave" unicode="&#xe0;" horiz-adv-x="536" 
d="M441 0h-52v49c-42 -42 -80 -55 -150 -55c-74 0 -114 12 -146 45c-24 24 -36 59 -36 96c0 90 64 143 172 143h160v55c0 79 -38 121 -139 121c-70 0 -104 -18 -136 -63l-38 33c42 58 93 76 174 76c131 0 191 -59 191 -162v-338zM389 172v64h-153c-84 0 -126 -33 -126 -100
c0 -66 39 -96 129 -96c45 0 86 4 122 38c18 17 28 49 28 94zM303 604h-59l-109 151h69z" />
    <glyph glyph-name="aacute" unicode="&#xe1;" horiz-adv-x="536" 
d="M441 0h-52v49c-42 -42 -80 -55 -150 -55c-74 0 -114 12 -146 45c-24 24 -36 59 -36 96c0 90 64 143 172 143h160v55c0 79 -38 121 -139 121c-70 0 -104 -18 -136 -63l-38 33c42 58 93 76 174 76c131 0 191 -59 191 -162v-338zM389 172v64h-153c-84 0 -126 -33 -126 -100
c0 -66 39 -96 129 -96c45 0 86 4 122 38c18 17 28 49 28 94zM375 755l-109 -151h-59l99 151h69z" />
    <glyph glyph-name="acircumflex" unicode="&#xe2;" horiz-adv-x="536" 
d="M441 0h-52v49c-42 -42 -80 -55 -150 -55c-74 0 -114 12 -146 45c-24 24 -36 59 -36 96c0 90 64 143 172 143h160v55c0 79 -38 121 -139 121c-70 0 -104 -18 -136 -63l-38 33c42 58 93 76 174 76c131 0 191 -59 191 -162v-338zM389 172v64h-153c-84 0 -126 -33 -126 -100
c0 -66 39 -96 129 -96c45 0 86 4 122 38c18 17 28 49 28 94zM409 604h-59l-95 112l-95 -112h-59l126 151h56z" />
    <glyph glyph-name="atilde" unicode="&#xe3;" horiz-adv-x="536" 
d="M441 0h-52v49c-42 -42 -80 -55 -150 -55c-74 0 -114 12 -146 45c-24 24 -36 59 -36 96c0 90 64 143 172 143h160v55c0 79 -38 121 -139 121c-70 0 -104 -18 -136 -63l-38 33c42 58 93 76 174 76c131 0 191 -59 191 -162v-338zM389 172v64h-153c-84 0 -126 -33 -126 -100
c0 -66 39 -96 129 -96c45 0 86 4 122 38c18 17 28 49 28 94zM408 669c-47 -47 -74 -49 -92 -49c-24 0 -38 6 -70 24c-19 11 -38 22 -58 22c-16 0 -28 -2 -60 -34l-31 30c47 47 72 49 91 49c30 0 46 -10 71 -25c22 -13 37 -21 57 -21c15 0 29 1 61 33z" />
    <glyph glyph-name="adieresis" unicode="&#xe4;" horiz-adv-x="536" 
d="M441 0h-52v49c-42 -42 -80 -55 -150 -55c-74 0 -114 12 -146 45c-24 24 -36 59 -36 96c0 90 64 143 172 143h160v55c0 79 -38 121 -139 121c-70 0 -104 -18 -136 -63l-38 33c42 58 93 76 174 76c131 0 191 -59 191 -162v-338zM389 172v64h-153c-84 0 -126 -33 -126 -100
c0 -66 39 -96 129 -96c45 0 86 4 122 38c18 17 28 49 28 94zM178 614h-59v79h59v-79zM391 614h-59v79h59v-79z" />
    <glyph glyph-name="aring" unicode="&#xe5;" horiz-adv-x="536" 
d="M441 0h-52v49c-42 -42 -80 -55 -150 -55c-74 0 -114 12 -146 45c-24 24 -36 59 -36 96c0 90 64 143 172 143h160v55c0 79 -38 121 -139 121c-70 0 -104 -18 -136 -63l-38 33c42 58 93 76 174 76c131 0 191 -59 191 -162v-338zM389 172v64h-153c-84 0 -126 -33 -126 -100
c0 -66 39 -96 129 -96c45 0 86 4 122 38c18 17 28 49 28 94zM372 693c0 -65 -52 -118 -117 -118s-117 53 -117 118s52 117 117 117s117 -52 117 -117zM330 693c0 41 -34 74 -75 74s-75 -33 -75 -74s34 -75 75 -75s75 34 75 75z" />
    <glyph glyph-name="ae" unicode="&#xe6;" horiz-adv-x="854" 
d="M784 236h-343c0 -126 56 -195 161 -195c58 0 94 17 136 59l39 -30c-50 -50 -97 -76 -179 -76c-83 0 -142 31 -176 92c-41 -67 -92 -92 -183 -92c-74 0 -114 12 -146 45c-24 24 -36 59 -36 96c0 90 64 143 172 143h160v55c0 79 -38 121 -139 121c-70 0 -104 -18 -136 -63
l-38 33c42 58 93 76 174 76c93 0 151 -29 177 -87c34 57 89 87 160 87c124 0 197 -89 197 -241v-23zM389 236h-153c-84 0 -126 -33 -126 -100c0 -66 39 -96 129 -96c45 0 86 4 122 38c18 17 28 49 28 94v64zM732 278c-3 47 -4 63 -17 93c-22 52 -71 83 -128 83
s-108 -30 -128 -83c-12 -32 -15 -45 -18 -93h291z" />
    <glyph glyph-name="ccedilla" unicode="&#xe7;" horiz-adv-x="504" 
d="M451 70c-52 -58 -95 -76 -163 -76c-135 0 -217 96 -217 253s82 253 217 253c68 0 111 -18 163 -76l-36 -33c-42 47 -75 63 -127 63c-56 0 -101 -22 -131 -66c-25 -36 -34 -74 -34 -141s9 -106 34 -142c30 -44 75 -65 131 -65c52 0 85 16 127 62zM315 -72l-65 -153h-65
l74 153h56z" />
    <glyph glyph-name="egrave" unicode="&#xe8;" horiz-adv-x="535" 
d="M466 236h-343c0 -126 56 -195 161 -195c58 0 94 17 136 59l39 -30c-50 -50 -96 -76 -178 -76c-136 0 -210 88 -210 253c0 160 73 253 197 253s198 -89 198 -241v-23zM414 278c-3 47 -5 63 -18 93c-22 52 -71 83 -128 83s-104 -32 -128 -83c-13 -30 -14 -46 -17 -93h291z
M318 604h-59l-108 151h68z" />
    <glyph glyph-name="eacute" unicode="&#xe9;" horiz-adv-x="535" 
d="M466 236h-343c0 -126 56 -195 161 -195c58 0 94 17 136 59l39 -30c-50 -50 -96 -76 -178 -76c-136 0 -210 88 -210 253c0 160 73 253 197 253s198 -89 198 -241v-23zM414 278c-3 47 -5 63 -18 93c-22 52 -71 83 -128 83s-104 -32 -128 -83c-13 -30 -14 -46 -17 -93h291z
M390 755l-108 -151h-60l100 151h68z" />
    <glyph glyph-name="ecircumflex" unicode="&#xea;" horiz-adv-x="535" 
d="M466 236h-343c0 -126 56 -195 161 -195c58 0 94 17 136 59l39 -30c-50 -50 -96 -76 -178 -76c-136 0 -210 88 -210 253c0 160 73 253 197 253s198 -89 198 -241v-23zM414 278c-3 47 -5 63 -18 93c-22 52 -71 83 -128 83s-104 -32 -128 -83c-13 -30 -14 -46 -17 -93h291z
M424 604h-58l-96 112l-95 -112h-58l126 151h55z" />
    <glyph glyph-name="edieresis" unicode="&#xeb;" horiz-adv-x="535" 
d="M466 236h-343c0 -126 56 -195 161 -195c58 0 94 17 136 59l39 -30c-50 -50 -96 -76 -178 -76c-136 0 -210 88 -210 253c0 160 73 253 197 253s198 -89 198 -241v-23zM414 278c-3 47 -5 63 -18 93c-22 52 -71 83 -128 83s-104 -32 -128 -83c-13 -30 -14 -46 -17 -93h291z
M194 614h-60v79h60v-79zM407 614h-60v79h60v-79z" />
    <glyph glyph-name="igrave" unicode="&#xec;" horiz-adv-x="250" 
d="M152 0h-53v494h53v-494zM152 604h-60l-108 151h68z" />
    <glyph glyph-name="iacute" unicode="&#xed;" horiz-adv-x="250" 
d="M152 0h-53v494h53v-494zM267 755l-108 -151h-60l100 151h68z" />
    <glyph glyph-name="icircumflex" unicode="&#xee;" horiz-adv-x="250" 
d="M152 0h-53v494h53v-494zM279 604h-59l-95 112l-95 -112h-59l126 151h56z" />
    <glyph glyph-name="idieresis" unicode="&#xef;" horiz-adv-x="250" 
d="M152 0h-53v494h53v-494zM48 614h-59v79h59v-79zM261 614h-59v79h59v-79z" />
    <glyph glyph-name="eth" unicode="&#xf0;" horiz-adv-x="538" 
d="M468 247c0 -71 -9 -147 -61 -199c-36 -36 -82 -54 -138 -54c-55 0 -101 18 -137 54c-52 52 -61 128 -61 199s9 146 61 198c36 36 82 55 137 55c26 0 57 -6 77 -18l-68 116h-120v39h97l-54 92h54l53 -92h81v-39h-58l73 -126c55 -96 64 -138 64 -225zM416 247
c0 57 -3 124 -44 165c-28 28 -63 42 -103 42s-74 -14 -102 -42c-41 -41 -44 -108 -44 -165s3 -124 44 -165c28 -28 62 -42 102 -42s75 14 103 42c41 41 44 108 44 165z" />
    <glyph glyph-name="ntilde" unicode="&#xf1;" horiz-adv-x="572" 
d="M479 0h-52v306c0 95 -47 148 -136 148s-139 -54 -139 -148v-306h-53v494h53v-59c37 43 85 65 145 65c54 0 98 -15 131 -47c34 -33 51 -80 51 -138v-315zM443 669c-47 -47 -73 -49 -91 -49c-24 0 -38 6 -70 24c-19 11 -38 22 -58 22c-16 0 -28 -2 -60 -34l-31 30
c47 47 72 49 91 49c30 0 46 -10 71 -25c22 -13 37 -21 57 -21c15 0 29 1 61 33z" />
    <glyph glyph-name="ograve" unicode="&#xf2;" horiz-adv-x="538" 
d="M468 247c0 -71 -9 -147 -61 -199c-36 -36 -83 -54 -138 -54s-101 18 -137 54c-52 52 -61 128 -61 199s9 146 61 198c36 36 82 55 137 55s102 -19 138 -55c52 -52 61 -127 61 -198zM416 247c0 57 -3 124 -44 165c-28 28 -63 42 -103 42s-74 -14 -102 -42
c-41 -41 -44 -108 -44 -165s3 -124 44 -165c28 -28 62 -42 102 -42s75 14 103 42c41 41 44 108 44 165zM323 604h-60l-108 151h68z" />
    <glyph glyph-name="oacute" unicode="&#xf3;" horiz-adv-x="538" 
d="M468 247c0 -71 -9 -147 -61 -199c-36 -36 -83 -54 -138 -54s-101 18 -137 54c-52 52 -61 128 -61 199s9 146 61 198c36 36 82 55 137 55s102 -19 138 -55c52 -52 61 -127 61 -198zM416 247c0 57 -3 124 -44 165c-28 28 -63 42 -103 42s-74 -14 -102 -42
c-41 -41 -44 -108 -44 -165s3 -124 44 -165c28 -28 62 -42 102 -42s75 14 103 42c41 41 44 108 44 165zM389 755l-108 -151h-60l100 151h68z" />
    <glyph glyph-name="ocircumflex" unicode="&#xf4;" horiz-adv-x="538" 
d="M468 247c0 -71 -9 -147 -61 -199c-36 -36 -83 -54 -138 -54s-101 18 -137 54c-52 52 -61 128 -61 199s9 146 61 198c36 36 82 55 137 55s102 -19 138 -55c52 -52 61 -127 61 -198zM416 247c0 57 -3 124 -44 165c-28 28 -63 42 -103 42s-74 -14 -102 -42
c-41 -41 -44 -108 -44 -165s3 -124 44 -165c28 -28 62 -42 102 -42s75 14 103 42c41 41 44 108 44 165zM423 604h-58l-96 112l-95 -112h-58l126 151h55z" />
    <glyph glyph-name="otilde" unicode="&#xf5;" horiz-adv-x="538" 
d="M468 247c0 -71 -9 -147 -61 -199c-36 -36 -83 -54 -138 -54s-101 18 -137 54c-52 52 -61 128 -61 199s9 146 61 198c36 36 82 55 137 55s102 -19 138 -55c52 -52 61 -127 61 -198zM416 247c0 57 -3 124 -44 165c-28 28 -63 42 -103 42s-74 -14 -102 -42
c-41 -41 -44 -108 -44 -165s3 -124 44 -165c28 -28 62 -42 102 -42s75 14 103 42c41 41 44 108 44 165zM422 669c-47 -47 -73 -49 -91 -49c-24 0 -39 6 -71 24c-19 11 -37 22 -57 22c-16 0 -29 -2 -61 -34l-30 30c47 47 72 49 91 49c30 0 45 -10 70 -25
c22 -13 38 -21 58 -21c15 0 28 1 60 33z" />
    <glyph glyph-name="odieresis" unicode="&#xf6;" horiz-adv-x="538" 
d="M468 247c0 -71 -9 -147 -61 -199c-36 -36 -83 -54 -138 -54s-101 18 -137 54c-52 52 -61 128 -61 199s9 146 61 198c36 36 82 55 137 55s102 -19 138 -55c52 -52 61 -127 61 -198zM416 247c0 57 -3 124 -44 165c-28 28 -63 42 -103 42s-74 -14 -102 -42
c-41 -41 -44 -108 -44 -165s3 -124 44 -165c28 -28 62 -42 102 -42s75 14 103 42c41 41 44 108 44 165zM193 614h-60v79h60v-79zM406 614h-60v79h60v-79z" />
    <glyph glyph-name="divide" unicode="&#xf7;" 
d="M227 61v72h72v-72h-72zM54 246v48h418v-48h-418zM227 407v71h72v-71h-72z" />
    <glyph glyph-name="oslash" unicode="&#xf8;" horiz-adv-x="538" 
d="M468 247c0 -71 -9 -147 -61 -199c-36 -36 -82 -54 -138 -54c-40 0 -75 11 -107 30l-41 -69h-49l57 96c-49 52 -58 126 -58 196c0 71 9 146 61 198c36 36 82 55 137 55c41 0 77 -11 108 -31l41 70h49l-57 -97c49 -52 58 -125 58 -195zM352 428c-25 17 -52 26 -83 26
c-40 0 -74 -14 -102 -42c-41 -41 -44 -108 -44 -165c0 -52 1 -110 33 -152zM416 247c0 52 -1 109 -33 151l-197 -332c25 -17 52 -26 83 -26c40 0 75 14 103 42c41 41 44 108 44 165z" />
    <glyph glyph-name="ugrave" unicode="&#xf9;" horiz-adv-x="572" 
d="M473 0h-52v58c-37 -43 -86 -64 -146 -64c-54 0 -98 15 -131 47c-34 33 -51 79 -51 137v316h52v-307c0 -95 48 -147 137 -147s139 53 139 147v307h52v-494zM331 604h-60l-108 151h68z" />
    <glyph glyph-name="uacute" unicode="&#xfa;" horiz-adv-x="572" 
d="M473 0h-52v58c-37 -43 -86 -64 -146 -64c-54 0 -98 15 -131 47c-34 33 -51 79 -51 137v316h52v-307c0 -95 48 -147 137 -147s139 53 139 147v307h52v-494zM402 755l-108 -151h-60l100 151h68z" />
    <glyph glyph-name="ucircumflex" unicode="&#xfb;" horiz-adv-x="572" 
d="M473 0h-52v58c-37 -43 -86 -64 -146 -64c-54 0 -98 15 -131 47c-34 33 -51 79 -51 137v316h52v-307c0 -95 48 -147 137 -147s139 53 139 147v307h52v-494zM436 604h-58l-95 112l-96 -112h-58l126 151h55z" />
    <glyph glyph-name="udieresis" unicode="&#xfc;" horiz-adv-x="572" 
d="M473 0h-52v58c-37 -43 -86 -64 -146 -64c-54 0 -98 15 -131 47c-34 33 -51 79 -51 137v316h52v-307c0 -95 48 -147 137 -147s139 53 139 147v307h52v-494zM206 614h-60v79h60v-79zM419 614h-60v79h60v-79z" />
    <glyph glyph-name="yacute" unicode="&#xfd;" horiz-adv-x="440" 
d="M426 494l-229 -628c-9 -27 -21 -46 -34 -57c-25 -24 -60 -32 -93 -32h-25v46h20c56 0 73 18 90 67l40 110l-181 494h58l148 -433l149 433h57zM340 755l-109 -151h-59l99 151h69z" />
    <glyph glyph-name="thorn" unicode="&#xfe;" horiz-adv-x="552" 
d="M482 247c0 -78 -13 -160 -63 -210c-26 -26 -69 -43 -121 -43c-56 0 -102 12 -146 69v-299h-53v965h53v-299c44 57 90 70 146 70c52 0 95 -17 121 -43c50 -50 63 -132 63 -210zM430 247c0 102 -18 207 -139 207s-139 -105 -139 -207s18 -207 139 -207s139 105 139 207z
" />
    <glyph glyph-name="ydieresis" unicode="&#xff;" horiz-adv-x="440" 
d="M426 494l-229 -628c-9 -27 -21 -46 -34 -57c-25 -24 -60 -32 -93 -32h-25v46h20c56 0 73 18 90 67l40 110l-181 494h58l148 -433l149 433h57zM143 614h-59v79h59v-79zM356 614h-59v79h59v-79z" />
    <glyph glyph-name="Amacron" unicode="&#x100;" horiz-adv-x="616" 
d="M601 0h-59l-64 177h-340l-63 -177h-60l269 729h49zM308 655l-152 -429h305zM460 819h-303v47h303v-47z" />
    <glyph glyph-name="amacron" unicode="&#x101;" horiz-adv-x="536" 
d="M441 0h-52v49c-42 -42 -80 -55 -150 -55c-74 0 -114 12 -146 45c-24 24 -36 59 -36 96c0 90 64 143 172 143h160v55c0 79 -38 121 -139 121c-70 0 -104 -18 -136 -63l-38 33c42 58 93 76 174 76c131 0 191 -59 191 -162v-338zM389 172v64h-153c-84 0 -126 -33 -126 -100
c0 -66 39 -96 129 -96c45 0 86 4 122 38c18 17 28 49 28 94zM420 625h-303v47h303v-47z" />
    <glyph glyph-name="Abreve" unicode="&#x102;" horiz-adv-x="616" 
d="M601 0h-59l-64 177h-340l-63 -177h-60l269 729h49zM308 655l-152 -429h305zM477 949c-9 -87 -58 -138 -169 -138s-160 51 -169 138h46c8 -57 52 -92 123 -92s115 35 123 92h46z" />
    <glyph glyph-name="abreve" unicode="&#x103;" horiz-adv-x="536" 
d="M441 0h-52v49c-42 -42 -80 -55 -150 -55c-74 0 -114 12 -146 45c-24 24 -36 59 -36 96c0 90 64 143 172 143h160v55c0 79 -38 121 -139 121c-70 0 -104 -18 -136 -63l-38 33c42 58 93 76 174 76c131 0 191 -59 191 -162v-338zM389 172v64h-153c-84 0 -126 -33 -126 -100
c0 -66 39 -96 129 -96c45 0 86 4 122 38c18 17 28 49 28 94zM419 739c-9 -87 -58 -138 -169 -138s-160 51 -169 138h46c8 -57 52 -92 123 -92s115 35 123 92h46z" />
    <glyph glyph-name="Aogonek" unicode="&#x104;" horiz-adv-x="616" 
d="M601 0h-59l-64 177h-340l-63 -177h-60l269 729h49zM308 655l-152 -429h305zM598 -72l-66 -153h-64l74 153h56z" />
    <glyph glyph-name="aogonek" unicode="&#x105;" horiz-adv-x="536" 
d="M441 0h-52v49c-42 -42 -80 -55 -150 -55c-74 0 -114 12 -146 45c-24 24 -36 59 -36 96c0 90 64 143 172 143h160v55c0 79 -38 121 -139 121c-70 0 -104 -18 -136 -63l-38 33c42 58 93 76 174 76c131 0 191 -59 191 -162v-338zM389 172v64h-153c-84 0 -126 -33 -126 -100
c0 -66 39 -96 129 -96c45 0 86 4 122 38c18 17 28 49 28 94zM445 -72l-65 -153h-65l74 153h56z" />
    <glyph glyph-name="Cacute" unicode="&#x106;" horiz-adv-x="659" 
d="M582 207c-25 -131 -119 -213 -248 -213c-73 0 -134 26 -177 69c-68 68 -73 125 -73 302s5 233 73 301c43 43 104 69 177 69c131 0 223 -82 248 -213h-57c-22 101 -93 164 -191 164c-53 0 -100 -18 -138 -56c-52 -52 -57 -111 -57 -265s5 -214 57 -266
c38 -38 85 -56 138 -56c98 0 171 63 193 164h55zM450 949l-109 -150h-59l99 150h69z" />
    <glyph glyph-name="cacute" unicode="&#x107;" horiz-adv-x="504" 
d="M451 70c-52 -58 -95 -76 -163 -76c-135 0 -217 96 -217 253s82 253 217 253c68 0 111 -18 163 -76l-36 -33c-42 47 -75 63 -127 63c-56 0 -101 -22 -131 -66c-25 -36 -34 -74 -34 -141s9 -106 34 -142c30 -44 75 -65 131 -65c52 0 85 16 127 62zM408 755l-109 -151h-59
l99 151h69z" />
    <glyph glyph-name="Ccircumflex" unicode="&#x108;" horiz-adv-x="659" 
d="M582 207c-25 -131 -119 -213 -248 -213c-73 0 -134 26 -177 69c-68 68 -73 125 -73 302s5 233 73 301c43 43 104 69 177 69c131 0 223 -82 248 -213h-57c-22 101 -93 164 -191 164c-53 0 -100 -18 -138 -56c-52 -52 -57 -111 -57 -265s5 -214 57 -266
c38 -38 85 -56 138 -56c98 0 171 63 193 164h55zM487 799h-58l-95 111l-95 -111h-59l126 150h55z" />
    <glyph glyph-name="ccircumflex" unicode="&#x109;" horiz-adv-x="504" 
d="M451 70c-52 -58 -95 -76 -163 -76c-135 0 -217 96 -217 253s82 253 217 253c68 0 111 -18 163 -76l-36 -33c-42 47 -75 63 -127 63c-56 0 -101 -22 -131 -66c-25 -36 -34 -74 -34 -141s9 -106 34 -142c30 -44 75 -65 131 -65c52 0 85 16 127 62zM441 604h-58l-95 112
l-95 -112h-59l126 151h55z" />
    <glyph glyph-name="Cdotaccent" unicode="&#x10a;" horiz-adv-x="659" 
d="M582 207c-25 -131 -119 -213 -248 -213c-73 0 -134 26 -177 69c-68 68 -73 125 -73 302s5 233 73 301c43 43 104 69 177 69c131 0 223 -82 248 -213h-57c-22 101 -93 164 -191 164c-53 0 -100 -18 -138 -56c-52 -52 -57 -111 -57 -265s5 -214 57 -266
c38 -38 85 -56 138 -56c98 0 171 63 193 164h55zM366 819h-64v65h64v-65z" />
    <glyph glyph-name="cdotaccent" unicode="&#x10b;" horiz-adv-x="504" 
d="M451 70c-52 -58 -95 -76 -163 -76c-135 0 -217 96 -217 253s82 253 217 253c68 0 111 -18 163 -76l-36 -33c-42 47 -75 63 -127 63c-56 0 -101 -22 -131 -66c-25 -36 -34 -74 -34 -141s9 -106 34 -142c30 -44 75 -65 131 -65c52 0 85 16 127 62zM319 625h-63v64h63v-64z
" />
    <glyph glyph-name="Ccaron" unicode="&#x10c;" horiz-adv-x="659" 
d="M582 207c-25 -131 -119 -213 -248 -213c-73 0 -134 26 -177 69c-68 68 -73 125 -73 302s5 233 73 301c43 43 104 69 177 69c131 0 223 -82 248 -213h-57c-22 101 -93 164 -191 164c-53 0 -100 -18 -138 -56c-52 -52 -57 -111 -57 -265s5 -214 57 -266
c38 -38 85 -56 138 -56c98 0 171 63 193 164h55zM483 949l-126 -150h-55l-126 150h58l96 -111l95 111h58z" />
    <glyph glyph-name="ccaron" unicode="&#x10d;" horiz-adv-x="504" 
d="M451 70c-52 -58 -95 -76 -163 -76c-135 0 -217 96 -217 253s82 253 217 253c68 0 111 -18 163 -76l-36 -33c-42 47 -75 63 -127 63c-56 0 -101 -22 -131 -66c-25 -36 -34 -74 -34 -141s9 -106 34 -142c30 -44 75 -65 131 -65c52 0 85 16 127 62zM441 755l-126 -151h-55
l-126 151h59l95 -112l95 112h58z" />
    <glyph glyph-name="Dcaron" unicode="&#x10e;" horiz-adv-x="694" 
d="M610 365c0 -109 0 -228 -70 -298c-44 -44 -106 -67 -183 -67h-244v729h244c77 0 139 -22 183 -66c70 -70 70 -189 70 -298zM555 365c0 96 0 202 -54 259c-42 44 -99 56 -157 56h-176v-631h176c58 0 115 12 157 56c54 57 54 164 54 260zM501 949l-126 -150h-56l-125 150
h58l95 -111l95 111h59z" />
    <glyph glyph-name="dcaron" unicode="&#x10f;" horiz-adv-x="552" 
d="M454 0h-53v63c-44 -57 -90 -69 -146 -69c-52 0 -95 17 -121 43c-50 50 -63 132 -63 210s13 160 63 210c26 26 69 43 121 43c56 0 102 -13 146 -70v299h53v-729zM401 247c0 102 -18 207 -139 207s-139 -105 -139 -207s18 -207 139 -207s139 105 139 207zM615 729l-49 -151
h-48l41 151h56z" />
    <glyph glyph-name="Dcroat" unicode="&#x110;" horiz-adv-x="705" 
d="M622 365c0 -109 -1 -228 -71 -298c-44 -44 -105 -67 -182 -67h-245v346h-83v43h83v340h245c77 0 138 -22 182 -66c70 -70 71 -189 71 -298zM566 365c0 96 0 202 -54 259c-42 44 -99 56 -157 56h-176v-291h182v-43h-182v-297h176c58 0 115 12 157 56c54 57 54 164 54 260z
" />
    <glyph glyph-name="dcroat" unicode="&#x111;" horiz-adv-x="563" 
d="M520 588h-66v-588h-53v63c-43 -57 -91 -69 -146 -69c-51 0 -95 17 -121 43c-50 50 -63 132 -63 210s13 160 63 210c26 26 70 43 121 43c55 0 103 -13 146 -70v158h-139v37h139v104h53v-104h66v-37zM401 247c0 102 -18 207 -139 207s-139 -105 -139 -207s18 -207 139 -207
s139 105 139 207z" />
    <glyph glyph-name="Emacron" unicode="&#x112;" horiz-adv-x="612" 
d="M555 0h-442v729h442v-49h-387v-288h330v-49h-330v-294h387v-49zM473 819h-303v47h303v-47z" />
    <glyph glyph-name="emacron" unicode="&#x113;" horiz-adv-x="535" 
d="M466 236h-343c0 -126 56 -195 161 -195c58 0 94 17 136 59l39 -30c-50 -50 -96 -76 -178 -76c-136 0 -210 88 -210 253c0 160 73 253 197 253s198 -89 198 -241v-23zM414 278c-3 47 -5 63 -18 93c-22 52 -71 83 -128 83s-104 -32 -128 -83c-13 -30 -14 -46 -17 -93h291z
M419 625h-303v47h303v-47z" />
    <glyph glyph-name="Ebreve" unicode="&#x114;" horiz-adv-x="612" 
d="M555 0h-442v729h442v-49h-387v-288h330v-49h-330v-294h387v-49zM490 949c-9 -87 -57 -138 -168 -138s-160 51 -169 138h46c8 -57 52 -92 123 -92s114 35 122 92h46z" />
    <glyph glyph-name="ebreve" unicode="&#x115;" horiz-adv-x="535" 
d="M466 236h-343c0 -126 56 -195 161 -195c58 0 94 17 136 59l39 -30c-50 -50 -96 -76 -178 -76c-136 0 -210 88 -210 253c0 160 73 253 197 253s198 -89 198 -241v-23zM414 278c-3 47 -5 63 -18 93c-22 52 -71 83 -128 83s-104 -32 -128 -83c-13 -30 -14 -46 -17 -93h291z
M439 739c-9 -87 -58 -138 -169 -138s-160 51 -169 138h46c8 -57 52 -92 123 -92s115 35 123 92h46z" />
    <glyph glyph-name="Edotaccent" unicode="&#x116;" horiz-adv-x="612" 
d="M555 0h-442v729h442v-49h-387v-288h330v-49h-330v-294h387v-49zM353 819h-63v65h63v-65z" />
    <glyph glyph-name="edotaccent" unicode="&#x117;" horiz-adv-x="535" 
d="M466 236h-343c0 -126 56 -195 161 -195c58 0 94 17 136 59l39 -30c-50 -50 -96 -76 -178 -76c-136 0 -210 88 -210 253c0 160 73 253 197 253s198 -89 198 -241v-23zM414 278c-3 47 -5 63 -18 93c-22 52 -71 83 -128 83s-104 -32 -128 -83c-13 -30 -14 -46 -17 -93h291z
M299 625h-63v64h63v-64z" />
    <glyph glyph-name="Eogonek" unicode="&#x118;" horiz-adv-x="612" 
d="M555 0h-442v729h442v-49h-387v-288h330v-49h-330v-294h387v-49zM555 -72l-66 -153h-64l74 153h56z" />
    <glyph glyph-name="eogonek" unicode="&#x119;" horiz-adv-x="535" 
d="M466 236h-343c0 -126 56 -195 161 -195c58 0 94 17 136 59l39 -30c-50 -50 -96 -76 -178 -76c-136 0 -210 88 -210 253c0 160 73 253 197 253s198 -89 198 -241v-23zM414 278c-3 47 -5 63 -18 93c-22 52 -71 83 -128 83s-104 -32 -128 -83c-13 -30 -14 -46 -17 -93h291z
M364 -72l-66 -153h-65l74 153h57z" />
    <glyph glyph-name="Ecaron" unicode="&#x11a;" horiz-adv-x="612" 
d="M555 0h-442v729h442v-49h-387v-288h330v-49h-330v-294h387v-49zM475 949l-126 -150h-55l-126 150h58l96 -111l95 111h58z" />
    <glyph glyph-name="ecaron" unicode="&#x11b;" horiz-adv-x="535" 
d="M466 236h-343c0 -126 56 -195 161 -195c58 0 94 17 136 59l39 -30c-50 -50 -96 -76 -178 -76c-136 0 -210 88 -210 253c0 160 73 253 197 253s198 -89 198 -241v-23zM414 278c-3 47 -5 63 -18 93c-22 52 -71 83 -128 83s-104 -32 -128 -83c-13 -30 -14 -46 -17 -93h291z
M421 755l-126 -151h-55l-126 151h58l95 -112l95 112h59z" />
    <glyph glyph-name="Gcircumflex" unicode="&#x11c;" horiz-adv-x="666" 
d="M585 254c0 -77 -17 -128 -60 -176c-47 -52 -117 -84 -191 -84c-73 0 -134 26 -177 69c-68 68 -73 125 -73 302s5 233 73 301c43 43 104 69 177 69c127 0 227 -85 249 -213h-56c-22 101 -95 164 -193 164c-53 0 -100 -18 -138 -56c-52 -52 -57 -111 -57 -265
s5 -214 57 -266c38 -38 85 -56 138 -56c57 0 113 25 151 71c32 40 44 82 44 144v66h-195v49h251v-119zM487 799h-58l-95 111l-95 -111h-59l126 150h55z" />
    <glyph glyph-name="gcircumflex" unicode="&#x11d;" horiz-adv-x="552" 
d="M454 -28c0 -124 -74 -214 -202 -214c-74 0 -112 20 -163 66l35 35c39 -36 66 -55 128 -55c103 0 149 73 149 171v88c-44 -57 -90 -69 -146 -69c-52 0 -95 17 -121 43c-50 50 -63 132 -63 210s13 160 63 210c26 26 69 43 121 43c56 0 102 -13 146 -70v64h53v-522zM401 247
c0 102 -18 207 -139 207s-139 -105 -139 -207s18 -207 139 -207s139 105 139 207zM437 604h-58l-95 112l-96 -112h-58l126 151h55z" />
    <glyph glyph-name="Gbreve" unicode="&#x11e;" horiz-adv-x="666" 
d="M585 254c0 -77 -17 -128 -60 -176c-47 -52 -117 -84 -191 -84c-73 0 -134 26 -177 69c-68 68 -73 125 -73 302s5 233 73 301c43 43 104 69 177 69c127 0 227 -85 249 -213h-56c-22 101 -95 164 -193 164c-53 0 -100 -18 -138 -56c-52 -52 -57 -111 -57 -265
s5 -214 57 -266c38 -38 85 -56 138 -56c57 0 113 25 151 71c32 40 44 82 44 144v66h-195v49h251v-119zM500 949c-9 -87 -58 -138 -169 -138s-160 51 -169 138h46c8 -57 52 -92 123 -92s115 35 123 92h46z" />
    <glyph glyph-name="gbreve" unicode="&#x11f;" horiz-adv-x="552" 
d="M454 -28c0 -124 -74 -214 -202 -214c-74 0 -112 20 -163 66l35 35c39 -36 66 -55 128 -55c103 0 149 73 149 171v88c-44 -57 -90 -69 -146 -69c-52 0 -95 17 -121 43c-50 50 -63 132 -63 210s13 160 63 210c26 26 69 43 121 43c56 0 102 -13 146 -70v64h53v-522zM401 247
c0 102 -18 207 -139 207s-139 -105 -139 -207s18 -207 139 -207s139 105 139 207zM431 739c-9 -87 -58 -138 -169 -138s-160 51 -169 138h46c8 -57 52 -92 123 -92s115 35 123 92h46z" />
    <glyph glyph-name="Gdotaccent" unicode="&#x120;" horiz-adv-x="666" 
d="M585 254c0 -77 -17 -128 -60 -176c-47 -52 -117 -84 -191 -84c-73 0 -134 26 -177 69c-68 68 -73 125 -73 302s5 233 73 301c43 43 104 69 177 69c127 0 227 -85 249 -213h-56c-22 101 -95 164 -193 164c-53 0 -100 -18 -138 -56c-52 -52 -57 -111 -57 -265
s5 -214 57 -266c38 -38 85 -56 138 -56c57 0 113 25 151 71c32 40 44 82 44 144v66h-195v49h251v-119zM366 819h-64v65h64v-65z" />
    <glyph glyph-name="gdotaccent" unicode="&#x121;" horiz-adv-x="552" 
d="M454 -28c0 -124 -74 -214 -202 -214c-74 0 -112 20 -163 66l35 35c39 -36 66 -55 128 -55c103 0 149 73 149 171v88c-44 -57 -90 -69 -146 -69c-52 0 -95 17 -121 43c-50 50 -63 132 -63 210s13 160 63 210c26 26 69 43 121 43c56 0 102 -13 146 -70v64h53v-522zM401 247
c0 102 -18 207 -139 207s-139 -105 -139 -207s18 -207 139 -207s139 105 139 207zM294 625h-64v64h64v-64z" />
    <glyph glyph-name="Gcommaaccent" unicode="&#x122;" horiz-adv-x="666" 
d="M585 254c0 -77 -17 -128 -60 -176c-47 -52 -117 -84 -191 -84c-73 0 -134 26 -177 69c-68 68 -73 125 -73 302s5 233 73 301c43 43 104 69 177 69c127 0 227 -85 249 -213h-56c-22 101 -95 164 -193 164c-53 0 -100 -18 -138 -56c-52 -52 -57 -111 -57 -265
s5 -214 57 -266c38 -38 85 -56 138 -56c57 0 113 25 151 71c32 40 44 82 44 144v66h-195v49h251v-119zM367 -72l-66 -153h-64l73 153h57z" />
    <glyph glyph-name="gcommaaccent" unicode="&#x123;" horiz-adv-x="552" 
d="M454 -28c0 -124 -74 -214 -202 -214c-74 0 -112 20 -163 66l35 35c39 -36 66 -55 128 -55c103 0 149 73 149 171v88c-44 -57 -90 -69 -146 -69c-52 0 -95 17 -121 43c-50 50 -63 132 -63 210s13 160 63 210c26 26 69 43 121 43c56 0 102 -13 146 -70v64h53v-522zM401 247
c0 102 -18 207 -139 207s-139 -105 -139 -207s18 -207 139 -207s139 105 139 207zM396 755l-108 -151h-60l100 151h68z" />
    <glyph glyph-name="Hcircumflex" unicode="&#x124;" horiz-adv-x="715" 
d="M603 0h-55v343h-380v-343h-55v729h55v-337h380v337h55v-729zM512 799h-58l-96 111l-95 -111h-58l126 150h55z" />
    <glyph glyph-name="hcircumflex" unicode="&#x125;" horiz-adv-x="572" 
d="M479 0h-52v306c0 95 -47 148 -136 148s-139 -53 -139 -148v-306h-53v729h53v-294c37 43 85 65 145 65c114 0 182 -70 182 -185v-315zM280 799h-59l-95 111l-95 -111h-59l126 150h56z" />
    <glyph glyph-name="Hbar" unicode="&#x126;" horiz-adv-x="728" 
d="M609 0h-55v343h-380v-343h-55v529h-78v43h78v157h55v-157h380v157h55v-157h78v-43h-78v-529zM554 392v137h-380v-137h380z" />
    <glyph glyph-name="hbar" unicode="&#x127;" horiz-adv-x="582" 
d="M489 0h-52v306c0 95 -48 148 -136 148s-139 -55 -139 -148v-306h-52v588h-67v37h67v104h52v-104h139v-37h-139v-153c43 45 83 65 146 65c112 0 181 -71 181 -185v-315z" />
    <glyph glyph-name="Itilde" unicode="&#x128;" horiz-adv-x="280" 
d="M168 0h-55v729h55v-729zM293 863c-47 -47 -73 -49 -91 -49c-24 0 -39 7 -71 25c-19 11 -37 21 -57 21c-16 0 -29 -2 -61 -34l-30 30c47 47 72 49 91 49c30 0 45 -9 70 -24c22 -13 38 -22 58 -22c15 0 28 2 60 34z" />
    <glyph glyph-name="itilde" unicode="&#x129;" horiz-adv-x="250" 
d="M152 0h-53v494h53v-494zM281 669c-47 -47 -74 -49 -92 -49c-24 0 -38 6 -70 24c-19 11 -38 22 -58 22c-16 0 -28 -2 -60 -34l-31 30c47 47 72 49 91 49c30 0 46 -10 71 -25c22 -13 37 -21 57 -21c15 0 29 1 61 33z" />
    <glyph glyph-name="Imacron" unicode="&#x12a;" horiz-adv-x="280" 
d="M168 0h-55v729h55v-729zM292 819h-303v47h303v-47z" />
    <glyph glyph-name="imacron" unicode="&#x12b;" horiz-adv-x="250" 
d="M152 0h-53v494h53v-494zM278 625h-304v47h304v-47z" />
    <glyph glyph-name="Ibreve" unicode="&#x12c;" horiz-adv-x="280" 
d="M168 0h-55v729h55v-729zM309 949c-9 -87 -58 -138 -169 -138s-160 51 -169 138h46c8 -57 52 -92 123 -92s115 35 123 92h46z" />
    <glyph glyph-name="ibreve" unicode="&#x12d;" horiz-adv-x="250" 
d="M152 0h-53v494h53v-494zM294 739c-9 -87 -58 -138 -169 -138s-160 51 -169 138h46c8 -57 52 -92 123 -92s115 35 123 92h46z" />
    <glyph glyph-name="Iogonek" unicode="&#x12e;" horiz-adv-x="280" 
d="M168 0h-55v729h55v-729zM169 -72l-66 -153h-64l74 153h56z" />
    <glyph glyph-name="iogonek" unicode="&#x12f;" horiz-adv-x="250" 
d="M152 0h-53v494h53v-494zM158 665h-65v64h65v-64zM156 -72l-66 -153h-64l73 153h57z" />
    <glyph glyph-name="Idotaccent" unicode="&#x130;" horiz-adv-x="280" 
d="M168 0h-55v729h55v-729zM172 819h-63v65h63v-65z" />
    <glyph glyph-name="dotlessi" unicode="&#x131;" horiz-adv-x="250" 
d="M152 0h-53v494h53v-494z" />
    <glyph glyph-name="IJ" unicode="&#x132;" horiz-adv-x="790" 
d="M168 0h-55v729h55v-729zM688 215c0 -133 -85 -221 -217 -221c-65 0 -118 20 -160 62l38 38c28 -28 57 -51 122 -51c105 0 162 65 162 183v503h55v-514z" />
    <glyph glyph-name="ij" unicode="&#x133;" horiz-adv-x="501" 
d="M152 0h-53v494h53v-494zM158 665h-65v64h65v-64zM402 -108c0 -78 -37 -128 -118 -128h-45v47h35c58 0 76 27 76 83v600h52v-602zM409 665h-65v64h65v-64z" />
    <glyph glyph-name="Jcircumflex" unicode="&#x134;" horiz-adv-x="509" 
d="M408 215c0 -133 -86 -221 -218 -221c-65 0 -117 20 -159 62l38 38c28 -28 56 -51 121 -51c105 0 162 65 162 183v503h56v-514zM534 799h-59l-95 111l-95 -111h-59l126 150h56z" />
    <glyph glyph-name="jcircumflex" unicode="&#x135;" horiz-adv-x="250" 
d="M152 -108c0 -78 -38 -128 -119 -128h-45v47h36c58 0 75 27 75 83v600h53v-602zM279 604h-59l-95 112l-95 -112h-59l126 151h56z" />
    <glyph glyph-name="Kcommaaccent" unicode="&#x136;" horiz-adv-x="660" 
d="M642 0h-65l-235 409l-174 -211v-198h-55v729h55v-456l370 456h66l-225 -278zM390 -72l-65 -153h-65l74 153h56z" />
    <glyph glyph-name="kcommaaccent" unicode="&#x137;" horiz-adv-x="539" 
d="M499 0h-65l-170 271l-112 -130v-141h-53v729h53v-514l244 279h67l-163 -185zM329 -72l-66 -153h-64l73 153h57z" />
    <glyph glyph-name="kgreenlandic" unicode="&#x138;" horiz-adv-x="539" 
d="M499 0h-65l-170 271l-112 -130v-141h-53v494h53v-279l244 279h67l-163 -185z" />
    <glyph glyph-name="Lacute" unicode="&#x139;" horiz-adv-x="585" 
d="M555 0h-442v729h55v-680h387v-49zM273 949l-108 -150h-60l100 150h68z" />
    <glyph glyph-name="lacute" unicode="&#x13a;" horiz-adv-x="293" 
d="M261 0h-45c-81 0 -119 50 -119 128v601h53v-600c0 -56 17 -83 75 -83h36v-46zM265 949l-108 -150h-60l100 150h68z" />
    <glyph glyph-name="Lcommaaccent" unicode="&#x13b;" horiz-adv-x="585" 
d="M555 0h-442v729h55v-680h387v-49zM352 -72l-65 -153h-65l74 153h56z" />
    <glyph glyph-name="lcommaaccent" unicode="&#x13c;" horiz-adv-x="293" 
d="M261 0h-45c-81 0 -119 50 -119 128v601h53v-600c0 -56 17 -83 75 -83h36v-46zM207 -72l-66 -153h-64l74 153h56z" />
    <glyph glyph-name="Lcaron" unicode="&#x13d;" horiz-adv-x="585" 
d="M555 0h-442v729h55v-680h387v-49zM391 729l-49 -151h-48l41 151h56z" />
    <glyph glyph-name="lcaron" unicode="&#x13e;" horiz-adv-x="293" 
d="M261 0h-45c-81 0 -119 50 -119 128v601h53v-600c0 -56 17 -83 75 -83h36v-46zM310 729l-49 -151h-48l41 151h56z" />
    <glyph glyph-name="Ldot" unicode="&#x13f;" horiz-adv-x="585" 
d="M555 0h-442v729h55v-680h387v-49zM470 335h-63v64h63v-64z" />
    <glyph glyph-name="ldot" unicode="&#x140;" horiz-adv-x="300" 
d="M261 0h-45c-81 0 -119 50 -119 128v601h53v-600c0 -56 17 -83 75 -83h36v-46zM305 238h-63v64h63v-64z" />
    <glyph glyph-name="Lslash" unicode="&#x141;" horiz-adv-x="591" 
d="M561 0h-442v313l-78 -49v49l78 49v367h55v-332l168 107v-49l-168 -107v-299h387v-49z" />
    <glyph glyph-name="lslash" unicode="&#x142;" horiz-adv-x="315" 
d="M272 0h-45c-81 0 -118 50 -118 128v237l-68 -42v46l68 42v318h52v-286l90 57v-46l-90 -57v-268c0 -56 18 -83 76 -83h35v-46z" />
    <glyph glyph-name="Nacute" unicode="&#x143;" horiz-adv-x="756" 
d="M644 0h-55l-421 634v-634h-55v729h55l421 -632v632h55v-729zM498 949l-109 -150h-59l99 150h69z" />
    <glyph glyph-name="nacute" unicode="&#x144;" horiz-adv-x="572" 
d="M479 0h-52v306c0 95 -47 148 -136 148s-139 -54 -139 -148v-306h-53v494h53v-59c37 43 85 65 145 65c54 0 98 -15 131 -47c34 -33 51 -80 51 -138v-315zM406 755l-109 -151h-59l99 151h69z" />
    <glyph glyph-name="Ncommaaccent" unicode="&#x145;" horiz-adv-x="756" 
d="M644 0h-55l-421 634v-634h-55v729h55l421 -632v632h55v-729zM427 -72l-66 -153h-64l74 153h56z" />
    <glyph glyph-name="ncommaaccent" unicode="&#x146;" horiz-adv-x="572" 
d="M479 0h-52v306c0 95 -47 148 -136 148s-139 -54 -139 -148v-306h-53v494h53v-59c37 43 85 65 145 65c54 0 98 -15 131 -47c34 -33 51 -80 51 -138v-315zM345 -72l-65 -153h-65l74 153h56z" />
    <glyph glyph-name="Ncaron" unicode="&#x147;" horiz-adv-x="756" 
d="M644 0h-55l-421 634v-634h-55v729h55l421 -632v632h55v-729zM531 949l-125 -150h-56l-126 150h59l95 -111l95 111h58z" />
    <glyph glyph-name="ncaron" unicode="&#x148;" horiz-adv-x="572" 
d="M479 0h-52v306c0 95 -47 148 -136 148s-139 -54 -139 -148v-306h-53v494h53v-59c37 43 85 65 145 65c54 0 98 -15 131 -47c34 -33 51 -80 51 -138v-315zM439 755l-126 -151h-55l-126 151h58l96 -112l95 112h58z" />
    <glyph glyph-name="napostrophe" unicode="&#x149;" horiz-adv-x="572" 
d="M479 0h-52v306c0 95 -47 148 -136 148s-139 -54 -139 -148v-306h-53v494h53v-59c37 43 85 65 145 65c54 0 98 -15 131 -47c34 -33 51 -80 51 -138v-315zM99 598l-54 -57v188h54v-131z" />
    <glyph glyph-name="Eng" unicode="&#x14a;" horiz-adv-x="756" 
d="M644 -97c0 -78 -38 -128 -119 -128h-45v46h33c58 0 76 27 76 83v96l-421 634v-634h-55v729h55l421 -632v632h55v-826z" />
    <glyph glyph-name="eng" unicode="&#x14b;" horiz-adv-x="572" 
d="M479 -97c0 -78 -38 -128 -119 -128h-45v46h36c58 0 76 27 76 83v402c0 95 -47 148 -136 148s-139 -54 -139 -148v-306h-53v494h53v-59c37 43 85 65 145 65c54 0 98 -15 131 -47c34 -33 51 -80 51 -138v-412z" />
    <glyph glyph-name="Omacron" unicode="&#x14c;" horiz-adv-x="667" 
d="M584 365c0 -177 -5 -234 -73 -302c-43 -43 -104 -69 -177 -69s-134 26 -177 69c-68 68 -73 125 -73 302s5 233 73 301c43 43 104 69 177 69s134 -26 177 -69c68 -68 73 -124 73 -301zM528 365c0 154 -4 213 -56 265c-38 38 -85 56 -138 56s-100 -18 -138 -56
c-52 -52 -57 -111 -57 -265s5 -214 57 -266c38 -38 85 -56 138 -56s100 18 138 56c52 52 56 112 56 266zM485 819h-303v47h303v-47z" />
    <glyph glyph-name="omacron" unicode="&#x14d;" horiz-adv-x="538" 
d="M468 247c0 -71 -9 -147 -61 -199c-36 -36 -83 -54 -138 -54s-101 18 -137 54c-52 52 -61 128 -61 199s9 146 61 198c36 36 82 55 137 55s102 -19 138 -55c52 -52 61 -127 61 -198zM416 247c0 57 -3 124 -44 165c-28 28 -63 42 -103 42s-74 -14 -102 -42
c-41 -41 -44 -108 -44 -165s3 -124 44 -165c28 -28 62 -42 102 -42s75 14 103 42c41 41 44 108 44 165zM421 625h-303v47h303v-47z" />
    <glyph glyph-name="Obreve" unicode="&#x14e;" horiz-adv-x="667" 
d="M584 365c0 -177 -5 -234 -73 -302c-43 -43 -104 -69 -177 -69s-134 26 -177 69c-68 68 -73 125 -73 302s5 233 73 301c43 43 104 69 177 69s134 -26 177 -69c68 -68 73 -124 73 -301zM528 365c0 154 -4 213 -56 265c-38 38 -85 56 -138 56s-100 -18 -138 -56
c-52 -52 -57 -111 -57 -265s5 -214 57 -266c38 -38 85 -56 138 -56s100 18 138 56c52 52 56 112 56 266zM503 949c-9 -87 -58 -138 -169 -138s-160 51 -169 138h46c8 -57 52 -92 123 -92s115 35 123 92h46z" />
    <glyph glyph-name="obreve" unicode="&#x14f;" horiz-adv-x="538" 
d="M468 247c0 -71 -9 -147 -61 -199c-36 -36 -83 -54 -138 -54s-101 18 -137 54c-52 52 -61 128 -61 199s9 146 61 198c36 36 82 55 137 55s102 -19 138 -55c52 -52 61 -127 61 -198zM416 247c0 57 -3 124 -44 165c-28 28 -63 42 -103 42s-74 -14 -102 -42
c-41 -41 -44 -108 -44 -165s3 -124 44 -165c28 -28 62 -42 102 -42s75 14 103 42c41 41 44 108 44 165zM413 714c-7 -85 -58 -123 -144 -123s-136 38 -143 123h52c5 -53 36 -82 91 -82s86 29 91 82h53z" />
    <glyph glyph-name="Ohungarumlaut" unicode="&#x150;" horiz-adv-x="667" 
d="M584 365c0 -177 -5 -234 -73 -302c-43 -43 -104 -69 -177 -69s-134 26 -177 69c-68 68 -73 125 -73 302s5 233 73 301c43 43 104 69 177 69s134 -26 177 -69c68 -68 73 -124 73 -301zM528 365c0 154 -4 213 -56 265c-38 38 -85 56 -138 56s-100 -18 -138 -56
c-52 -52 -57 -111 -57 -265s5 -214 57 -266c38 -38 85 -56 138 -56s100 18 138 56c52 52 56 112 56 266zM379 949l-109 -150h-59l99 150h69zM529 949l-109 -150h-59l100 150h68z" />
    <glyph glyph-name="ohungarumlaut" unicode="&#x151;" horiz-adv-x="538" 
d="M468 247c0 -71 -9 -147 -61 -199c-36 -36 -83 -54 -138 -54s-101 18 -137 54c-52 52 -61 128 -61 199s9 146 61 198c36 36 82 55 137 55s102 -19 138 -55c52 -52 61 -127 61 -198zM416 247c0 57 -3 124 -44 165c-28 28 -63 42 -103 42s-74 -14 -102 -42
c-41 -41 -44 -108 -44 -165s3 -124 44 -165c28 -28 62 -42 102 -42s75 14 103 42c41 41 44 108 44 165zM314 755l-108 -151h-60l100 151h68zM465 755l-110 -151h-58l99 151h69z" />
    <glyph glyph-name="OE" unicode="&#x152;" horiz-adv-x="1020" 
d="M964 0h-436v87c-49 -61 -119 -93 -194 -93c-73 0 -134 26 -177 69c-68 68 -73 125 -73 302s5 233 73 301c43 43 104 69 177 69c80 0 144 -31 194 -93v87h433v-48h-378c0 -98 1 -194 1 -292h320v-43h-320c0 -99 -1 -199 -1 -298h381v-48zM528 365c0 154 -4 213 -56 265
c-38 38 -85 56 -138 56s-100 -18 -138 -56c-52 -52 -57 -111 -57 -265s5 -214 57 -266c38 -38 85 -56 138 -56s100 18 138 56c52 52 56 112 56 266z" />
    <glyph glyph-name="oe" unicode="&#x153;" horiz-adv-x="880" 
d="M468 236c0 -126 56 -195 161 -195c58 0 94 17 136 59l39 -30c-50 -50 -96 -76 -178 -76c-88 0 -149 35 -183 107c-32 -70 -97 -107 -174 -107c-55 0 -101 18 -137 54c-52 52 -61 128 -61 199s9 146 61 198c36 36 82 55 137 55c78 0 142 -38 174 -108
c32 70 91 108 170 108c124 0 198 -89 198 -241v-23h-343zM416 247c0 57 -3 124 -44 165c-28 28 -63 42 -103 42s-74 -14 -102 -42c-41 -41 -44 -108 -44 -165s3 -124 44 -165c28 -28 62 -42 102 -42s75 14 103 42c41 41 44 108 44 165zM759 278c-3 47 -5 63 -18 93
c-22 52 -71 83 -128 83s-109 -32 -128 -83c-10 -28 -14 -45 -17 -93h291z" />
    <glyph glyph-name="Racute" unicode="&#x154;" horiz-adv-x="672" 
d="M607 0h-64l-174 336h-201v-336h-55v729h277c119 0 209 -68 209 -195c0 -110 -66 -180 -168 -197zM544 532c0 101 -67 148 -161 148h-215v-295h215c94 0 161 46 161 147zM456 949l-109 -150h-59l99 150h69z" />
    <glyph glyph-name="racute" unicode="&#x155;" horiz-adv-x="418" 
d="M377 415c-30 30 -52 39 -93 39c-85 0 -132 -71 -132 -150v-304h-53v494h53v-66c29 46 86 72 144 72c48 0 83 -11 119 -47zM330 755l-109 -151h-59l99 151h69z" />
    <glyph glyph-name="Rcommaaccent" unicode="&#x156;" horiz-adv-x="672" 
d="M607 0h-64l-174 336h-201v-336h-55v729h277c119 0 209 -68 209 -195c0 -110 -66 -180 -168 -197zM544 532c0 101 -67 148 -161 148h-215v-295h215c94 0 161 46 161 147zM394 -72l-65 -153h-65l74 153h56z" />
    <glyph glyph-name="rcommaaccent" unicode="&#x157;" horiz-adv-x="418" 
d="M377 415c-30 30 -52 39 -93 39c-85 0 -132 -71 -132 -150v-304h-53v494h53v-66c29 46 86 72 144 72c48 0 83 -11 119 -47zM155 -72l-66 -153h-64l73 153h57z" />
    <glyph glyph-name="Rcaron" unicode="&#x158;" horiz-adv-x="672" 
d="M607 0h-64l-174 336h-201v-336h-55v729h277c119 0 209 -68 209 -195c0 -110 -66 -180 -168 -197zM544 532c0 101 -67 148 -161 148h-215v-295h215c94 0 161 46 161 147zM489 949l-125 -150h-56l-126 150h59l95 -111l95 111h58z" />
    <glyph glyph-name="rcaron" unicode="&#x159;" horiz-adv-x="418" 
d="M377 415c-30 30 -52 39 -93 39c-85 0 -132 -71 -132 -150v-304h-53v494h53v-66c29 46 86 72 144 72c48 0 83 -11 119 -47zM364 755l-126 -151h-56l-126 151h59l95 -112l95 112h59z" />
    <glyph glyph-name="Sacute" unicode="&#x15a;" horiz-adv-x="601" 
d="M541 196c0 -123 -93 -202 -246 -202c-108 0 -176 29 -243 96l39 39c66 -66 120 -86 207 -86c116 0 187 56 187 151c0 44 -12 78 -40 102c-26 23 -47 30 -105 39l-85 13c-55 8 -98 24 -130 52c-38 32 -57 78 -57 136c0 122 86 199 226 199c90 0 148 -25 210 -79l-36 -35
c-43 41 -91 67 -177 67c-106 0 -169 -57 -169 -150c0 -42 11 -75 37 -97s63 -36 104 -42l85 -13c68 -10 96 -21 130 -50c39 -34 63 -81 63 -140zM420 949l-109 -150h-59l99 150h69z" />
    <glyph glyph-name="sacute" unicode="&#x15b;" horiz-adv-x="505" 
d="M449 140c0 -90 -76 -146 -198 -146c-86 0 -150 23 -200 71l36 35c38 -40 92 -60 162 -60c97 0 148 33 148 100c0 52 -28 77 -94 83l-82 7c-99 8 -148 51 -148 129c0 86 69 141 177 141c69 0 129 -20 173 -53l-35 -34c-38 28 -84 42 -138 42c-82 0 -126 -35 -126 -96
c0 -52 30 -76 100 -83l80 -7c82 -8 145 -33 145 -129zM373 755l-109 -151h-59l99 151h69z" />
    <glyph glyph-name="Scircumflex" unicode="&#x15c;" horiz-adv-x="601" 
d="M541 196c0 -123 -93 -202 -246 -202c-108 0 -176 29 -243 96l39 39c66 -66 120 -86 207 -86c116 0 187 56 187 151c0 44 -12 78 -40 102c-26 23 -47 30 -105 39l-85 13c-55 8 -98 24 -130 52c-38 32 -57 78 -57 136c0 122 86 199 226 199c90 0 148 -25 210 -79l-36 -35
c-43 41 -91 67 -177 67c-106 0 -169 -57 -169 -150c0 -42 11 -75 37 -97s63 -36 104 -42l85 -13c68 -10 96 -21 130 -50c39 -34 63 -81 63 -140zM452 799h-59l-95 111l-95 -111h-59l126 150h56z" />
    <glyph glyph-name="scircumflex" unicode="&#x15d;" horiz-adv-x="505" 
d="M449 140c0 -90 -76 -146 -198 -146c-86 0 -150 23 -200 71l36 35c38 -40 92 -60 162 -60c97 0 148 33 148 100c0 52 -28 77 -94 83l-82 7c-99 8 -148 51 -148 129c0 86 69 141 177 141c69 0 129 -20 173 -53l-35 -34c-38 28 -84 42 -138 42c-82 0 -126 -35 -126 -96
c0 -52 30 -76 100 -83l80 -7c82 -8 145 -33 145 -129zM410 604h-59l-95 112l-95 -112h-59l126 151h56z" />
    <glyph glyph-name="Scedilla" unicode="&#x15e;" horiz-adv-x="601" 
d="M541 196c0 -123 -93 -202 -246 -202c-108 0 -176 29 -243 96l39 39c66 -66 120 -86 207 -86c116 0 187 56 187 151c0 44 -12 78 -40 102c-26 23 -47 30 -105 39l-85 13c-55 8 -98 24 -130 52c-38 32 -57 78 -57 136c0 122 86 199 226 199c90 0 148 -25 210 -79l-36 -35
c-43 41 -91 67 -177 67c-106 0 -169 -57 -169 -150c0 -42 11 -75 37 -97s63 -36 104 -42l85 -13c68 -10 96 -21 130 -50c39 -34 63 -81 63 -140zM328 -72l-66 -153h-64l73 153h57z" />
    <glyph glyph-name="scedilla" unicode="&#x15f;" horiz-adv-x="505" 
d="M449 140c0 -90 -76 -146 -198 -146c-86 0 -150 23 -200 71l36 35c38 -40 92 -60 162 -60c97 0 148 33 148 100c0 52 -28 77 -94 83l-82 7c-99 8 -148 51 -148 129c0 86 69 141 177 141c69 0 129 -20 173 -53l-35 -34c-38 28 -84 42 -138 42c-82 0 -126 -35 -126 -96
c0 -52 30 -76 100 -83l80 -7c82 -8 145 -33 145 -129zM284 -72l-66 -153h-64l73 153h57z" />
    <glyph glyph-name="Scaron" unicode="&#x160;" horiz-adv-x="601" 
d="M541 196c0 -123 -93 -202 -246 -202c-108 0 -176 29 -243 96l39 39c66 -66 120 -86 207 -86c116 0 187 56 187 151c0 44 -12 78 -40 102c-26 23 -47 30 -105 39l-85 13c-55 8 -98 24 -130 52c-38 32 -57 78 -57 136c0 122 86 199 226 199c90 0 148 -25 210 -79l-36 -35
c-43 41 -91 67 -177 67c-106 0 -169 -57 -169 -150c0 -42 11 -75 37 -97s63 -36 104 -42l85 -13c68 -10 96 -21 130 -50c39 -34 63 -81 63 -140zM447 949l-125 -150h-56l-126 150h59l95 -111l95 111h58z" />
    <glyph glyph-name="scaron" unicode="&#x161;" horiz-adv-x="505" 
d="M449 140c0 -90 -76 -146 -198 -146c-86 0 -150 23 -200 71l36 35c38 -40 92 -60 162 -60c97 0 148 33 148 100c0 52 -28 77 -94 83l-82 7c-99 8 -148 51 -148 129c0 86 69 141 177 141c69 0 129 -20 173 -53l-35 -34c-38 28 -84 42 -138 42c-82 0 -126 -35 -126 -96
c0 -52 30 -76 100 -83l80 -7c82 -8 145 -33 145 -129zM403 755l-125 -151h-56l-126 151h59l95 -112l95 112h58z" />
    <glyph glyph-name="Tcommaaccent" unicode="&#x162;" horiz-adv-x="551" 
d="M521 680h-218v-680h-55v680h-217v49h490v-49zM304 -72l-65 -153h-65l74 153h56z" />
    <glyph glyph-name="tcommaaccent" unicode="&#x163;" horiz-adv-x="332" 
d="M275 0h-45c-78 0 -118 54 -118 129v326h-68v39h68v157h52v-157h111v-39h-111v-327c0 -52 24 -82 76 -82h35v-46zM226 -72l-65 -153h-65l74 153h56z" />
    <glyph glyph-name="Tcaron" unicode="&#x164;" horiz-adv-x="551" 
d="M521 680h-218v-680h-55v680h-217v49h490v-49zM429 949l-126 -150h-55l-126 150h58l95 -111l96 111h58z" />
    <glyph glyph-name="tcaron" unicode="&#x165;" horiz-adv-x="332" 
d="M275 0h-45c-78 0 -118 54 -118 129v326h-68v39h68v157h52v-157h111v-39h-111v-327c0 -52 24 -82 76 -82h35v-46zM326 729l-50 -151h-48l41 151h57z" />
    <glyph glyph-name="Tbar" unicode="&#x166;" horiz-adv-x="551" 
d="M521 680h-218v-291h132v-43h-132v-346h-55v346h-133v43h133v291h-217v49h490v-49z" />
    <glyph glyph-name="tbar" unicode="&#x167;" horiz-adv-x="332" 
d="M275 0h-45c-78 0 -118 54 -118 129v122h-68v39h68v165h-68v39h68v157h52v-157h111v-39h-111v-165h111v-39h-111v-123c0 -52 24 -82 76 -82h35v-46z" />
    <glyph glyph-name="Utilde" unicode="&#x168;" horiz-adv-x="704" 
d="M602 237c0 -142 -104 -243 -250 -243s-250 101 -250 243v492h56v-485c0 -121 76 -201 194 -201s195 80 195 201v485h55v-492zM508 863c-47 -47 -73 -49 -91 -49c-24 0 -39 7 -71 25c-19 11 -37 21 -57 21c-16 0 -29 -2 -61 -34l-30 30c47 47 72 49 91 49
c30 0 45 -9 70 -24c22 -13 38 -22 58 -22c15 0 28 2 60 34z" />
    <glyph glyph-name="utilde" unicode="&#x169;" horiz-adv-x="572" 
d="M473 0h-52v58c-37 -43 -86 -64 -146 -64c-54 0 -98 15 -131 47c-34 33 -51 79 -51 137v316h52v-307c0 -95 48 -147 137 -147s139 53 139 147v307h52v-494zM438 669c-47 -47 -73 -49 -91 -49c-24 0 -39 6 -71 24c-19 11 -37 22 -57 22c-16 0 -28 -2 -60 -34l-31 30
c47 47 72 49 91 49c30 0 46 -10 71 -25c22 -13 37 -21 57 -21c15 0 29 1 61 33z" />
    <glyph glyph-name="Umacron" unicode="&#x16a;" horiz-adv-x="704" 
d="M602 237c0 -142 -104 -243 -250 -243s-250 101 -250 243v492h56v-485c0 -121 76 -201 194 -201s195 80 195 201v485h55v-492zM504 819h-303v47h303v-47z" />
    <glyph glyph-name="umacron" unicode="&#x16b;" horiz-adv-x="572" 
d="M473 0h-52v58c-37 -43 -86 -64 -146 -64c-54 0 -98 15 -131 47c-34 33 -51 79 -51 137v316h52v-307c0 -95 48 -147 137 -147s139 53 139 147v307h52v-494zM437 625h-303v47h303v-47z" />
    <glyph glyph-name="Ubreve" unicode="&#x16c;" horiz-adv-x="704" 
d="M602 237c0 -142 -104 -243 -250 -243s-250 101 -250 243v492h56v-485c0 -121 76 -201 194 -201s195 80 195 201v485h55v-492zM521 949c-9 -87 -58 -138 -169 -138s-160 51 -169 138h46c8 -57 52 -92 123 -92s115 35 123 92h46z" />
    <glyph glyph-name="ubreve" unicode="&#x16d;" horiz-adv-x="572" 
d="M473 0h-52v58c-37 -43 -86 -64 -146 -64c-54 0 -98 15 -131 47c-34 33 -51 79 -51 137v316h52v-307c0 -95 48 -147 137 -147s139 53 139 147v307h52v-494zM451 739c-9 -87 -58 -138 -169 -138s-160 51 -169 138h46c8 -57 52 -92 123 -92s114 35 122 92h47z" />
    <glyph glyph-name="Uring" unicode="&#x16e;" horiz-adv-x="704" 
d="M602 237c0 -142 -104 -243 -250 -243s-250 101 -250 243v492h56v-485c0 -121 76 -201 194 -201s195 80 195 201v485h55v-492zM469 888c0 -65 -52 -118 -117 -118s-116 53 -116 118s51 117 116 117s117 -52 117 -117zM427 888c0 41 -34 74 -75 74s-74 -33 -74 -74
s33 -75 74 -75s75 34 75 75z" />
    <glyph glyph-name="uring" unicode="&#x16f;" horiz-adv-x="572" 
d="M473 0h-52v58c-37 -43 -86 -64 -146 -64c-54 0 -98 15 -131 47c-34 33 -51 79 -51 137v316h52v-307c0 -95 48 -147 137 -147s139 53 139 147v307h52v-494zM402 693c0 -65 -51 -118 -116 -118s-117 53 -117 118s52 117 117 117s116 -52 116 -117zM360 693
c0 41 -33 74 -74 74s-75 -33 -75 -74s34 -75 75 -75s74 34 74 75z" />
    <glyph glyph-name="Uhungarumlaut" unicode="&#x170;" horiz-adv-x="704" 
d="M602 237c0 -142 -104 -243 -250 -243s-250 101 -250 243v492h56v-485c0 -121 76 -201 194 -201s195 80 195 201v485h55v-492zM397 949l-108 -150h-60l100 150h68zM548 949l-110 -150h-58l99 150h69z" />
    <glyph glyph-name="uhungarumlaut" unicode="&#x171;" horiz-adv-x="572" 
d="M473 0h-52v58c-37 -43 -86 -64 -146 -64c-54 0 -98 15 -131 47c-34 33 -51 79 -51 137v316h52v-307c0 -95 48 -147 137 -147s139 53 139 147v307h52v-494zM331 755l-109 -151h-59l99 151h69zM481 755l-109 -151h-59l100 151h68z" />
    <glyph glyph-name="Uogonek" unicode="&#x172;" horiz-adv-x="704" 
d="M602 237c0 -142 -104 -243 -250 -243s-250 101 -250 243v492h56v-485c0 -121 76 -201 194 -201s195 80 195 201v485h55v-492zM496 -72l-66 -153h-64l73 153h57z" />
    <glyph glyph-name="uogonek" unicode="&#x173;" horiz-adv-x="572" 
d="M473 0h-52v58c-37 -43 -86 -64 -146 -64c-54 0 -98 15 -131 47c-34 33 -51 79 -51 137v316h52v-307c0 -95 48 -147 137 -147s139 53 139 147v307h52v-494zM477 -72l-65 -153h-65l74 153h56z" />
    <glyph glyph-name="Wcircumflex" unicode="&#x174;" horiz-adv-x="862" 
d="M842 729l-183 -729h-56l-172 635l-172 -635h-56l-183 729h59l153 -634l170 634h58l170 -634l153 634h59zM585 799h-59l-95 111l-95 -111h-58l125 150h56z" />
    <glyph glyph-name="wcircumflex" unicode="&#x175;" horiz-adv-x="729" 
d="M715 494l-158 -494h-53l-139 412l-140 -412h-53l-158 494h58l126 -433l141 433h51l141 -433l126 433h58zM518 604h-58l-95 112l-96 -112h-58l126 151h55z" />
    <glyph glyph-name="Ycircumflex" unicode="&#x176;" horiz-adv-x="505" 
d="M496 729l-215 -427v-302h-56v302l-215 427h60l185 -369l181 369h60zM409 799h-59l-95 111l-95 -111h-59l126 150h56z" />
    <glyph glyph-name="ycircumflex" unicode="&#x177;" horiz-adv-x="440" 
d="M426 494l-229 -628c-9 -27 -21 -46 -34 -57c-25 -24 -60 -32 -93 -32h-25v46h20c56 0 73 18 90 67l40 110l-181 494h58l148 -433l149 433h57zM374 604h-59l-95 112l-95 -112h-58l126 151h55z" />
    <glyph glyph-name="Ydieresis" unicode="&#x178;" horiz-adv-x="505" 
d="M496 729l-215 -427v-302h-56v302l-215 427h60l185 -369l181 369h60zM176 809h-59v79h59v-79zM389 809h-59v79h59v-79z" />
    <glyph glyph-name="Zacute" unicode="&#x179;" horiz-adv-x="572" 
d="M508 0h-443v58l384 622h-369v49h428v-49l-387 -631h387v-49zM406 949l-109 -150h-59l99 150h69z" />
    <glyph glyph-name="zacute" unicode="&#x17a;" horiz-adv-x="462" 
d="M408 0h-353v49l297 398h-280v47h336v-50l-298 -398h298v-46zM351 755l-108 -151h-60l100 151h68z" />
    <glyph glyph-name="Zdotaccent" unicode="&#x17b;" horiz-adv-x="572" 
d="M508 0h-443v58l384 622h-369v49h428v-49l-387 -631h387v-49zM317 819h-63v65h63v-65z" />
    <glyph glyph-name="zdotaccent" unicode="&#x17c;" horiz-adv-x="462" 
d="M408 0h-353v49l297 398h-280v47h336v-50l-298 -398h298v-46zM263 625h-63v64h63v-64z" />
    <glyph glyph-name="Zcaron" unicode="&#x17d;" horiz-adv-x="572" 
d="M508 0h-443v58l384 622h-369v49h428v-49l-387 -631h387v-49zM447 949l-125 -150h-56l-126 150h59l95 -111l95 111h58z" />
    <glyph glyph-name="zcaron" unicode="&#x17e;" horiz-adv-x="462" 
d="M408 0h-353v49l297 398h-280v47h336v-50l-298 -398h298v-46zM393 755l-126 -151h-55l-126 151h58l96 -112l95 112h58z" />
    <glyph glyph-name="longs" unicode="&#x17f;" horiz-adv-x="250" 
d="M263 683h-36c-52 0 -75 -30 -75 -82v-601h-53v600c0 75 41 129 119 129h45v-46z" />
    <glyph glyph-name="uni018F" unicode="&#x18f;" horiz-adv-x="666" 
d="M583 365c0 -177 -5 -234 -73 -302c-43 -43 -104 -69 -177 -69c-74 0 -145 32 -192 84c-43 48 -59 99 -59 176v119h445c0 147 -5 206 -56 257c-38 38 -85 56 -138 56c-98 0 -172 -63 -194 -164h-55c22 128 122 213 249 213c73 0 134 -26 177 -69c68 -68 73 -124 73 -301z
M527 324h-390v-66c0 -62 12 -104 44 -144c38 -46 95 -71 152 -71c53 0 100 18 138 56c47 47 55 101 56 225z" />
    <glyph glyph-name="florin" unicode="&#x192;" horiz-adv-x="403" 
d="M373 683h-44c-52 0 -81 -30 -90 -82l-37 -212h111v-39h-118l-104 -586h-52l103 586h-111v39h119l36 211c13 75 64 129 142 129h45v-46z" />
    <glyph glyph-name="uni01B5" unicode="&#x1b5;" horiz-adv-x="572" 
d="M508 0h-443v58l177 288h-116v43h142l181 291h-369v49h428v-49l-178 -291h116v-43h-143l-182 -297h387v-49z" />
    <glyph glyph-name="uni01B6" unicode="&#x1b6;" horiz-adv-x="462" 
d="M408 0h-353v49l133 179h-86v37h114l136 182h-280v47h336v-50l-135 -179h86v-37h-113l-136 -182h298v-46z" />
    <glyph glyph-name="uni01C4" unicode="&#x1c4;" horiz-adv-x="1266" 
d="M610 365c0 -109 0 -228 -70 -298c-44 -44 -106 -67 -183 -67h-244v729h244c77 0 139 -22 183 -66c70 -70 70 -189 70 -298zM555 365c0 96 0 202 -54 259c-42 44 -99 56 -157 56h-176v-631h176c58 0 115 12 157 56c54 57 54 164 54 260zM1202 0h-443v58l384 622h-369v49
h428v-49l-387 -631h387v-49zM1142 949l-126 -150h-55l-126 150h58l95 -111l95 111h59z" />
    <glyph glyph-name="uni01C5" unicode="&#x1c5;" horiz-adv-x="1157" 
d="M610 365c0 -109 0 -228 -70 -298c-44 -44 -106 -67 -183 -67h-244v729h244c77 0 139 -22 183 -66c70 -70 70 -189 70 -298zM555 365c0 96 0 202 -54 259c-42 44 -99 56 -157 56h-176v-631h176c58 0 115 12 157 56c54 57 54 164 54 260zM1102 0h-352v49l297 398h-281v47
h336v-50l-298 -398h298v-46zM1087 755l-125 -151h-56l-126 151h59l95 -112l95 112h58z" />
    <glyph glyph-name="uni01C6" unicode="&#x1c6;" horiz-adv-x="1015" 
d="M454 0h-53v63c-44 -57 -90 -69 -146 -69c-52 0 -95 17 -121 43c-50 50 -63 132 -63 210s13 160 63 210c26 26 69 43 121 43c56 0 102 -13 146 -70v299h53v-729zM401 247c0 102 -18 207 -139 207s-139 -105 -139 -207s18 -207 139 -207s139 105 139 207zM961 0h-353v49
l297 398h-280v47h336v-50l-298 -398h298v-46zM946 755l-126 -151h-55l-126 151h58l96 -112l95 112h58z" />
    <glyph glyph-name="uni01C7" unicode="&#x1c7;" horiz-adv-x="1095" 
d="M555 0h-442v729h55v-680h387v-49zM993 215c0 -133 -85 -221 -217 -221c-65 0 -118 20 -160 62l38 38c28 -28 57 -51 122 -51c105 0 162 65 162 183v503h55v-514z" />
    <glyph glyph-name="uni01C8" unicode="&#x1c8;" horiz-adv-x="836" 
d="M555 0h-442v729h55v-680h387v-49zM737 -108c0 -78 -38 -128 -119 -128h-45v47h36c58 0 76 27 76 83v600h52v-602zM743 665h-64v64h64v-64z" />
    <glyph glyph-name="uni01C9" unicode="&#x1c9;" horiz-adv-x="544" 
d="M261 0h-45c-81 0 -119 50 -119 128v601h53v-600c0 -56 17 -83 75 -83h36v-46zM445 -108c0 -78 -37 -128 -118 -128h-45v47h35c58 0 76 27 76 83v600h52v-602zM452 665h-65v64h65v-64z" />
    <glyph glyph-name="uni01CA" unicode="&#x1ca;" horiz-adv-x="1266" 
d="M644 0h-55l-421 634v-634h-55v729h55l421 -632v632h55v-729zM1164 215c0 -133 -85 -221 -217 -221c-65 0 -118 20 -160 62l38 38c28 -28 57 -51 122 -51c105 0 162 65 162 183v503h55v-514z" />
    <glyph glyph-name="uni01CB" unicode="&#x1cb;" horiz-adv-x="1007" 
d="M644 0h-55l-421 634v-634h-55v729h55l421 -632v632h55v-729zM908 -108c0 -78 -37 -128 -118 -128h-46v47h36c58 0 76 27 76 83v600h52v-602zM914 665h-64v64h64v-64z" />
    <glyph glyph-name="uni01CC" unicode="&#x1cc;" horiz-adv-x="823" 
d="M479 0h-52v306c0 95 -47 148 -136 148s-139 -54 -139 -148v-306h-53v494h53v-59c37 43 85 65 145 65c54 0 98 -15 131 -47c34 -33 51 -80 51 -138v-315zM724 -108c0 -78 -38 -128 -119 -128h-45v47h36c58 0 76 27 76 83v600h52v-602zM730 665h-64v64h64v-64z" />
    <glyph glyph-name="uni01F1" unicode="&#x1f1;" horiz-adv-x="1266" 
d="M610 365c0 -109 0 -228 -70 -298c-44 -44 -106 -67 -183 -67h-244v729h244c77 0 139 -22 183 -66c70 -70 70 -189 70 -298zM555 365c0 96 0 202 -54 259c-42 44 -99 56 -157 56h-176v-631h176c58 0 115 12 157 56c54 57 54 164 54 260zM1202 0h-443v58l384 622h-369v49
h428v-49l-387 -631h387v-49z" />
    <glyph glyph-name="uni01F2" unicode="&#x1f2;" horiz-adv-x="1157" 
d="M610 365c0 -109 0 -228 -70 -298c-44 -44 -106 -67 -183 -67h-244v729h244c77 0 139 -22 183 -66c70 -70 70 -189 70 -298zM555 365c0 96 0 202 -54 259c-42 44 -99 56 -157 56h-176v-631h176c58 0 115 12 157 56c54 57 54 164 54 260zM1102 0h-352v49l297 398h-281v47
h336v-50l-298 -398h298v-46z" />
    <glyph glyph-name="uni01F3" unicode="&#x1f3;" horiz-adv-x="1015" 
d="M454 0h-53v63c-44 -57 -90 -69 -146 -69c-52 0 -95 17 -121 43c-50 50 -63 132 -63 210s13 160 63 210c26 26 69 43 121 43c56 0 102 -13 146 -70v299h53v-729zM401 247c0 102 -18 207 -139 207s-139 -105 -139 -207s18 -207 139 -207s139 105 139 207zM961 0h-353v49
l297 398h-280v47h336v-50l-298 -398h298v-46z" />
    <glyph glyph-name="Aringacute" unicode="&#x1fa;" horiz-adv-x="616" 
d="M601 0h-59l-64 177h-340l-63 -177h-60l269 729h49zM308 655l-152 -429h305zM425 882c0 -65 -52 -118 -117 -118s-117 53 -117 118s52 116 117 116s117 -51 117 -116zM383 882c0 41 -34 73 -75 73s-75 -32 -75 -73s34 -75 75 -75s75 34 75 75zM428 1159l-109 -150h-59
l99 150h69z" />
    <glyph glyph-name="aringacute" unicode="&#x1fb;" horiz-adv-x="536" 
d="M441 0h-52v49c-42 -42 -80 -55 -150 -55c-74 0 -114 12 -146 45c-24 24 -36 59 -36 96c0 90 64 143 172 143h160v55c0 79 -38 121 -139 121c-70 0 -104 -18 -136 -63l-38 33c42 58 93 76 174 76c131 0 191 -59 191 -162v-338zM389 172v64h-153c-84 0 -126 -33 -126 -100
c0 -66 39 -96 129 -96c45 0 86 4 122 38c18 17 28 49 28 94zM372 693c0 -65 -52 -118 -117 -118s-117 53 -117 118s52 117 117 117s117 -52 117 -117zM330 693c0 41 -34 74 -75 74s-75 -33 -75 -74s34 -75 75 -75s75 34 75 75zM375 971l-109 -151h-59l99 151h69z" />
    <glyph glyph-name="AEacute" unicode="&#x1fc;" horiz-adv-x="922" 
d="M865 0h-441v177h-261l-92 -177h-61l386 729h469v-49h-387v-291h330v-49h-330v-291h387v-49zM424 226v454l-238 -454h238zM585 949l-109 -150h-59l99 150h69z" />
    <glyph glyph-name="aeacute" unicode="&#x1fd;" horiz-adv-x="854" 
d="M784 236h-343c0 -126 56 -195 161 -195c58 0 94 17 136 59l39 -30c-50 -50 -97 -76 -179 -76c-83 0 -142 31 -176 92c-41 -67 -92 -92 -183 -92c-74 0 -114 12 -146 45c-24 24 -36 59 -36 96c0 90 64 143 172 143h160v55c0 79 -38 121 -139 121c-70 0 -104 -18 -136 -63
l-38 33c42 58 93 76 174 76c93 0 151 -29 177 -87c34 57 89 87 160 87c124 0 197 -89 197 -241v-23zM389 236h-153c-84 0 -126 -33 -126 -100c0 -66 39 -96 129 -96c45 0 86 4 122 38c18 17 28 49 28 94v64zM732 278c-3 47 -4 63 -17 93c-22 52 -71 83 -128 83
s-108 -30 -128 -83c-12 -32 -15 -45 -18 -93h291zM557 755l-108 -151h-60l99 151h69z" />
    <glyph glyph-name="Oslashacute" unicode="&#x1fe;" horiz-adv-x="667" 
d="M584 365c0 -177 -5 -234 -73 -302c-43 -43 -104 -69 -177 -69c-51 0 -95 13 -133 36l-36 -75h-54l50 104c-73 71 -77 129 -77 306s5 233 73 301c43 43 104 69 177 69c50 0 96 -13 133 -36l36 75h54l-50 -104c73 -72 77 -128 77 -305zM444 652c-33 23 -69 34 -110 34
c-53 0 -100 -18 -138 -56c-52 -52 -57 -111 -57 -265c0 -143 3 -205 46 -254zM528 365c0 142 -4 203 -46 253l-259 -541c33 -23 69 -34 111 -34c53 0 100 18 138 56c52 52 56 112 56 266zM454 949l-109 -150h-59l99 150h69z" />
    <glyph glyph-name="oslashacute" unicode="&#x1ff;" horiz-adv-x="538" 
d="M468 247c0 -71 -9 -147 -61 -199c-36 -36 -82 -54 -138 -54c-40 0 -75 11 -107 30l-41 -69h-49l57 96c-49 52 -58 126 -58 196c0 71 9 146 61 198c36 36 82 55 137 55c41 0 77 -11 108 -31l41 70h49l-57 -97c49 -52 58 -125 58 -195zM352 428c-25 17 -52 26 -83 26
c-40 0 -74 -14 -102 -42c-41 -41 -44 -108 -44 -165c0 -52 1 -110 33 -152zM416 247c0 52 -1 109 -33 151l-197 -332c25 -17 52 -26 83 -26c40 0 75 14 103 42c41 41 44 108 44 165zM389 755l-108 -151h-60l100 151h68z" />
    <glyph glyph-name="Scommaaccent" unicode="&#x218;" horiz-adv-x="601" 
d="M541 196c0 -123 -93 -202 -246 -202c-108 0 -176 29 -243 96l39 39c66 -66 120 -86 207 -86c116 0 187 56 187 151c0 44 -12 78 -40 102c-26 23 -47 30 -105 39l-85 13c-55 8 -98 24 -130 52c-38 32 -57 78 -57 136c0 122 86 199 226 199c90 0 148 -25 210 -79l-36 -35
c-43 41 -91 67 -177 67c-106 0 -169 -57 -169 -150c0 -42 11 -75 37 -97s63 -36 104 -42l85 -13c68 -10 96 -21 130 -50c39 -34 63 -81 63 -140zM328 -72l-66 -153h-64l73 153h57z" />
    <glyph glyph-name="scommaaccent" unicode="&#x219;" horiz-adv-x="505" 
d="M449 140c0 -90 -76 -146 -198 -146c-86 0 -150 23 -200 71l36 35c38 -40 92 -60 162 -60c97 0 148 33 148 100c0 52 -28 77 -94 83l-82 7c-99 8 -148 51 -148 129c0 86 69 141 177 141c69 0 129 -20 173 -53l-35 -34c-38 28 -84 42 -138 42c-82 0 -126 -35 -126 -96
c0 -52 30 -76 100 -83l80 -7c82 -8 145 -33 145 -129zM284 -72l-66 -153h-64l73 153h57z" />
    <glyph glyph-name="uni021A" unicode="&#x21a;" horiz-adv-x="551" 
d="M521 680h-218v-680h-55v680h-217v49h490v-49zM304 -72l-65 -153h-65l74 153h56z" />
    <glyph glyph-name="uni021B" unicode="&#x21b;" horiz-adv-x="332" 
d="M275 0h-45c-78 0 -118 54 -118 129v326h-68v39h68v157h52v-157h111v-39h-111v-327c0 -52 24 -82 76 -82h35v-46zM226 -72l-65 -153h-65l74 153h56z" />
    <glyph glyph-name="uni0237" unicode="&#x237;" horiz-adv-x="250" 
d="M152 -108c0 -78 -38 -128 -119 -128h-45v47h36c58 0 75 27 75 83v600h53v-602z" />
    <glyph glyph-name="uni0259" unicode="&#x259;" horiz-adv-x="535" 
d="M70 258h343c0 126 -56 195 -161 195c-58 0 -94 -18 -136 -60l-39 31c50 50 96 76 178 76c136 0 210 -88 210 -253c0 -160 -74 -253 -198 -253s-197 88 -197 240v24zM122 216c3 -47 4 -63 17 -93c22 -52 71 -83 128 -83s104 32 128 83c13 30 15 46 18 93h-291z" />
    <glyph glyph-name="uni02BB" unicode="&#x2bb;" horiz-adv-x="266" 
d="M169 657h-72v72l72 72v-144z" />
    <glyph glyph-name="afii57929" unicode="&#x2bc;" horiz-adv-x="266" 
d="M169 657l-72 -71v143h72v-72z" />
    <glyph glyph-name="circumflex" unicode="&#x2c6;" horiz-adv-x="512" 
d="M410 604h-59l-95 112l-95 -112h-59l126 151h56z" />
    <glyph glyph-name="caron" unicode="&#x2c7;" horiz-adv-x="512" 
d="M410 755l-126 -151h-56l-126 151h59l95 -112l95 112h59z" />
    <glyph glyph-name="breve" unicode="&#x2d8;" horiz-adv-x="512" 
d="M425 739c-9 -87 -58 -138 -169 -138s-160 51 -169 138h46c8 -57 52 -92 123 -92s115 35 123 92h46z" />
    <glyph glyph-name="dotaccent" unicode="&#x2d9;" horiz-adv-x="512" 
d="M288 625h-64v64h64v-64z" />
    <glyph glyph-name="ring" unicode="&#x2da;" horiz-adv-x="512" 
d="M373 693c0 -65 -52 -118 -117 -118s-117 53 -117 118s52 117 117 117s117 -52 117 -117zM331 693c0 41 -34 74 -75 74s-75 -33 -75 -74s34 -75 75 -75s75 34 75 75z" />
    <glyph glyph-name="ogonek" unicode="&#x2db;" horiz-adv-x="512" 
d="M364 -72l-66 -153h-65l74 153h57z" />
    <glyph glyph-name="tilde" unicode="&#x2dc;" horiz-adv-x="512" 
d="M409 669c-47 -47 -74 -49 -92 -49c-26 0 -41 8 -70 24c-19 11 -38 22 -58 22c-16 0 -28 -2 -60 -34l-31 30c47 47 72 49 91 49c30 0 46 -10 71 -25c22 -13 37 -21 57 -21c15 0 29 1 61 33z" />
    <glyph glyph-name="hungarumlaut" unicode="&#x2dd;" horiz-adv-x="512" 
d="M301 755l-108 -151h-60l99 151h69zM452 755l-110 -151h-58l99 151h69z" />
    <glyph glyph-name="uni037E" unicode="&#x37e;" horiz-adv-x="299" 
d="M198 -70l-70 -69v209h70v-140zM202 319h-76v76h76v-76z" />
    <glyph glyph-name="tonos" unicode="&#x384;" horiz-adv-x="259" 
d="M163 630l-60 -34v133h60v-99z" />
    <glyph glyph-name="dieresistonos" unicode="&#x385;" horiz-adv-x="512" 
d="M392 614h-59v79h59v-79zM286 630l-60 -34v133h60v-99zM179 614h-59v79h59v-79z" />
    <glyph glyph-name="Alphatonos" unicode="&#x386;" horiz-adv-x="616" 
d="M601 0h-59l-64 177h-340l-63 -177h-60l269 729h49zM461 226l-153 429l-152 -429h305zM70 630l-60 -34v133h60v-99z" />
    <glyph glyph-name="anoteleia" unicode="&#x387;" horiz-adv-x="270" 
d="M173 232h-76v76h76v-76z" />
    <glyph glyph-name="Epsilontonos" unicode="&#x388;" horiz-adv-x="612" 
d="M555 0h-442v729h442v-49h-387v-288h330v-49h-330v-294h387v-49zM8 630l-59 -34v133h59v-99z" />
    <glyph glyph-name="Etatonos" unicode="&#x389;" horiz-adv-x="715" 
d="M603 0h-55v343h-380v-343h-55v729h55v-337h380v337h55v-729zM8 630l-59 -34v133h59v-99z" />
    <glyph glyph-name="Iotatonos" unicode="&#x38a;" horiz-adv-x="280" 
d="M168 0h-55v729h55v-729zM8 630l-59 -34v133h59v-99z" />
    <glyph glyph-name="Omicrontonos" unicode="&#x38c;" horiz-adv-x="667" 
d="M584 365c0 -177 -5 -234 -73 -302c-43 -43 -104 -69 -177 -69s-134 26 -177 69c-68 68 -73 125 -73 302s5 233 73 301c43 43 104 69 177 69s134 -26 177 -69c68 -68 73 -124 73 -301zM528 365c0 154 -4 213 -56 265c-38 38 -85 56 -138 56s-100 -18 -138 -56
c-52 -52 -57 -111 -57 -265s5 -214 57 -266c38 -38 85 -56 138 -56s100 18 138 56c52 52 56 112 56 266zM29 630l-60 -34v133h60v-99z" />
    <glyph glyph-name="Upsilontonos" unicode="&#x38e;" horiz-adv-x="505" 
d="M496 729l-215 -427v-302h-56v302l-215 427h60l185 -369l181 369h60zM-12 630l-60 -34v133h60v-99z" />
    <glyph glyph-name="Omegatonos" unicode="&#x38f;" horiz-adv-x="667" 
d="M584 365c0 -117 -1 -192 -30 -244c-14 -27 -33 -48 -64 -73h94v-48h-191v48c47 23 81 46 108 90c26 42 27 117 27 227c0 154 -4 213 -56 265c-38 38 -85 56 -138 56s-100 -18 -138 -56c-52 -52 -57 -111 -57 -265c0 -110 2 -185 28 -227c27 -44 60 -67 107 -90v-48h-190
v48h93c-31 25 -49 46 -63 73c-29 52 -30 127 -30 244c0 177 5 233 73 301c43 43 104 69 177 69s134 -26 177 -69c68 -68 73 -124 73 -301zM29 630l-60 -34v133h60v-99z" />
    <glyph glyph-name="iotadieresistonos" unicode="&#x390;" horiz-adv-x="293" 
d="M261 0h-45c-81 0 -119 50 -119 128v366h53v-365c0 -56 17 -83 75 -83h36v-46zM259 614h-59v79h59v-79zM153 630l-60 -34v133h60v-99zM46 614h-59v79h59v-79z" />
    <glyph glyph-name="Alpha" unicode="&#x391;" horiz-adv-x="616" 
d="M601 0h-59l-64 177h-340l-63 -177h-60l269 729h49zM461 226l-153 429l-152 -429h305z" />
    <glyph glyph-name="Beta" unicode="&#x392;" horiz-adv-x="687" 
d="M603 199c0 -130 -86 -199 -214 -199h-276v729h268c121 0 211 -70 211 -190c0 -77 -43 -140 -114 -164c79 -28 125 -91 125 -176zM548 199c0 94 -66 149 -165 149h-215v-299h215c99 0 165 56 165 150zM537 539c0 100 -74 141 -162 141h-207v-283h207c88 0 162 42 162 142z
" />
    <glyph glyph-name="Gamma" unicode="&#x393;" horiz-adv-x="567" 
d="M543 680h-367v-680h-55v729h422v-49z" />
    <glyph glyph-name="uni0394" unicode="&#x394;" horiz-adv-x="605" 
d="M595 0h-585l269 729h48zM523 49l-221 606l-220 -606h441z" />
    <glyph glyph-name="Epsilon" unicode="&#x395;" horiz-adv-x="612" 
d="M555 0h-442v729h442v-49h-387v-288h330v-49h-330v-294h387v-49z" />
    <glyph glyph-name="Zeta" unicode="&#x396;" horiz-adv-x="572" 
d="M508 0h-443v58l384 622h-369v49h428v-49l-387 -631h387v-49z" />
    <glyph glyph-name="Eta" unicode="&#x397;" horiz-adv-x="715" 
d="M603 0h-55v343h-380v-343h-55v729h55v-337h380v337h55v-729z" />
    <glyph glyph-name="Theta" unicode="&#x398;" horiz-adv-x="667" 
d="M584 365c0 -177 -5 -234 -73 -302c-43 -43 -104 -69 -177 -69s-134 26 -177 69c-68 68 -73 125 -73 302s5 233 73 301c43 43 104 69 177 69s134 -26 177 -69c68 -68 73 -124 73 -301zM528 343h-389c0 -137 7 -195 57 -244c38 -38 85 -56 138 -56s100 18 138 56
c49 49 55 107 56 244zM528 392c-1 133 -7 189 -56 238c-38 38 -85 56 -138 56s-100 -18 -138 -56c-49 -49 -57 -105 -57 -238h389z" />
    <glyph glyph-name="Iota" unicode="&#x399;" horiz-adv-x="280" 
d="M168 0h-55v729h55v-729z" />
    <glyph glyph-name="Kappa" unicode="&#x39a;" horiz-adv-x="660" 
d="M642 0h-65l-235 409l-174 -211v-198h-55v729h55v-456l370 456h66l-225 -278z" />
    <glyph glyph-name="Lambda" unicode="&#x39b;" horiz-adv-x="583" 
d="M558 0h-58l-208 655l-208 -655h-58l239 729h53z" />
    <glyph glyph-name="Mu" unicode="&#x39c;" horiz-adv-x="837" 
d="M725 0h-55v601l-221 -499h-56l-225 499v-601h-55v729h55l254 -562l248 562h55v-729z" />
    <glyph glyph-name="Nu" unicode="&#x39d;" horiz-adv-x="756" 
d="M644 0h-55l-421 634v-634h-55v729h55l421 -632v632h55v-729z" />
    <glyph glyph-name="Xi" unicode="&#x39e;" horiz-adv-x="577" 
d="M520 0h-463v49h204v294h-146v49h146v288h-204v49h463v-49h-204v-288h147v-49h-147v-294h204v-49z" />
    <glyph glyph-name="Omicron" unicode="&#x39f;" horiz-adv-x="667" 
d="M584 365c0 -177 -5 -234 -73 -302c-43 -43 -104 -69 -177 -69s-134 26 -177 69c-68 68 -73 125 -73 302s5 233 73 301c43 43 104 69 177 69s134 -26 177 -69c68 -68 73 -124 73 -301zM528 365c0 154 -4 213 -56 265c-38 38 -85 56 -138 56s-100 -18 -138 -56
c-52 -52 -57 -111 -57 -265s5 -214 57 -266c38 -38 85 -56 138 -56s100 18 138 56c52 52 56 112 56 266z" />
    <glyph glyph-name="Pi" unicode="&#x3a0;" horiz-adv-x="696" 
d="M583 0h-56v680h-359v-680h-55v729h470v-729z" />
    <glyph glyph-name="Rho" unicode="&#x3a1;" horiz-adv-x="646" 
d="M600 519c0 -133 -94 -210 -220 -210h-212v-309h-55v729h267c126 0 220 -77 220 -210zM545 519c0 110 -70 161 -171 161h-206v-322h206c101 0 171 51 171 161z" />
    <glyph glyph-name="Sigma" unicode="&#x3a3;" horiz-adv-x="565" 
d="M508 0h-443v58l203 332l-188 290v49h428v-49h-368l190 -289l-209 -342h387v-49z" />
    <glyph glyph-name="Tau" unicode="&#x3a4;" horiz-adv-x="551" 
d="M521 680h-218v-680h-55v680h-217v49h490v-49z" />
    <glyph glyph-name="Upsilon" unicode="&#x3a5;" horiz-adv-x="505" 
d="M496 729l-215 -427v-302h-56v302l-215 427h60l185 -369l181 369h60z" />
    <glyph glyph-name="Phi" unicode="&#x3a6;" horiz-adv-x="732" 
d="M665 370c0 -80 -4 -166 -64 -226c-59 -59 -125 -78 -207 -78v-66h-55v66c-82 0 -148 19 -207 78c-60 60 -63 146 -63 226s3 165 63 225c59 59 125 79 207 79v55h55v-55c82 0 148 -20 207 -79c60 -60 64 -145 64 -225zM339 115v510c-65 0 -116 -14 -163 -61
c-50 -50 -52 -128 -52 -194s2 -145 52 -195c47 -47 98 -60 163 -60zM609 370c0 66 -2 144 -52 194c-47 47 -98 61 -163 61v-510c65 0 116 13 163 60c50 50 52 129 52 195z" />
    <glyph glyph-name="Chi" unicode="&#x3a7;" horiz-adv-x="544" 
d="M526 0h-64l-191 325l-190 -325h-63l224 374l-209 355h64l174 -306l175 306h64l-209 -355z" />
    <glyph glyph-name="Psi" unicode="&#x3a8;" horiz-adv-x="669" 
d="M614 385c0 -75 -22 -118 -67 -163c-48 -48 -112 -75 -182 -75h-3v-147h-55v147h-2c-70 0 -134 27 -182 75c-45 45 -68 88 -68 163v344h56v-344c0 -63 22 -98 56 -132c37 -37 86 -56 138 -56h2v532h55v-532h3c52 0 101 19 138 56c34 34 56 69 56 132v344h55v-344z" />
    <glyph glyph-name="uni03A9" unicode="&#x3a9;" horiz-adv-x="667" 
d="M584 365c0 -117 -1 -192 -30 -244c-14 -27 -33 -48 -64 -73h94v-48h-191v48c47 23 81 46 108 90c26 42 27 117 27 227c0 154 -4 213 -56 265c-38 38 -85 56 -138 56s-100 -18 -138 -56c-52 -52 -57 -111 -57 -265c0 -110 2 -185 28 -227c27 -44 60 -67 107 -90v-48h-190
v48h93c-31 25 -49 46 -63 73c-29 52 -30 127 -30 244c0 177 5 233 73 301c43 43 104 69 177 69s134 -26 177 -69c68 -68 73 -124 73 -301z" />
    <glyph glyph-name="Iotadieresis" unicode="&#x3aa;" horiz-adv-x="280" 
d="M168 0h-55v729h55v-729zM63 809h-59v79h59v-79zM276 809h-59v79h59v-79z" />
    <glyph glyph-name="Upsilondieresis" unicode="&#x3ab;" horiz-adv-x="505" 
d="M496 729l-215 -427v-302h-56v302l-215 427h60l185 -369l181 369h60zM176 809h-59v79h59v-79zM389 809h-59v79h59v-79z" />
    <glyph glyph-name="alphatonos" unicode="&#x3ac;" horiz-adv-x="552" 
d="M454 0h-53v63c-44 -57 -90 -69 -146 -69c-52 0 -95 17 -121 43c-50 50 -63 132 -63 210s13 160 63 210c26 26 69 43 121 43c56 0 102 -13 146 -70v64h53v-494zM401 247c0 102 -18 207 -139 207s-139 -105 -139 -207s18 -207 139 -207s139 105 139 207zM298 630l-59 -34
v133h59v-99z" />
    <glyph glyph-name="epsilontonos" unicode="&#x3ad;" horiz-adv-x="503" 
d="M447 70c-63 -63 -127 -76 -201 -76c-98 0 -176 48 -176 139c0 61 27 94 84 118c-49 19 -74 57 -74 110c0 86 81 139 172 139c84 0 146 -23 194 -76l-34 -34c-35 37 -89 65 -159 65c-53 0 -117 -36 -117 -95c0 -55 31 -86 98 -86h84v-45h-84c-76 0 -108 -37 -108 -96
c0 -60 58 -94 118 -94c41 0 109 2 168 62zM298 630l-59 -34v133h59v-99z" />
    <glyph glyph-name="etatonos" unicode="&#x3ae;" horiz-adv-x="572" 
d="M318 630l-59 -34v133h59v-99zM479 0h-52v306c0 95 -47 148 -136 148s-139 -54 -139 -148v-306h-53v494h53v-59c37 43 85 65 145 65c54 0 98 -15 131 -47c34 -33 51 -80 51 -138v-315z" />
    <glyph glyph-name="iotatonos" unicode="&#x3af;" horiz-adv-x="293" 
d="M261 0h-45c-81 0 -119 50 -119 128v366h53v-365c0 -56 17 -83 75 -83h36v-46zM157 630l-60 -34v133h60v-99z" />
    <glyph glyph-name="upsilondieresistonos" unicode="&#x3b0;" horiz-adv-x="523" 
d="M261 -6c-57 0 -105 15 -138 47c-34 33 -51 79 -51 137v316h52v-303c0 -101 48 -151 137 -151s138 51 138 151v303h53v-316c0 -58 -19 -104 -53 -137c-33 -32 -81 -47 -138 -47zM394 614h-59v79h59v-79zM288 630l-60 -34v133h60v-99zM181 614h-59v79h59v-79z" />
    <glyph glyph-name="alpha" unicode="&#x3b1;" horiz-adv-x="552" 
d="M454 0h-53v63c-44 -57 -90 -69 -146 -69c-52 0 -95 17 -121 43c-50 50 -63 132 -63 210s13 160 63 210c26 26 69 43 121 43c56 0 102 -13 146 -70v64h53v-494zM401 247c0 102 -18 207 -139 207s-139 -105 -139 -207s18 -207 139 -207s139 105 139 207z" />
    <glyph glyph-name="beta" unicode="&#x3b2;" horiz-adv-x="552" 
d="M503 202c0 -112 -80 -208 -181 -208c-62 0 -117 2 -171 71v-65h-52v551c0 101 74 178 185 178c105 0 181 -56 181 -168c0 -62 -20 -154 -107 -171c94 -11 145 -75 145 -188zM453 205c0 143 -90 163 -178 163h-62v39h65c127 0 138 90 138 143c0 99 -60 137 -130 137
c-93 0 -134 -68 -134 -156v-326c0 -82 42 -167 147 -167c110 0 154 88 154 167z" />
    <glyph glyph-name="gamma" unicode="&#x3b3;" horiz-adv-x="440" 
d="M426 494l-179 -494v-236h-52v236l-181 494h58l148 -433l149 433h57z" />
    <glyph glyph-name="delta" unicode="&#x3b4;" horiz-adv-x="538" 
d="M468 247c0 -71 -9 -147 -61 -199c-36 -36 -82 -54 -138 -54c-55 0 -101 18 -137 54c-52 52 -61 128 -61 199s9 146 61 198c36 36 82 55 137 55c26 0 55 -6 75 -18l-218 207v40h292v-40h-235l184 -176c94 -90 101 -179 101 -266zM416 247c0 57 -3 124 -44 165
c-28 28 -63 42 -103 42s-74 -14 -102 -42c-41 -41 -44 -108 -44 -165s3 -124 44 -165c28 -28 62 -42 102 -42s75 14 103 42c41 41 44 108 44 165z" />
    <glyph glyph-name="epsilon" unicode="&#x3b5;" horiz-adv-x="503" 
d="M447 70c-63 -63 -127 -76 -201 -76c-98 0 -176 48 -176 139c0 61 27 94 84 118c-49 19 -74 57 -74 110c0 86 81 139 172 139c84 0 146 -23 194 -76l-34 -34c-35 37 -89 65 -159 65c-53 0 -117 -36 -117 -95c0 -55 31 -86 98 -86h84v-45h-84c-76 0 -108 -37 -108 -96
c0 -60 58 -94 118 -94c41 0 109 2 168 62z" />
    <glyph glyph-name="zeta" unicode="&#x3b6;" horiz-adv-x="468" 
d="M423 -53c0 -66 -36 -104 -128 -104v40c47 0 83 15 83 58c0 42 -26 59 -86 59h-37c-135 0 -199 24 -199 116c0 61 24 95 86 146l225 185h-281v47h336v-50c-6 -7 -248 -219 -248 -219c-57 -50 -63 -64 -63 -113c0 -53 55 -66 144 -66h34c63 0 134 -18 134 -99z" />
    <glyph glyph-name="eta" unicode="&#x3b7;" horiz-adv-x="572" 
d="M479 0h-52v306c0 95 -47 148 -136 148s-139 -54 -139 -148v-306h-53v494h53v-59c37 43 85 65 145 65c54 0 98 -15 131 -47c34 -33 51 -80 51 -138v-315z" />
    <glyph glyph-name="theta" unicode="&#x3b8;" horiz-adv-x="546" 
d="M475 365c0 -117 1 -248 -67 -316c-36 -36 -77 -55 -135 -55s-98 19 -134 55c-68 68 -67 199 -67 316s-1 247 67 315c36 36 76 55 134 55s99 -19 135 -55c68 -68 67 -198 67 -315zM423 361h-299c0 -119 2 -229 52 -279c28 -28 56 -42 97 -42s70 14 98 42
c50 50 52 160 52 279zM423 408c0 80 -3 190 -52 239c-28 28 -57 42 -98 42s-69 -14 -97 -42c-49 -49 -52 -159 -52 -239h299z" />
    <glyph glyph-name="iota" unicode="&#x3b9;" horiz-adv-x="293" 
d="M261 0h-45c-81 0 -119 50 -119 128v366h53v-365c0 -56 17 -83 75 -83h36v-46z" />
    <glyph glyph-name="kappa" unicode="&#x3ba;" horiz-adv-x="539" 
d="M499 0h-65l-170 271l-112 -130v-141h-53v494h53v-279l244 279h67l-163 -185z" />
    <glyph glyph-name="lambda" unicode="&#x3bb;" horiz-adv-x="476" 
d="M484 0h-24c-33 0 -53 9 -78 32c-12 12 -24 30 -32 57l-111 342l-163 -431h-58l196 493l-45 132c-16 49 -27 58 -83 58h-9v46h15c68 0 100 -19 120 -80l180 -535c16 -49 36 -68 74 -68h18v-46z" />
    <glyph glyph-name="uni03BC" unicode="&#x3bc;" horiz-adv-x="569" 
d="M418 0v58c-37 -43 -86 -64 -146 -64c-54 0 -97 15 -130 46v-276h-52v730h52v-307c0 -95 48 -147 137 -147s139 53 139 147v307h52v-494h-52z" />
    <glyph glyph-name="nu" unicode="&#x3bd;" horiz-adv-x="440" 
d="M426 494l-180 -494h-51l-181 494h58l148 -433l149 433h57z" />
    <glyph glyph-name="xi" unicode="&#x3be;" horiz-adv-x="486" 
d="M466 629l-35 -34c-35 37 -81 63 -142 63c-83 0 -136 -49 -136 -134s51 -124 134 -124h124v-46h-122c-100 0 -166 -63 -166 -157c0 -90 68 -151 156 -151h44c65 0 134 -18 134 -99c0 -66 -36 -104 -128 -104v40c47 0 83 15 83 58c0 42 -26 59 -86 59h-47
c-118 0 -209 80 -209 197c0 102 60 162 127 182c-60 15 -101 78 -101 145c0 106 79 181 193 181c66 0 129 -23 177 -76z" />
    <glyph glyph-name="omicron" unicode="&#x3bf;" horiz-adv-x="538" 
d="M468 247c0 -71 -9 -147 -61 -199c-36 -36 -83 -54 -138 -54s-101 18 -137 54c-52 52 -61 128 -61 199s9 146 61 198c36 36 82 55 137 55s102 -19 138 -55c52 -52 61 -127 61 -198zM416 247c0 57 -3 124 -44 165c-28 28 -63 42 -103 42s-74 -14 -102 -42
c-41 -41 -44 -108 -44 -165s3 -124 44 -165c28 -28 62 -42 102 -42s75 14 103 42c41 41 44 108 44 165z" />
    <glyph glyph-name="pi" unicode="&#x3c0;" horiz-adv-x="572" 
d="M479 0h-52v447h-275v-447h-53v494h380v-494z" />
    <glyph glyph-name="rho" unicode="&#x3c1;" horiz-adv-x="525" 
d="M455 247c0 -78 -15 -160 -65 -210c-26 -26 -69 -43 -121 -43c-56 0 -102 12 -146 69v-299h-52v533c0 94 52 203 190 203c150 0 194 -115 194 -253zM401 247c0 102 -16 206 -137 206s-141 -106 -141 -201c0 -102 18 -212 139 -212s139 105 139 207z" />
    <glyph glyph-name="sigma1" unicode="&#x3c2;" horiz-adv-x="504" 
d="M451 424l-36 -33c-42 47 -75 63 -127 63c-56 0 -101 -22 -131 -66c-25 -36 -34 -74 -34 -141s9 -106 34 -142c35 -52 81 -59 139 -59c68 0 146 -13 146 -99c0 -66 -37 -104 -129 -104v40c47 0 83 15 83 58c0 58 -50 59 -100 59c-157 0 -225 95 -225 247
c0 157 82 253 217 253c68 0 111 -18 163 -76z" />
    <glyph glyph-name="sigma" unicode="&#x3c3;" horiz-adv-x="548" 
d="M483 447h-94c55 -43 81 -118 81 -200c0 -71 -9 -147 -61 -199c-36 -36 -82 -54 -138 -54c-55 0 -101 18 -137 54c-52 52 -61 128 -61 199s7 140 59 192c36 36 82 55 137 55h214v-47zM418 247c0 57 -5 118 -46 159c-28 28 -63 41 -103 41s-74 -13 -102 -41
c-41 -41 -42 -102 -42 -159s3 -124 44 -165c28 -28 62 -42 102 -42s75 14 103 42c41 41 44 108 44 165z" />
    <glyph glyph-name="tau" unicode="&#x3c4;" horiz-adv-x="357" 
d="M329 447h-124v-447h-52v447h-124v47h300v-47z" />
    <glyph glyph-name="upsilon" unicode="&#x3c5;" horiz-adv-x="523" 
d="M261 -6c-57 0 -105 15 -138 47c-34 33 -51 79 -51 137v316h52v-303c0 -101 48 -151 137 -151s138 51 138 151v303h53v-316c0 -58 -19 -104 -53 -137c-33 -32 -81 -47 -138 -47z" />
    <glyph glyph-name="phi" unicode="&#x3c6;" horiz-adv-x="661" 
d="M591 249c0 -163 -52 -255 -236 -255v-230h-52v230c-186 0 -232 110 -232 255c0 114 39 197 118 245l15 -43c-66 -48 -81 -132 -81 -205c0 -103 16 -202 180 -206v454h71c155 0 217 -80 217 -245zM539 252c0 112 -22 197 -184 197v-409c170 5 184 100 184 212z" />
    <glyph glyph-name="chi" unicode="&#x3c7;" horiz-adv-x="471" 
d="M430 0h-63l-130 208l-133 -208h-63l167 252l-160 242h64l125 -199l122 199h64l-160 -242z" />
    <glyph glyph-name="psi" unicode="&#x3c8;" horiz-adv-x="628" 
d="M553 247c0 -168 -58 -245 -217 -252v-231h-52v231c-159 7 -216 83 -216 252v247h51v-247c0 -142 34 -200 165 -206v453h52v-453c132 6 165 66 165 206v247h52v-247z" />
    <glyph glyph-name="omega" unicode="&#x3c9;" horiz-adv-x="720" 
d="M650 239c0 -65 -9 -132 -37 -178c-26 -42 -67 -67 -127 -67s-111 48 -126 104c-15 -56 -66 -104 -126 -104s-100 25 -126 67c-28 46 -37 113 -37 178c0 68 19 148 48 186c19 26 57 69 112 75v-46c-33 -6 -66 -40 -79 -66c-19 -36 -30 -67 -30 -149c0 -40 -1 -107 26 -150
c16 -28 47 -49 86 -49c95 0 100 122 100 187v131h53v-131c0 -65 4 -187 99 -187c39 0 70 21 86 49c27 43 27 110 27 150c0 82 -11 113 -30 149c-13 26 -47 60 -80 66v46c55 -6 94 -49 113 -75c29 -38 48 -118 48 -186z" />
    <glyph glyph-name="iotadieresis" unicode="&#x3ca;" horiz-adv-x="293" 
d="M261 0h-45c-81 0 -119 50 -119 128v366h53v-365c0 -56 17 -83 75 -83h36v-46zM49 614h-59v79h59v-79zM262 614h-59v79h59v-79z" />
    <glyph glyph-name="upsilondieresis" unicode="&#x3cb;" horiz-adv-x="523" 
d="M261 -6c-57 0 -105 15 -138 47c-34 33 -51 79 -51 137v316h52v-303c0 -101 48 -151 137 -151s138 51 138 151v303h53v-316c0 -58 -19 -104 -53 -137c-33 -32 -81 -47 -138 -47zM185 614h-59v79h59v-79zM398 614h-59v79h59v-79z" />
    <glyph glyph-name="omicrontonos" unicode="&#x3cc;" horiz-adv-x="538" 
d="M298 630l-59 -34v133h59v-99zM468 247c0 -71 -9 -147 -61 -199c-36 -36 -83 -54 -138 -54s-101 18 -137 54c-52 52 -61 128 -61 199s9 146 61 198c36 36 82 55 137 55s102 -19 138 -55c52 -52 61 -127 61 -198zM416 247c0 57 -3 124 -44 165c-28 28 -63 42 -103 42
s-74 -14 -102 -42c-41 -41 -44 -108 -44 -165s3 -124 44 -165c28 -28 62 -42 102 -42s75 14 103 42c41 41 44 108 44 165z" />
    <glyph glyph-name="upsilontonos" unicode="&#x3cd;" horiz-adv-x="523" 
d="M261 -6c-57 0 -105 15 -138 47c-34 33 -51 79 -51 137v316h52v-303c0 -101 48 -151 137 -151s138 51 138 151v303h53v-316c0 -58 -19 -104 -53 -137c-33 -32 -81 -47 -138 -47zM288 630l-60 -34v133h60v-99z" />
    <glyph glyph-name="omegatonos" unicode="&#x3ce;" horiz-adv-x="720" 
d="M650 239c0 -65 -9 -132 -37 -178c-26 -42 -67 -67 -127 -67s-111 48 -126 104c-15 -56 -66 -104 -126 -104s-100 25 -126 67c-28 46 -37 113 -37 178c0 68 19 148 48 186c19 26 57 69 112 75v-46c-33 -6 -66 -40 -79 -66c-19 -36 -30 -67 -30 -149c0 -40 -1 -107 26 -150
c16 -28 47 -49 86 -49c95 0 100 122 100 187v131h53v-131c0 -65 4 -187 99 -187c39 0 70 21 86 49c27 43 27 110 27 150c0 82 -11 113 -30 149c-13 26 -47 60 -80 66v46c55 -6 94 -49 113 -75c29 -38 48 -118 48 -186zM385 630l-59 -34v133h59v-99z" />
    <glyph glyph-name="uni03D0" unicode="&#x3d0;" horiz-adv-x="552" 
d="M503 202c0 -112 -80 -208 -181 -208c-62 0 -116 0 -170 69v-299h-53v787c0 101 74 178 185 178c105 0 181 -56 181 -168c0 -62 -20 -154 -107 -171c94 -11 145 -75 145 -188zM453 205c0 143 -90 163 -178 163h-62v39h65c127 0 138 90 138 143c0 99 -60 137 -130 137
c-93 0 -134 -68 -134 -156v-326c0 -82 42 -167 147 -167c110 0 154 88 154 167z" />
    <glyph glyph-name="uni0400" unicode="&#x400;" horiz-adv-x="612" 
d="M555 0h-442v729h442v-49h-387v-288h330v-49h-330v-294h387v-49zM370 799h-60l-108 150h68z" />
    <glyph glyph-name="afii10023" unicode="&#x401;" horiz-adv-x="612" 
d="M555 0h-442v729h442v-49h-387v-288h330v-49h-330v-294h387v-49zM245 809h-60v79h60v-79zM458 809h-60v79h60v-79z" />
    <glyph glyph-name="afii10051" unicode="&#x402;" horiz-adv-x="760" 
d="M662 221c0 -141 -88 -221 -221 -221h-41v49h35c109 0 171 55 171 171s-62 171 -171 171h-168v-391h-55v680h-186v49h490v-49h-249v-240h174c133 0 221 -79 221 -219z" />
    <glyph glyph-name="afii10052" unicode="&#x403;" horiz-adv-x="577" 
d="M553 680h-377v-680h-55v729h432v-49zM434 949l-108 -150h-60l100 150h68z" />
    <glyph glyph-name="afii10053" unicode="&#x404;" horiz-adv-x="659" 
d="M582 207c-25 -131 -119 -213 -248 -213c-73 0 -134 26 -177 69c-68 68 -73 125 -73 302s5 233 73 301c43 43 104 69 177 69c131 0 223 -82 248 -213h-57c-22 101 -93 164 -191 164c-53 0 -100 -18 -138 -56c-49 -49 -57 -105 -57 -238h293v-49h-293
c0 -137 7 -195 57 -244c38 -38 85 -56 138 -56c98 0 171 63 193 164h55z" />
    <glyph glyph-name="afii10054" unicode="&#x405;" horiz-adv-x="601" 
d="M541 196c0 -123 -93 -202 -246 -202c-108 0 -176 29 -243 96l39 39c66 -66 120 -86 207 -86c116 0 187 56 187 151c0 44 -12 78 -40 102c-26 23 -47 30 -105 39l-85 13c-55 8 -98 24 -130 52c-38 32 -57 78 -57 136c0 122 86 199 226 199c90 0 148 -25 210 -79l-36 -35
c-43 41 -91 67 -177 67c-106 0 -169 -57 -169 -150c0 -42 11 -75 37 -97s63 -36 104 -42l85 -13c68 -10 96 -21 130 -50c39 -34 63 -81 63 -140z" />
    <glyph glyph-name="afii10055" unicode="&#x406;" horiz-adv-x="280" 
d="M168 0h-55v729h55v-729z" />
    <glyph glyph-name="afii10056" unicode="&#x407;" horiz-adv-x="280" 
d="M168 0h-55v729h55v-729zM63 809h-59v79h59v-79zM276 809h-59v79h59v-79z" />
    <glyph glyph-name="afii10057" unicode="&#x408;" horiz-adv-x="509" 
d="M408 215c0 -133 -86 -221 -218 -221c-66 0 -117 20 -159 62l38 38c28 -28 56 -51 121 -51c104 0 162 66 162 183v503h56v-514z" />
    <glyph glyph-name="afii10058" unicode="&#x409;" horiz-adv-x="1061" 
d="M244 680v-263c0 -308 -74 -417 -209 -417h-30v49h19c97 0 165 66 165 396v284h395v-309h214c133 0 220 -83 220 -210s-87 -210 -220 -210h-270v680h-284zM963 210c0 102 -62 161 -171 161h-208v-322h208c109 0 171 59 171 161z" />
    <glyph glyph-name="afii10059" unicode="&#x40a;" horiz-adv-x="1081" 
d="M1037 210c0 -127 -87 -210 -220 -210h-269v371h-380v-371h-55v729h55v-309h380v309h55v-309h214c133 0 220 -83 220 -210zM982 210c0 102 -62 161 -171 161h-208v-322h208c109 0 171 59 171 161z" />
    <glyph glyph-name="afii10060" unicode="&#x40b;" horiz-adv-x="760" 
d="M662 0h-56v230c0 102 -62 161 -171 161h-168v-391h-55v680h-186v49h490v-49h-249v-240h174c133 0 221 -83 221 -210v-230z" />
    <glyph glyph-name="afii10061" unicode="&#x40c;" horiz-adv-x="614" 
d="M614 0h-77l-363 380l339 349h74l-346 -348zM118 0v729h55v-729h-55zM439 949l-108 -150h-60l100 150h68z" />
    <glyph glyph-name="uni040D" unicode="&#x40d;" horiz-adv-x="737" 
d="M625 0h-56v639l-401 -639h-55v729h55v-637l401 637h56v-729zM401 799h-59l-109 150h69z" />
    <glyph glyph-name="afii10062" unicode="&#x40e;" horiz-adv-x="546" 
d="M417 901c-7 -85 -58 -123 -144 -123s-136 38 -143 123h52c5 -53 36 -82 91 -82s87 29 92 82h52zM535 729l-266 -618c-29 -68 -68 -111 -137 -111h-55v49h43c54 0 78 25 103 82l32 76l-243 522h60l212 -460l191 460h60z" />
    <glyph glyph-name="afii10145" unicode="&#x40f;" horiz-adv-x="715" 
d="M603 0h-217v-184h-55v184h-218v729h55v-680h380v680h55v-729z" />
    <glyph glyph-name="afii10017" unicode="&#x410;" horiz-adv-x="616" 
d="M601 0h-59l-64 177h-340l-63 -177h-60l269 729h49zM461 226l-153 429l-152 -429h305z" />
    <glyph glyph-name="afii10018" unicode="&#x411;" horiz-adv-x="672" 
d="M602 210c0 -127 -87 -210 -220 -210h-269v729h444v-49h-389v-260h214c133 0 220 -83 220 -210zM547 210c0 102 -62 161 -171 161h-208v-322h208c109 0 171 59 171 161z" />
    <glyph glyph-name="afii10019" unicode="&#x412;" horiz-adv-x="687" 
d="M603 197c0 -123 -80 -197 -214 -197h-276v729h268c126 0 211 -75 211 -188c0 -53 -19 -98 -55 -132c-16 -14 -28 -22 -59 -34c36 -14 50 -23 68 -39c38 -35 57 -82 57 -139zM548 199c0 91 -64 149 -165 149h-215v-299h215c101 0 165 58 165 150zM537 539
c0 89 -61 141 -162 141h-207v-283h207c102 0 162 53 162 142z" />
    <glyph glyph-name="afii10020" unicode="&#x413;" horiz-adv-x="577" 
d="M553 680h-377v-680h-55v729h432v-49z" />
    <glyph glyph-name="afii10021" unicode="&#x414;" horiz-adv-x="696" 
d="M655 -184h-55v184h-524v-184h-56v233h67c69 109 94 232 94 414v266h387v-680h87v-233zM513 49v631h-280v-266c0 -132 -24 -263 -85 -365h365z" />
    <glyph glyph-name="afii10022" unicode="&#x415;" horiz-adv-x="612" 
d="M555 0h-442v729h442v-49h-387v-288h330v-49h-330v-294h387v-49z" />
    <glyph glyph-name="afii10024" unicode="&#x416;" horiz-adv-x="907" 
d="M549 381l358 -381h-78l-347 380l324 349h74zM0 0l358 381l-330 348h73l324 -349l-347 -380h-78zM481 0h-55v729h55v-729z" />
    <glyph glyph-name="afii10025" unicode="&#x417;" horiz-adv-x="634" 
d="M551 197c0 -125 -104 -203 -238 -203c-123 0 -217 81 -241 213h54c22 -100 95 -164 193 -164c99 0 177 59 177 156c0 101 -60 149 -162 149h-91v49h94c93 0 146 53 146 147c0 92 -64 142 -162 142s-170 -64 -192 -164h-56c24 132 118 213 248 213c126 0 218 -73 218 -190
c0 -82 -35 -137 -110 -169c81 -28 122 -86 122 -179z" />
    <glyph glyph-name="afii10026" unicode="&#x418;" horiz-adv-x="737" 
d="M625 0h-56v639l-401 -639h-55v729h55v-637l401 637h56v-729z" />
    <glyph glyph-name="afii10027" unicode="&#x419;" horiz-adv-x="737" 
d="M512 901c-7 -85 -57 -123 -143 -123s-137 38 -144 123h53c5 -53 36 -82 91 -82s86 29 91 82h52zM625 0h-56v639l-401 -639h-55v729h55v-637l401 637h56v-729z" />
    <glyph glyph-name="afii10028" unicode="&#x41a;" horiz-adv-x="614" 
d="M614 0h-77l-363 380l339 349h74l-346 -348zM118 0v729h55v-729h-55z" />
    <glyph glyph-name="afii10029" unicode="&#x41b;" horiz-adv-x="696" 
d="M584 0h-56v680h-284v-263c0 -308 -74 -417 -209 -417h-30v49h19c97 0 165 66 165 396v284h395v-729z" />
    <glyph glyph-name="afii10030" unicode="&#x41c;" horiz-adv-x="837" 
d="M725 0h-55v601l-221 -499h-56l-225 499v-601h-55v729h55l254 -562l248 562h55v-729z" />
    <glyph glyph-name="afii10031" unicode="&#x41d;" horiz-adv-x="715" 
d="M603 0h-55v343h-380v-343h-55v729h55v-337h380v337h55v-729z" />
    <glyph glyph-name="afii10032" unicode="&#x41e;" horiz-adv-x="667" 
d="M528 365c0 154 -4 213 -56 265c-38 38 -85 56 -138 56s-100 -18 -138 -56c-52 -52 -57 -111 -57 -265s5 -214 57 -266c38 -38 85 -56 138 -56s100 18 138 56c52 52 56 112 56 266zM584 365c0 -177 -5 -234 -73 -302c-43 -43 -104 -69 -177 -69s-134 26 -177 69
c-68 68 -73 125 -73 302s5 233 73 301c43 43 104 69 177 69s134 -26 177 -69c68 -68 73 -124 73 -301z" />
    <glyph glyph-name="afii10033" unicode="&#x41f;" horiz-adv-x="715" 
d="M603 0h-55v680h-380v-680h-55v729h490v-729z" />
    <glyph glyph-name="afii10034" unicode="&#x420;" horiz-adv-x="646" 
d="M600 519c0 -133 -94 -210 -220 -210h-212v-309h-55v729h267c126 0 220 -77 220 -210zM545 519c0 110 -70 161 -171 161h-206v-322h206c101 0 171 51 171 161z" />
    <glyph glyph-name="afii10035" unicode="&#x421;" horiz-adv-x="659" 
d="M582 207c-25 -131 -119 -213 -248 -213c-73 0 -134 26 -177 69c-68 68 -73 125 -73 302s5 233 73 301c43 43 104 69 177 69c131 0 223 -82 248 -213h-57c-22 101 -93 164 -191 164c-53 0 -100 -18 -138 -56c-52 -52 -57 -111 -57 -265s5 -214 57 -266
c38 -38 85 -56 138 -56c98 0 171 63 193 164h55z" />
    <glyph glyph-name="afii10036" unicode="&#x422;" horiz-adv-x="551" 
d="M521 680h-218v-680h-55v680h-217v49h490v-49z" />
    <glyph glyph-name="afii10037" unicode="&#x423;" horiz-adv-x="546" 
d="M535 729l-266 -618c-29 -68 -68 -111 -137 -111h-55v49h43c54 0 78 25 103 82l32 76l-243 522h60l212 -460l191 460h60z" />
    <glyph glyph-name="afii10038" unicode="&#x424;" horiz-adv-x="778" 
d="M721 389c0 -191 -89 -291 -304 -297v-95h-56v95c-215 6 -304 106 -304 297s89 291 304 297v67h56v-67c215 -6 304 -106 304 -297zM361 140v498c-193 -3 -248 -98 -248 -249s55 -246 248 -249zM666 389c0 151 -56 246 -249 249v-498c193 3 249 98 249 249z" />
    <glyph glyph-name="afii10039" unicode="&#x425;" horiz-adv-x="544" 
d="M526 0h-64l-191 325l-190 -325h-63l224 374l-209 355h64l174 -306l175 306h64l-209 -355z" />
    <glyph glyph-name="afii10040" unicode="&#x426;" horiz-adv-x="731" 
d="M690 -184h-55v184h-522v729h55v-680h380v680h55v-680h87v-233z" />
    <glyph glyph-name="afii10041" unicode="&#x427;" horiz-adv-x="659" 
d="M547 0h-55v307c-48 -10 -153 -31 -213 -31c-101 0 -197 42 -197 184v269h55v-262c0 -121 78 -141 151 -141c55 0 152 18 204 28v375h55v-729z" />
    <glyph glyph-name="afii10042" unicode="&#x428;" horiz-adv-x="1024" 
d="M911 0h-798v729h55v-680h316v680h56v-680h316v680h55v-729z" />
    <glyph glyph-name="afii10043" unicode="&#x429;" horiz-adv-x="1039" 
d="M998 -184h-55v184h-830v729h55v-680h316v680h56v-680h316v680h55v-680h87v-233z" />
    <glyph glyph-name="afii10044" unicode="&#x42a;" horiz-adv-x="745" 
d="M701 210c0 -127 -87 -210 -220 -210h-269v680h-181v49h236v-309h214c133 0 220 -83 220 -210zM646 210c0 102 -62 161 -171 161h-208v-322h208c109 0 171 59 171 161z" />
    <glyph glyph-name="afii10045" unicode="&#x42b;" horiz-adv-x="874" 
d="M602 210c0 -127 -87 -210 -220 -210h-269v729h55v-309h214c133 0 220 -83 220 -210zM547 210c0 102 -62 161 -171 161h-208v-322h208c109 0 171 59 171 161zM762 0h-55v729h55v-729z" />
    <glyph glyph-name="afii10046" unicode="&#x42c;" horiz-adv-x="646" 
d="M602 210c0 -127 -87 -210 -220 -210h-269v729h55v-309h214c133 0 220 -83 220 -210zM547 210c0 102 -62 161 -171 161h-208v-322h208c109 0 171 59 171 161z" />
    <glyph glyph-name="afii10047" unicode="&#x42d;" horiz-adv-x="659" 
d="M575 365c0 -177 -4 -234 -72 -302c-43 -43 -104 -69 -177 -69c-129 0 -223 82 -248 213h54c22 -101 96 -164 194 -164c53 0 100 18 138 56c50 49 56 107 56 244h-293v49h293c0 133 -7 189 -56 238c-38 38 -85 56 -138 56c-98 0 -170 -63 -192 -164h-56
c25 131 117 213 248 213c73 0 134 -26 177 -69c68 -68 72 -124 72 -301z" />
    <glyph glyph-name="afii10048" unicode="&#x42e;" horiz-adv-x="921" 
d="M838 365c0 -177 -5 -234 -73 -302c-43 -43 -104 -69 -177 -69s-134 26 -177 69c-65 65 -73 120 -73 280h-170v-343h-55v729h55v-337h170c0 155 8 209 73 274c43 43 104 69 177 69s134 -26 177 -69c68 -68 73 -124 73 -301zM782 365c0 154 -4 213 -56 265
c-38 38 -85 56 -138 56s-100 -18 -138 -56c-52 -52 -57 -111 -57 -265s5 -214 57 -266c38 -38 85 -56 138 -56s100 18 138 56c52 52 56 112 56 266z" />
    <glyph glyph-name="afii10049" unicode="&#x42f;" horiz-adv-x="672" 
d="M560 0h-55v309h-205l-170 -309h-64l174 314c-102 19 -167 96 -167 205c0 127 87 210 220 210h267v-729zM505 358v322h-206c-109 0 -171 -59 -171 -161s62 -161 171 -161h206z" />
    <glyph glyph-name="afii10065" unicode="&#x430;" horiz-adv-x="536" 
d="M441 0h-52v49c-42 -42 -80 -55 -150 -55c-73 0 -114 12 -146 45c-23 24 -36 59 -36 96c0 90 64 143 172 143h160v55c0 79 -39 121 -139 121c-70 0 -105 -18 -136 -63l-38 33c42 58 94 76 174 76c130 0 191 -59 191 -162v-338zM389 172v64h-153c-85 0 -126 -34 -126 -100
s40 -96 129 -96c45 0 87 4 122 38c18 17 28 48 28 94z" />
    <glyph glyph-name="afii10066" unicode="&#x431;" horiz-adv-x="540" 
d="M472 247c0 -98 -17 -157 -60 -200c-33 -34 -83 -53 -136 -53c-98 0 -169 58 -189 151c-9 40 -10 99 -10 152c0 242 1 305 59 363c69 69 218 67 300 74v-50c-67 -6 -202 0 -259 -57c-46 -46 -50 -115 -50 -207c23 46 93 79 153 79c52 0 96 -14 128 -45
c44 -42 64 -114 64 -207zM420 242c0 89 -10 137 -43 170c-25 26 -63 41 -101 41s-74 -15 -100 -41c-31 -32 -47 -81 -47 -168s15 -130 47 -163c26 -26 62 -41 100 -41s76 15 101 41c32 32 43 76 43 161z" />
    <glyph glyph-name="afii10067" unicode="&#x432;" horiz-adv-x="547" 
d="M474 134c0 -83 -54 -134 -145 -134h-230v494h225c85 0 142 -50 142 -127c0 -55 -32 -95 -84 -111c54 -17 92 -60 92 -122zM422 138c0 57 -39 95 -105 95h-165v-189h165c66 0 105 37 105 94zM414 364c0 55 -37 86 -102 86h-160v-174h160c65 0 102 34 102 88z" />
    <glyph glyph-name="afii10068" unicode="&#x433;" horiz-adv-x="420" 
d="M411 447h-255v-447h-53v494h308v-47z" />
    <glyph glyph-name="afii10069" unicode="&#x434;" horiz-adv-x="564" 
d="M527 -154h-52v154h-397v-154h-52v200h60c38 54 72 123 72 304v144h293v-448h76v-200zM398 46v401h-190v-110c0 -166 -30 -245 -63 -291h253z" />
    <glyph glyph-name="afii10070" unicode="&#x435;" horiz-adv-x="535" 
d="M466 236h-343c0 -126 56 -195 161 -195c58 0 94 17 136 59l39 -30c-50 -50 -96 -76 -178 -76c-136 0 -210 88 -210 253c0 160 73 253 197 253s198 -89 198 -241v-23zM414 278c-3 47 -5 63 -18 93c-22 52 -71 83 -128 83s-104 -32 -128 -83c-13 -30 -14 -46 -17 -93h291z
" />
    <glyph glyph-name="afii10072" unicode="&#x436;" horiz-adv-x="715" 
d="M385 255l230 239h68l-230 -235l254 -259h-72zM100 494l231 -239l-250 -255h-72l254 259l-230 235h67zM384 0h-52v494h52v-494z" />
    <glyph glyph-name="afii10073" unicode="&#x437;" horiz-adv-x="488" 
d="M415 136c0 -88 -88 -141 -187 -141c-79 0 -132 18 -190 71l36 35c47 -46 84 -60 151 -60c66 0 140 36 140 96c0 62 -47 94 -114 94h-71v44h73c59 0 102 33 102 91c0 56 -48 88 -122 88c-53 0 -99 -13 -142 -43l-31 36c54 38 107 53 173 53c98 0 174 -48 174 -133
c0 -51 -29 -96 -83 -112c55 -15 91 -61 91 -119z" />
    <glyph glyph-name="afii10074" unicode="&#x438;" horiz-adv-x="586" 
d="M487 0h-52v418l-283 -418h-53v494h53v-418l283 418h52v-494z" />
    <glyph glyph-name="afii10075" unicode="&#x439;" horiz-adv-x="586" 
d="M437 714c-7 -85 -57 -123 -143 -123s-136 38 -143 123h52c5 -53 36 -82 91 -82s86 29 91 82h52zM487 0h-52v418l-283 -418h-53v494h53v-418l283 418h52v-494z" />
    <glyph glyph-name="afii10076" unicode="&#x43a;" horiz-adv-x="496" 
d="M158 255l238 239h68l-239 -235l262 -259h-71zM157 494v-494h-53v494h53z" />
    <glyph glyph-name="afii10077" unicode="&#x43b;" horiz-adv-x="545" 
d="M148 494h298v-494h-52v450h-194v-192c0 -205 -71 -258 -157 -258h-23v44h16c45 0 112 18 112 234v216z" />
    <glyph glyph-name="afii10078" unicode="&#x43c;" horiz-adv-x="663" 
d="M564 0h-52v387l-155 -317h-49l-156 317v-387h-53v494h53l182 -372l178 372h52v-494z" />
    <glyph glyph-name="afii10079" unicode="&#x43d;" horiz-adv-x="572" 
d="M473 0h-52v232h-269v-232h-53v494h53v-215h269v215h52v-494z" />
    <glyph glyph-name="afii10080" unicode="&#x43e;" horiz-adv-x="538" 
d="M468 247c0 -71 -9 -147 -61 -199c-36 -36 -83 -54 -138 -54s-101 18 -137 54c-52 52 -61 128 -61 199s9 146 61 198c36 36 82 55 137 55s102 -19 138 -55c52 -52 61 -127 61 -198zM416 247c0 57 -3 124 -44 165c-28 28 -63 42 -103 42s-74 -14 -102 -42
c-41 -41 -44 -108 -44 -165s3 -124 44 -165c28 -28 62 -42 102 -42s75 14 103 42c41 41 44 108 44 165z" />
    <glyph glyph-name="afii10081" unicode="&#x43f;" horiz-adv-x="566" 
d="M473 0h-52v447h-269v-447h-53v494h374v-494z" />
    <glyph glyph-name="afii10082" unicode="&#x440;" horiz-adv-x="552" 
d="M482 247c0 -78 -13 -160 -63 -210c-26 -26 -69 -43 -121 -43c-56 0 -102 12 -146 69v-299h-53v730h53v-64c44 57 90 70 146 70c52 0 95 -17 121 -43c50 -50 63 -132 63 -210zM430 247c0 102 -18 207 -139 207s-139 -105 -139 -207s18 -207 139 -207s139 105 139 207z" />
    <glyph glyph-name="afii10083" unicode="&#x441;" horiz-adv-x="504" 
d="M451 70c-52 -58 -95 -76 -163 -76c-135 0 -217 96 -217 253s82 253 217 253c68 0 111 -18 163 -76l-36 -33c-42 47 -75 63 -127 63c-56 0 -101 -22 -131 -66c-25 -36 -34 -74 -34 -141s9 -106 34 -142c30 -44 75 -65 131 -65c52 0 85 16 127 62z" />
    <glyph glyph-name="afii10084" unicode="&#x442;" horiz-adv-x="418" 
d="M409 447h-168v-447h-53v447h-178v47h399v-47z" />
    <glyph glyph-name="afii10085" unicode="&#x443;" horiz-adv-x="440" 
d="M426 494l-229 -628c-9 -27 -21 -46 -34 -57c-25 -24 -60 -32 -93 -32h-25v46h20c56 0 73 18 90 67l40 110l-181 494h58l148 -433l149 433h57z" />
    <glyph glyph-name="afii10086" unicode="&#x444;" horiz-adv-x="683" 
d="M622 247c0 -161 -93 -246 -254 -253v-230h-53v230c-161 7 -254 92 -254 253s93 246 254 253v229h53v-229c161 -7 254 -92 254 -253zM315 40v414c-135 -4 -201 -87 -201 -207s66 -203 201 -207zM569 247c0 120 -66 203 -201 207v-414c135 4 201 87 201 207z" />
    <glyph glyph-name="afii10087" unicode="&#x445;" horiz-adv-x="471" 
d="M430 0h-63l-130 208l-133 -208h-63l167 252l-160 242h64l125 -199l122 199h64l-160 -242z" />
    <glyph glyph-name="afii10088" unicode="&#x446;" horiz-adv-x="586" 
d="M550 -154h-52v154h-399v494h53v-450h269v450h52v-450h77v-198z" />
    <glyph glyph-name="afii10089" unicode="&#x447;" horiz-adv-x="542" 
d="M443 0h-52v200c-39 -8 -107 -22 -164 -22c-89 0 -146 42 -146 144v172h52v-167c0 -75 42 -100 104 -100c58 0 115 11 154 19v248h52v-494z" />
    <glyph glyph-name="afii10090" unicode="&#x448;" horiz-adv-x="812" 
d="M713 0h-614v494h53v-448h228v448h52v-448h228v448h53v-494z" />
    <glyph glyph-name="afii10091" unicode="&#x449;" horiz-adv-x="826" 
d="M790 -154h-53v154h-638v494h53v-448h228v448h52v-448h228v448h53v-448h77v-200z" />
    <glyph glyph-name="afii10092" unicode="&#x44a;" horiz-adv-x="556" 
d="M515 145c0 -88 -61 -145 -153 -145h-217v450h-135v44h188v-203h164c92 0 153 -58 153 -146zM463 145c0 65 -36 100 -109 100h-156v-199h156c73 0 109 33 109 99z" />
    <glyph glyph-name="afii10093" unicode="&#x44b;" horiz-adv-x="695" 
d="M459 145c0 -88 -61 -145 -153 -145h-207v494h53v-203h154c92 0 153 -58 153 -146zM407 145c0 65 -36 100 -109 100h-146v-199h146c73 0 109 33 109 99zM596 0h-52v494h52v-494z" />
    <glyph glyph-name="afii10094" unicode="&#x44c;" horiz-adv-x="509" 
d="M469 145c0 -88 -61 -145 -153 -145h-217v494h53v-203h164c92 0 153 -58 153 -146zM417 145c0 65 -36 100 -109 100h-156v-199h156c73 0 109 33 109 99z" />
    <glyph glyph-name="afii10095" unicode="&#x44d;" horiz-adv-x="504" 
d="M434 247c0 -158 -83 -253 -220 -253c-74 0 -111 24 -160 76l36 32c38 -41 69 -62 126 -62c120 0 166 91 166 196h-235v42h234c-5 99 -57 176 -166 176c-56 0 -88 -23 -125 -63l-36 33c50 52 86 76 160 76c137 0 220 -95 220 -253z" />
    <glyph glyph-name="afii10096" unicode="&#x44e;" horiz-adv-x="729" 
d="M658 247c0 -71 -9 -147 -61 -199c-36 -36 -81 -54 -137 -54c-55 0 -101 18 -137 54c-49 48 -61 116 -62 183h-109v-231h-53v494h53v-219h109c3 61 17 125 62 170c36 36 82 55 137 55c56 0 101 -19 137 -55c52 -52 61 -127 61 -198zM606 247c0 57 -3 124 -44 165
c-28 28 -62 42 -102 42s-75 -14 -103 -42c-41 -41 -44 -108 -44 -165s3 -124 44 -165c28 -28 63 -42 103 -42s74 14 102 42c41 41 44 108 44 165z" />
    <glyph glyph-name="afii10097" unicode="&#x44f;" horiz-adv-x="536" 
d="M437 0h-52v201h-138l-117 -201h-61l120 203c-76 11 -123 67 -123 145c0 88 60 146 152 146h219v-494zM385 245v205h-157c-71 0 -109 -37 -109 -103s38 -102 109 -102h157z" />
    <glyph glyph-name="uni0450" unicode="&#x450;" horiz-adv-x="535" 
d="M466 236h-343c0 -126 56 -195 161 -195c58 0 94 17 136 59l39 -30c-50 -50 -96 -76 -178 -76c-136 0 -210 88 -210 253c0 160 73 253 197 253s198 -89 198 -241v-23zM414 278c-3 47 -5 63 -18 93c-22 52 -71 83 -128 83s-104 -32 -128 -83c-13 -30 -14 -46 -17 -93h291z
M318 604h-59l-108 151h68z" />
    <glyph glyph-name="afii10071" unicode="&#x451;" horiz-adv-x="535" 
d="M466 236h-343c0 -126 56 -195 161 -195c58 0 94 17 136 59l39 -30c-50 -50 -96 -76 -178 -76c-136 0 -210 88 -210 253c0 160 73 253 197 253s198 -89 198 -241v-23zM414 278c-3 47 -5 63 -18 93c-22 52 -71 83 -128 83s-104 -32 -128 -83c-13 -30 -14 -46 -17 -93h291z
M194 614h-60v79h60v-79zM407 614h-60v79h60v-79z" />
    <glyph glyph-name="afii10099" unicode="&#x452;" horiz-adv-x="572" 
d="M479 -87c0 -81 -45 -149 -139 -149h-45v47h36c60 0 96 44 96 103v392c0 95 -43 148 -131 148s-144 -55 -144 -148v-306h-53v578h-62v38h62v113h53v-113h260v-38h-260v-143c43 45 88 65 151 65c112 0 176 -71 176 -185v-402z" />
    <glyph glyph-name="afii10100" unicode="&#x453;" horiz-adv-x="420" 
d="M411 447h-255v-447h-53v494h308v-47zM356 755l-108 -151h-60l100 151h68z" />
    <glyph glyph-name="afii10101" unicode="&#x454;" horiz-adv-x="504" 
d="M451 70c-49 -52 -86 -76 -160 -76c-137 0 -220 95 -220 253s83 253 220 253c74 0 110 -24 160 -76l-36 -33c-37 40 -69 63 -125 63c-109 0 -161 -77 -166 -176h233v-42h-234c0 -105 46 -196 166 -196c57 0 88 21 126 62z" />
    <glyph glyph-name="afii10102" unicode="&#x455;" horiz-adv-x="505" 
d="M449 140c0 -90 -76 -146 -198 -146c-86 0 -150 23 -200 71l36 35c38 -40 92 -60 162 -60c97 0 148 33 148 100c0 52 -28 77 -94 83l-82 7c-99 8 -148 51 -148 129c0 86 69 141 177 141c69 0 129 -20 173 -53l-35 -34c-38 28 -84 42 -138 42c-82 0 -126 -35 -126 -96
c0 -52 30 -76 100 -83l80 -7c82 -8 145 -33 145 -129z" />
    <glyph glyph-name="afii10103" unicode="&#x456;" horiz-adv-x="250" 
d="M152 0h-53v494h53v-494zM158 665h-65v64h65v-64z" />
    <glyph glyph-name="afii10104" unicode="&#x457;" horiz-adv-x="250" 
d="M152 0h-53v494h53v-494zM49 614h-59v79h59v-79zM262 614h-59v79h59v-79z" />
    <glyph glyph-name="afii10105" unicode="&#x458;" horiz-adv-x="250" 
d="M152 -108c0 -78 -38 -128 -119 -128h-45v47h36c58 0 75 27 75 83v600h53v-602zM158 665h-65v64h65v-64z" />
    <glyph glyph-name="afii10106" unicode="&#x459;" horiz-adv-x="816" 
d="M775 145c0 -88 -60 -145 -152 -145h-217v450h-206v-192c0 -205 -71 -258 -157 -258h-23v44h16c45 0 112 18 112 234v216h310v-203h165c92 0 152 -58 152 -146zM723 145c0 65 -38 102 -109 102h-156v-203h156c71 0 109 35 109 101z" />
    <glyph glyph-name="afii10107" unicode="&#x45a;" horiz-adv-x="831" 
d="M791 145c0 -88 -61 -145 -153 -145h-217v247h-269v-247h-53v494h53v-203h269v203h52v-203h165c92 0 153 -58 153 -146zM738 145c0 65 -37 102 -108 102h-157v-203h157c71 0 108 35 108 101z" />
    <glyph glyph-name="afii10108" unicode="&#x45b;" horiz-adv-x="572" 
d="M479 0h-52v306c0 95 -48 148 -136 148s-139 -55 -139 -148v-306h-53v578h-62v38h62v113h53v-113h260v-38h-260v-143c43 45 83 65 146 65c112 0 181 -71 181 -185v-315z" />
    <glyph glyph-name="afii10109" unicode="&#x45c;" horiz-adv-x="496" 
d="M158 255l238 239h68l-239 -235l262 -259h-71zM157 494v-494h-53v494h53zM383 755l-109 -151h-59l99 151h69z" />
    <glyph glyph-name="uni045D" unicode="&#x45d;" horiz-adv-x="586" 
d="M487 0h-52v418l-283 -418h-53v494h53v-418l283 418h52v-494zM325 604h-60l-108 151h68z" />
    <glyph glyph-name="afii10110" unicode="&#x45e;" horiz-adv-x="440" 
d="M426 494l-229 -628c-9 -27 -21 -46 -34 -57c-25 -24 -60 -32 -93 -32h-25v46h20c56 0 73 18 90 67l40 110l-181 494h58l148 -433l149 433h57zM364 714c-7 -85 -58 -123 -144 -123s-136 38 -143 123h52c5 -53 36 -82 91 -82s86 29 91 82h53z" />
    <glyph glyph-name="afii10193" unicode="&#x45f;" horiz-adv-x="572" 
d="M473 0h-161v-154h-52v154h-161v494h53v-450h269v450h52v-494z" />
    <glyph glyph-name="afii10146" unicode="&#x462;" horiz-adv-x="657" 
d="M613 210c0 -127 -87 -210 -220 -210h-269v572h-83v43h83v114h55v-114h182v-43h-182v-152h214c133 0 220 -83 220 -210zM558 210c0 102 -62 161 -171 161h-208v-322h208c109 0 171 59 171 161z" />
    <glyph glyph-name="afii10194" unicode="&#x463;" horiz-adv-x="509" 
d="M469 145c0 -88 -61 -145 -153 -145h-217v399h-66v37h66v58h53v-58h139v-37h-139v-108h164c92 0 153 -58 153 -146zM417 145c0 65 -38 102 -109 102h-156v-203h156c71 0 109 35 109 101z" />
    <glyph glyph-name="afii10147" unicode="&#x472;" horiz-adv-x="667" 
d="M584 365c0 -177 -5 -234 -73 -302c-43 -43 -104 -69 -177 -69s-134 26 -177 69c-68 68 -73 125 -73 302s5 233 73 301c43 43 104 69 177 69s134 -26 177 -69c68 -68 73 -124 73 -301zM528 343h-389c0 -137 7 -195 57 -244c38 -38 85 -56 138 -56s100 18 138 56
c49 49 55 107 56 244zM528 392c-1 133 -7 189 -56 238c-38 38 -85 56 -138 56s-100 -18 -138 -56c-49 -49 -57 -105 -57 -238h389z" />
    <glyph glyph-name="afii10195" unicode="&#x473;" horiz-adv-x="538" 
d="M468 247c0 -71 -9 -147 -61 -199c-36 -36 -82 -54 -138 -54c-55 0 -101 18 -137 54c-52 52 -61 128 -61 199s9 146 61 198c36 36 82 55 137 55c56 0 102 -19 138 -55c52 -52 61 -127 61 -198zM372 82c38 38 43 99 44 154h-293c0 -55 5 -116 44 -154
c28 -28 62 -42 102 -42s75 14 103 42zM167 412c-34 -34 -42 -85 -44 -134h292c-1 49 -9 100 -43 134c-28 28 -63 42 -103 42s-74 -14 -102 -42z" />
    <glyph glyph-name="afii10148" unicode="&#x474;" horiz-adv-x="546" 
d="M635 680h-38c-54 0 -85 -27 -103 -82l-197 -598h-47l-240 729h59l204 -632l169 521c22 66 69 111 138 111h55v-49z" />
    <glyph glyph-name="afii10196" unicode="&#x475;" horiz-adv-x="440" 
d="M489 450h-19c-50 0 -66 -15 -85 -68l-139 -382h-51l-181 494h58l148 -433l118 343c9 27 20 45 34 58c23 20 54 32 93 32h24v-44z" />
    <glyph glyph-name="afii10050" unicode="&#x490;" horiz-adv-x="577" 
d="M553 680h-377v-680h-55v729h377v174h55v-223z" />
    <glyph glyph-name="afii10098" unicode="&#x491;" horiz-adv-x="420" 
d="M411 450h-255v-450h-53v494h255v163h53v-207z" />
    <glyph glyph-name="uni0492" unicode="&#x492;" horiz-adv-x="571" 
d="M547 680h-377v-291h182v-43h-182v-346h-55v346h-83v43h83v340h432v-49z" />
    <glyph glyph-name="uni0493" unicode="&#x493;" horiz-adv-x="406" 
d="M396 450h-255v-161h140v-37h-140v-252h-52v252h-66v37h66v205h307v-44z" />
    <glyph glyph-name="uni0496" unicode="&#x496;" horiz-adv-x="907" 
d="M907 -184h-55v184h-23l-347 380l324 349h74l-331 -348l312 -332h46v-233zM0 0l358 381l-330 348h73l324 -349l-347 -380h-78zM481 0h-55v729h55v-729z" />
    <glyph glyph-name="uni0497" unicode="&#x497;" horiz-adv-x="715" 
d="M707 -154h-53v154h-19l-250 255l230 239h68l-230 -235l209 -213h45v-200zM100 494l231 -239l-250 -255h-72l254 259l-230 235h67zM384 0h-52v494h52v-494z" />
    <glyph glyph-name="uni049A" unicode="&#x49a;" horiz-adv-x="614" 
d="M614 -184h-55v184h-22l-363 380l339 349h74l-346 -348l325 -332h48v-233zM118 0v729h55v-729h-55z" />
    <glyph glyph-name="uni049B" unicode="&#x49b;" horiz-adv-x="496" 
d="M487 -154h-52v154h-19l-258 255l238 239h68l-239 -235l215 -213h47v-200zM157 494v-494h-53v494h53z" />
    <glyph glyph-name="uni049C" unicode="&#x49c;" horiz-adv-x="657" 
d="M216 188v165h-43v-353h-55v729h55v-327h43v165h54v-165h28l258 327h74l-285 -348l312 -381h-77l-279 353h-31v-165h-54z" />
    <glyph glyph-name="uni049D" unicode="&#x49d;" horiz-adv-x="542" 
d="M198 96v137h-41v-233h-53v494h53v-216h41v137h51v-137h25l168 216h68l-187 -235l211 -259h-72l-189 233h-24v-137h-51z" />
    <glyph glyph-name="uni04A2" unicode="&#x4a2;" horiz-adv-x="715" 
d="M631 -184h-56v184h-27v343h-380v-343h-55v729h55v-337h380v337h55v-680h28v-233z" />
    <glyph glyph-name="uni04A3" unicode="&#x4a3;" horiz-adv-x="572" 
d="M499 -154h-53v154h-25v232h-269v-232h-53v494h53v-215h269v215h52v-448h26v-200z" />
    <glyph glyph-name="uni04AE" unicode="&#x4ae;" horiz-adv-x="505" 
d="M496 729l-215 -427v-302h-56v302l-215 427h60l185 -369l181 369h60z" />
    <glyph glyph-name="uni04AF" unicode="&#x4af;" horiz-adv-x="440" 
d="M426 494l-179 -494v-236h-52v236l-181 494h58l148 -433l149 433h57z" />
    <glyph glyph-name="uni04B0" unicode="&#x4b0;" horiz-adv-x="505" 
d="M496 729l-215 -427h132v-43h-132v-259h-56v259h-132v43h132l-215 427h60l185 -369l181 369h60z" />
    <glyph glyph-name="uni04B1" unicode="&#x4b1;" horiz-adv-x="440" 
d="M426 494l-179 -494h97v-37h-97v-199h-52v199h-98v37h98l-181 494h58l148 -433l149 433h57z" />
    <glyph glyph-name="uni04B2" unicode="&#x4b2;" horiz-adv-x="544" 
d="M526 -184h-55v184h-9l-191 325l-190 -325h-63l224 374l-209 355h64l174 -306l175 306h64l-209 -355l196 -325h29v-233z" />
    <glyph glyph-name="uni04B3" unicode="&#x4b3;" horiz-adv-x="471" 
d="M430 -154h-52v154h-11l-130 208l-133 -208h-63l167 252l-160 242h64l125 -199l122 199h64l-160 -242l136 -206h31v-200z" />
    <glyph glyph-name="uni04B6" unicode="&#x4b6;" horiz-adv-x="659" 
d="M574 -184h-55v184h-27v307c-48 -10 -153 -31 -213 -31c-101 0 -197 42 -197 184v269h55v-262c0 -121 78 -141 151 -141c55 0 152 18 204 28v375h55v-680h27v-233z" />
    <glyph glyph-name="uni04B7" unicode="&#x4b7;" horiz-adv-x="542" 
d="M469 -154h-52v154h-26v200c-39 -8 -107 -22 -164 -22c-89 0 -146 42 -146 144v172h52v-167c0 -75 42 -100 104 -100c58 0 115 11 154 19v248h52v-448h26v-200z" />
    <glyph glyph-name="uni04B8" unicode="&#x4b8;" horiz-adv-x="659" 
d="M288 110v166h-9c-101 0 -197 42 -197 184v269h55v-262c0 -121 78 -141 151 -141v166h54v-163c51 6 112 18 150 25v375h55v-729h-55v307c-34 -7 -96 -19 -150 -26v-171h-54z" />
    <glyph glyph-name="uni04B9" unicode="&#x4b9;" horiz-adv-x="542" 
d="M237 43v135h-10c-89 0 -146 42 -146 144v172h52v-167c0 -75 42 -100 104 -100v135h51v-133c39 3 75 11 103 17v248h52v-494h-52v200c-26 -6 -64 -14 -103 -18v-139h-51z" />
    <glyph glyph-name="uni04BA" unicode="&#x4ba;" horiz-adv-x="659" 
d="M578 0h-56v262c0 121 -77 141 -150 141c-55 0 -152 -18 -204 -28v-375h-55v729h55v-307c48 10 153 31 213 31c101 0 197 -42 197 -184v-269z" />
    <glyph glyph-name="uni04BB" unicode="&#x4bb;" horiz-adv-x="542" 
d="M462 0h-52v167c0 75 -42 99 -104 99c-58 0 -115 -10 -154 -18v-248h-53v494h53v-200c39 8 106 21 163 21c89 0 147 -41 147 -143v-172z" />
    <glyph glyph-name="uni04C0" unicode="&#x4c0;" horiz-adv-x="280" 
d="M168 0h-55v729h55v-729z" />
    <glyph glyph-name="uni04CF" unicode="&#x4cf;" horiz-adv-x="246" 
d="M150 0h-53v729h53v-729z" />
    <glyph glyph-name="uni04D8" unicode="&#x4d8;" horiz-adv-x="666" 
d="M583 365c0 -177 -5 -234 -73 -302c-43 -43 -104 -69 -177 -69c-74 0 -145 32 -192 84c-43 48 -59 99 -59 176v119h445c0 147 -5 206 -56 257c-38 38 -85 56 -138 56c-98 0 -172 -63 -194 -164h-55c22 128 122 213 249 213c73 0 134 -26 177 -69c68 -68 73 -124 73 -301z
M527 324h-390v-66c0 -62 12 -104 44 -144c38 -46 95 -71 152 -71c53 0 100 18 138 56c47 47 55 101 56 225z" />
    <glyph glyph-name="afii10846" unicode="&#x4d9;" horiz-adv-x="535" 
d="M413 258c0 126 -56 195 -161 195c-58 0 -94 -18 -136 -60l-39 31c50 50 96 76 178 76c136 0 210 -88 210 -253c0 -160 -74 -253 -198 -253s-197 88 -197 240v24h343zM413 216h-291c3 -47 4 -63 17 -93c22 -52 71 -83 128 -83s106 31 128 83c12 31 15 48 18 93z" />
    <glyph glyph-name="uni04E2" unicode="&#x4e2;" horiz-adv-x="737" 
d="M625 0h-56v639l-401 -639h-55v729h55v-637l401 637h56v-729zM520 819h-303v47h303v-47z" />
    <glyph glyph-name="uni04E3" unicode="&#x4e3;" horiz-adv-x="586" 
d="M487 0h-52v418l-283 -418h-53v494h53v-418l283 418h52v-494zM444 625h-303v47h303v-47z" />
    <glyph glyph-name="uni04E8" unicode="&#x4e8;" horiz-adv-x="667" 
d="M584 365c0 -177 -5 -234 -73 -302c-43 -43 -104 -69 -177 -69s-134 26 -177 69c-68 68 -73 125 -73 302s5 233 73 301c43 43 104 69 177 69s134 -26 177 -69c68 -68 73 -124 73 -301zM528 343h-389c0 -137 7 -195 57 -244c38 -38 85 -56 138 -56s100 18 138 56
c49 49 55 107 56 244zM528 392c-1 133 -7 189 -56 238c-38 38 -85 56 -138 56s-100 -18 -138 -56c-49 -49 -57 -105 -57 -238h389z" />
    <glyph glyph-name="uni04E9" unicode="&#x4e9;" horiz-adv-x="538" 
d="M468 247c0 -71 -9 -147 -61 -199c-36 -36 -82 -54 -138 -54c-55 0 -101 18 -137 54c-52 52 -61 128 -61 199s9 146 61 198c36 36 82 55 137 55c56 0 102 -19 138 -55c52 -52 61 -127 61 -198zM372 82c38 38 43 99 44 154h-293c0 -55 5 -116 44 -154
c28 -28 62 -42 102 -42s75 14 103 42zM167 412c-34 -34 -42 -85 -44 -134h292c-1 49 -9 100 -43 134c-28 28 -63 42 -103 42s-74 -14 -102 -42z" />
    <glyph glyph-name="uni04EE" unicode="&#x4ee;" horiz-adv-x="546" 
d="M535 729l-266 -618c-29 -68 -68 -111 -137 -111h-55v49h43c54 0 78 25 103 82l32 76l-243 522h60l212 -460l191 460h60zM435 819h-303v47h303v-47z" />
    <glyph glyph-name="uni04EF" unicode="&#x4ef;" horiz-adv-x="440" 
d="M372 625h-303v47h303v-47zM426 494l-229 -628c-9 -27 -21 -46 -34 -57c-25 -24 -60 -32 -93 -32h-25v46h20c56 0 73 18 90 67l40 110l-181 494h58l148 -433l149 433h57z" />
    <glyph glyph-name="Wgrave" unicode="&#x1e80;" horiz-adv-x="862" 
d="M842 729l-183 -729h-56l-172 635l-172 -635h-56l-183 729h59l153 -634l170 634h58l170 -634l153 634h59zM458 799h-60l-108 150h68z" />
    <glyph glyph-name="wgrave" unicode="&#x1e81;" horiz-adv-x="729" 
d="M715 494l-158 -494h-53l-139 412l-140 -412h-53l-158 494h58l126 -433l141 433h51l141 -433l126 433h58zM396 604h-59l-109 151h69z" />
    <glyph glyph-name="Wacute" unicode="&#x1e82;" horiz-adv-x="862" 
d="M842 729l-183 -729h-56l-172 635l-172 -635h-56l-183 729h59l153 -634l170 634h58l170 -634l153 634h59zM571 949l-108 -150h-60l100 150h68z" />
    <glyph glyph-name="wacute" unicode="&#x1e83;" horiz-adv-x="729" 
d="M715 494l-158 -494h-53l-139 412l-140 -412h-53l-158 494h58l126 -433l141 433h51l141 -433l126 433h58zM502 755l-109 -151h-59l99 151h69z" />
    <glyph glyph-name="Wdieresis" unicode="&#x1e84;" horiz-adv-x="862" 
d="M842 729l-183 -729h-56l-172 635l-172 -635h-56l-183 729h59l153 -634l170 634h58l170 -634l153 634h59zM353 809h-59v79h59v-79zM566 809h-59v79h59v-79z" />
    <glyph glyph-name="wdieresis" unicode="&#x1e85;" horiz-adv-x="729" 
d="M715 494l-158 -494h-53l-139 412l-140 -412h-53l-158 494h58l126 -433l141 433h51l141 -433l126 433h58zM288 614h-60v79h60v-79zM501 614h-60v79h60v-79z" />
    <glyph glyph-name="uni1E8A" unicode="&#x1e8a;" horiz-adv-x="544" 
d="M526 0h-64l-191 325l-190 -325h-63l224 374l-209 355h64l174 -306l175 306h64l-209 -355zM303 819h-63v65h63v-65z" />
    <glyph glyph-name="uni1E8B" unicode="&#x1e8b;" horiz-adv-x="471" 
d="M430 0h-63l-130 208l-133 -208h-63l167 252l-160 242h64l125 -199l122 199h64l-160 -242zM268 625h-63v64h63v-64z" />
    <glyph glyph-name="Ygrave" unicode="&#x1ef2;" horiz-adv-x="505" 
d="M496 729l-215 -427v-302h-56v302l-215 427h60l185 -369l181 369h60zM290 799h-60l-108 150h68z" />
    <glyph glyph-name="ygrave" unicode="&#x1ef3;" horiz-adv-x="440" 
d="M426 494l-229 -628c-9 -27 -21 -46 -34 -57c-25 -24 -60 -32 -93 -32h-25v46h20c56 0 73 18 90 67l40 110l-181 494h58l148 -433l149 433h57zM243 604h-60l-108 151h68z" />
    <glyph glyph-name="uni2007" unicode="&#x2007;" 
 />
    <glyph glyph-name="uni2008" unicode="&#x2008;" horiz-adv-x="270" 
 />
    <glyph glyph-name="uni200B" unicode="&#x200b;" horiz-adv-x="0" 
 />
    <glyph glyph-name="uniFEFF" unicode="&#xfeff;" horiz-adv-x="0" 
 />
    <glyph glyph-name="endash" unicode="&#x2013;" 
d="M472 246h-418v48h418v-48z" />
    <glyph glyph-name="emdash" unicode="&#x2014;" horiz-adv-x="893" 
d="M810 246h-726v48h726v-48z" />
    <glyph glyph-name="afii00208" unicode="&#x2015;" horiz-adv-x="893" 
d="M810 246h-726v48h726v-48z" />
    <glyph glyph-name="quoteleft" unicode="&#x2018;" horiz-adv-x="266" 
d="M169 657h-72v72l72 72v-144z" />
    <glyph glyph-name="quoteright" unicode="&#x2019;" horiz-adv-x="266" 
d="M169 657l-72 -71v143h72v-72z" />
    <glyph glyph-name="quotesinglbase" unicode="&#x201a;" horiz-adv-x="266" 
d="M169 0l-72 -72v144h72v-72z" />
    <glyph glyph-name="quotedblleft" unicode="&#x201c;" horiz-adv-x="425" 
d="M169 657h-72v72l72 72v-144zM329 657h-72v72l72 72v-144z" />
    <glyph glyph-name="quotedblright" unicode="&#x201d;" horiz-adv-x="425" 
d="M169 657l-72 -71v143h72v-72zM329 657l-72 -71v143h72v-72z" />
    <glyph glyph-name="quotedblbase" unicode="&#x201e;" horiz-adv-x="425" 
d="M169 0l-72 -72v144h72v-72zM329 0l-72 -72v144h72v-72z" />
    <glyph glyph-name="dagger" unicode="&#x2020;" horiz-adv-x="628" 
d="M547 468h-208v-468h-52v468h-205v46h205v215h52v-215h208v-46z" />
    <glyph glyph-name="daggerdbl" unicode="&#x2021;" horiz-adv-x="628" 
d="M547 -20h-208v-216h-52v216h-205v46h205v442h-205v46h205v215h52v-215h208v-46h-208v-442h208v-46z" />
    <glyph glyph-name="bullet" unicode="&#x2022;" horiz-adv-x="559" 
d="M446 342c0 -92 -74 -167 -166 -167s-167 75 -167 167s75 167 167 167s166 -75 166 -167z" />
    <glyph glyph-name="ellipsis" unicode="&#x2026;" horiz-adv-x="741" 
d="M97 0v76h76v-76h-76zM333 0v76h76v-76h-76zM568 0v76h76v-76h-76z" />
    <glyph glyph-name="perthousand" unicode="&#x2030;" horiz-adv-x="1196" 
d="M295 492v105c0 61 -24 100 -89 100s-90 -39 -90 -100v-105c0 -61 25 -100 90 -100s89 39 89 100zM340 489c0 -82 -54 -136 -134 -136s-135 54 -135 136v110c0 82 55 137 135 137s134 -55 134 -137v-110zM278 0h-47l340 729h46zM732 131v106c0 61 -24 100 -89 100
s-90 -39 -90 -100v-106c0 -61 25 -99 90 -99s89 38 89 99zM777 129c0 -82 -54 -136 -134 -136s-135 54 -135 136v110c0 82 55 137 135 137s134 -55 134 -137v-110zM1080 131v106c0 61 -24 100 -89 100s-90 -39 -90 -100v-106c0 -61 25 -99 90 -99s89 38 89 99zM1125 129
c0 -82 -54 -136 -134 -136s-135 54 -135 136v110c0 82 55 137 135 137s134 -55 134 -137v-110z" />
    <glyph glyph-name="guilsinglleft" unicode="&#x2039;" horiz-adv-x="327" 
d="M244 71l-201 200l201 201v-68l-133 -133l133 -133v-67z" />
    <glyph glyph-name="guilsinglright" unicode="&#x203a;" horiz-adv-x="327" 
d="M285 271l-201 -200v67l133 133l-133 133v68z" />
    <glyph glyph-name="fraction" unicode="&#x2044;" horiz-adv-x="181" 
d="M284 729l-340 -729h-46l340 729h46z" />
    <glyph glyph-name="uni2070" unicode="&#x2070;" horiz-adv-x="320" 
d="M281 409c0 -73 -51 -121 -120 -121s-120 48 -120 121v203c0 73 51 121 120 121s120 -48 120 -121v-203zM236 411v199c0 47 -27 83 -75 83s-75 -35 -75 -83v-199c0 -48 27 -82 75 -82s75 35 75 82z" />
    <glyph glyph-name="uni2074" unicode="&#x2074;" horiz-adv-x="320" 
d="M297 360h-53v-68h-45v68h-174v41l157 328h48l-156 -328h125v123h45v-123h53v-41z" />
    <glyph glyph-name="uni2075" unicode="&#x2075;" horiz-adv-x="320" 
d="M285 436c0 -44 -4 -84 -35 -115c-20 -20 -50 -33 -88 -33c-39 0 -69 11 -88 30c-20 20 -29 47 -31 77h45c5 -43 28 -66 74 -66c22 0 41 6 54 19c23 23 24 56 24 88c0 53 -13 106 -74 106c-38 0 -64 -16 -72 -43h-41v230h221v-41h-180v-136c16 18 43 29 78 29
c33 0 59 -10 76 -27c32 -33 37 -77 37 -118z" />
    <glyph glyph-name="uni2076" unicode="&#x2076;" horiz-adv-x="320" 
d="M283 418c0 -75 -46 -130 -121 -130s-122 51 -122 127c0 30 8 56 27 97l107 217h47l-97 -195c13 6 29 8 45 8c68 0 114 -52 114 -124zM238 416c0 48 -27 88 -77 88c-46 0 -76 -34 -76 -88c0 -53 30 -87 76 -87s77 34 77 87z" />
    <glyph glyph-name="uni2077" unicode="&#x2077;" horiz-adv-x="320" 
d="M290 689l-152 -397h-45l152 396h-155v-73h-44v114h244v-40z" />
    <glyph glyph-name="uni2078" unicode="&#x2078;" horiz-adv-x="320" 
d="M290 413c0 -75 -56 -125 -129 -125s-129 50 -129 125c0 51 28 86 65 106c-35 19 -57 51 -57 96c0 68 51 118 121 118s121 -50 121 -118c0 -45 -22 -77 -58 -96c37 -20 66 -55 66 -106zM245 413c0 48 -36 85 -84 85s-84 -37 -84 -85s36 -84 84 -84s84 36 84 84zM237 615
c0 45 -30 77 -76 77s-76 -32 -76 -77s31 -77 76 -77s76 32 76 77z" />
    <glyph glyph-name="uni2079" unicode="&#x2079;" horiz-adv-x="320" 
d="M282 606c0 -31 -9 -57 -28 -96l-108 -218h-47l99 195c-13 -5 -30 -8 -46 -8c-69 0 -114 52 -114 124c0 75 47 130 122 130s122 -51 122 -127zM237 605c0 53 -30 87 -77 87s-77 -34 -77 -87c0 -48 27 -88 77 -88c46 0 77 34 77 88z" />
    <glyph glyph-name="uni2080" unicode="&#x2080;" horiz-adv-x="320" 
d="M281 -37c0 -73 -51 -121 -120 -121s-120 48 -120 121v204c0 73 51 121 120 121s120 -48 120 -121v-204zM236 -35v200c0 47 -27 83 -75 83s-75 -35 -75 -83v-200c0 -48 27 -82 75 -82s75 35 75 82z" />
    <glyph glyph-name="uni2081" unicode="&#x2081;" horiz-adv-x="320" 
d="M201 -154h-45v387l-82 -72v52l82 71h45v-438z" />
    <glyph glyph-name="uni2082" unicode="&#x2082;" horiz-adv-x="320" 
d="M287 -154h-242v41l172 218c15 20 24 42 24 64c0 48 -27 78 -75 78c-40 0 -76 -21 -76 -78h-45c0 70 47 119 121 119c73 0 121 -45 121 -119c0 -36 -10 -57 -35 -89l-153 -193h188v-41z" />
    <glyph glyph-name="uni2083" unicode="&#x2083;" horiz-adv-x="320" 
d="M294 -33c0 -81 -56 -125 -128 -125c-70 0 -127 38 -130 117h46c3 -54 42 -76 84 -76c46 0 83 32 83 84c0 51 -28 83 -86 83h-8v40h8c51 0 78 30 78 78c0 51 -36 79 -76 79c-46 0 -74 -28 -78 -72h-45c5 71 56 113 123 113c73 0 121 -46 121 -119c0 -47 -20 -79 -59 -96
c44 -16 67 -52 67 -106z" />
    <glyph glyph-name="uni2084" unicode="&#x2084;" horiz-adv-x="320" 
d="M297 -85h-53v-69h-45v69h-174v41l157 328h48l-156 -328h125v123h45v-123h53v-41z" />
    <glyph glyph-name="uni2085" unicode="&#x2085;" horiz-adv-x="320" 
d="M285 -9c0 -44 -4 -85 -35 -116c-20 -20 -50 -33 -88 -33c-39 0 -69 12 -88 31c-20 20 -29 47 -31 77h45c5 -43 28 -67 74 -67c22 0 41 7 54 20c23 23 24 56 24 88c0 53 -13 105 -74 105c-38 0 -64 -16 -72 -43h-41v231h221v-41h-180v-137c16 18 43 29 78 29
c33 0 59 -9 76 -26c32 -33 37 -77 37 -118z" />
    <glyph glyph-name="uni2086" unicode="&#x2086;" horiz-adv-x="320" 
d="M283 -28c0 -75 -46 -130 -121 -130s-122 51 -122 127c0 30 8 57 27 98l107 217h47l-97 -196c13 6 29 8 45 8c68 0 114 -52 114 -124zM238 -30c0 48 -27 88 -77 88c-46 0 -76 -34 -76 -88c0 -53 30 -87 76 -87s77 34 77 87z" />
    <glyph glyph-name="uni2087" unicode="&#x2087;" horiz-adv-x="320" 
d="M290 244l-152 -398h-45l152 397h-155v-73h-44v114h244v-40z" />
    <glyph glyph-name="uni2088" unicode="&#x2088;" horiz-adv-x="320" 
d="M290 -33c0 -75 -56 -125 -129 -125s-129 50 -129 125c0 51 28 87 65 107c-35 19 -57 51 -57 96c0 68 51 118 121 118s121 -50 121 -118c0 -45 -22 -77 -58 -96c37 -20 66 -56 66 -107zM245 -33c0 48 -36 85 -84 85s-84 -37 -84 -85s36 -84 84 -84s84 36 84 84zM237 170
c0 45 -30 77 -76 77s-76 -32 -76 -77s31 -78 76 -78s76 33 76 78z" />
    <glyph glyph-name="uni2089" unicode="&#x2089;" horiz-adv-x="320" 
d="M282 161c0 -31 -9 -57 -28 -96l-108 -219h-47l99 196c-13 -5 -30 -8 -46 -8c-69 0 -114 52 -114 124c0 75 47 130 122 130s122 -51 122 -127zM237 160c0 53 -30 87 -77 87s-77 -34 -77 -87c0 -48 27 -88 77 -88c46 0 77 34 77 88z" />
    <glyph glyph-name="Euro" unicode="&#x20ac;" horiz-adv-x="692" 
d="M614 207c-25 -131 -118 -213 -247 -213c-73 0 -135 26 -178 69c-54 54 -68 101 -71 211h-67v39h66v109h-66v39h67c3 104 18 152 71 205c43 43 105 69 178 69c131 0 222 -82 247 -213h-56c-22 101 -93 164 -191 164c-53 0 -101 -18 -139 -56c-40 -40 -51 -84 -55 -169h250
v-39h-251v-109h251v-39h-250c3 -90 14 -135 55 -175c38 -38 86 -56 139 -56c98 0 171 63 193 164h54z" />
    <glyph glyph-name="uni20B4" unicode="&#x20b4;" horiz-adv-x="666" 
d="M615 422h-78c-6 -8 -14 -16 -22 -22c-32 -28 -75 -44 -130 -52l-85 -13c-40 -6 -64 -12 -82 -22h397v-39h-440c-14 -22 -20 -48 -20 -80c0 -95 71 -151 187 -151c87 0 141 20 207 86l39 -39c-67 -67 -135 -96 -243 -96c-153 0 -246 79 -246 202c0 29 6 54 16 78h-64v39
h88c7 8 15 16 23 23c34 29 62 40 130 50l85 13c27 4 52 12 74 23h-400v39h448c13 19 19 46 19 77c0 93 -63 150 -169 150c-86 0 -134 -26 -177 -67l-36 35c62 54 120 79 210 79c140 0 226 -77 226 -199c0 -29 -5 -53 -13 -75h56v-39z" />
    <glyph glyph-name="afii61352" unicode="&#x2116;" horiz-adv-x="962" 
d="M561 0h-52l-370 631v-631h-52v729h52l370 -629v629h52v-729zM854 555c0 39 -2 86 -26 110c-15 15 -36 24 -61 24s-46 -9 -61 -24c-24 -24 -26 -71 -26 -110s2 -86 26 -110c15 -15 36 -24 61 -24s46 9 61 24c24 24 26 71 26 110zM902 555c0 -52 -6 -106 -42 -142
c-24 -24 -54 -36 -93 -36s-69 12 -93 36c-36 36 -42 90 -42 142s6 106 42 142c24 24 54 36 93 36s69 -12 93 -36c36 -36 42 -90 42 -142zM900 292h-268v45h268v-45z" />
    <glyph glyph-name="trademark" unicode="&#x2122;" horiz-adv-x="828" 
d="M771 292h-45v336l-113 -224h-47l-112 224v-336h-45v437h45l136 -276l136 276h45v-437zM328 687h-125v-395h-45v395h-125v42h295v-42z" />
    <glyph glyph-name="Omega" unicode="&#x2126;" horiz-adv-x="667" 
d="M584 365c0 -117 -1 -192 -30 -244c-14 -27 -33 -48 -64 -73h94v-48h-191v48c47 23 81 46 108 90c26 42 27 117 27 227c0 154 -4 213 -56 265c-38 38 -85 56 -138 56s-100 -18 -138 -56c-52 -52 -57 -111 -57 -265c0 -110 2 -185 28 -227c27 -44 60 -67 107 -90v-48h-190
v48h93c-31 25 -49 46 -63 73c-29 52 -30 127 -30 244c0 177 5 233 73 301c43 43 104 69 177 69s134 -26 177 -69c68 -68 73 -124 73 -301z" />
    <glyph glyph-name="uni2150" unicode="&#x2150;" horiz-adv-x="822" 
d="M201 292h-45v387l-82 -73v52l82 71h45v-437zM604 729l-340 -729h-46l340 729h46zM792 397l-152 -397h-45l151 396h-154v-72h-44v113h244v-40z" />
    <glyph glyph-name="uni2151" unicode="&#x2151;" horiz-adv-x="822" 
d="M201 292h-45v387l-82 -73v52l82 71h45v-437zM604 729l-340 -729h-46l340 729h46zM783 314c0 -31 -8 -57 -27 -96l-108 -218h-47l98 196c-13 -5 -30 -9 -46 -9c-69 0 -113 52 -113 124c0 75 47 130 122 130s121 -51 121 -127zM738 313c0 53 -29 87 -76 87s-77 -34 -77 -87
c0 -48 27 -88 77 -88c46 0 76 34 76 88z" />
    <glyph glyph-name="uni2152" unicode="&#x2152;" horiz-adv-x="1142" 
d="M201 292h-45v387l-82 -73v52l82 71h45v-437zM604 729l-340 -729h-46l340 729h46zM702 0h-45v387l-82 -73v53l82 70h45v-437zM1103 117c0 -73 -51 -121 -120 -121s-120 48 -120 121v204c0 73 51 120 120 120s120 -47 120 -120v-204zM1058 119v199c0 47 -27 83 -75 83
s-75 -35 -75 -83v-199c0 -48 27 -82 75 -82s75 35 75 82z" />
    <glyph glyph-name="onethird" unicode="&#x2153;" horiz-adv-x="822" 
d="M201 292h-45v387l-82 -73v52l82 71h45v-437zM604 729l-340 -729h-46l340 729h46zM791 121c0 -81 -56 -125 -128 -125c-70 0 -128 38 -131 117h47c3 -54 42 -76 84 -76c46 0 82 32 82 84c0 51 -28 83 -86 83h-8v40h8c51 0 78 30 78 78c0 51 -35 78 -75 78
c-46 0 -74 -27 -78 -71h-45c5 71 56 112 123 112c73 0 120 -45 120 -118c0 -47 -19 -80 -58 -97c44 -16 67 -51 67 -105z" />
    <glyph glyph-name="twothirds" unicode="&#x2154;" horiz-adv-x="822" 
d="M287 292h-242v41l172 218c15 20 24 41 24 63c0 48 -27 78 -75 78c-40 0 -76 -21 -76 -78h-45c0 70 47 119 121 119c73 0 121 -45 121 -119c0 -36 -10 -57 -35 -89l-153 -192h188v-41zM604 729l-340 -729h-46l340 729h46zM791 121c0 -81 -56 -125 -128 -125
c-70 0 -128 38 -131 117h47c3 -54 42 -76 84 -76c46 0 82 32 82 84c0 51 -28 83 -86 83h-8v40h8c51 0 78 30 78 78c0 51 -35 78 -75 78c-46 0 -74 -27 -78 -71h-45c5 71 56 112 123 112c73 0 120 -45 120 -118c0 -47 -19 -80 -58 -97c44 -16 67 -51 67 -105z" />
    <glyph glyph-name="uni2155" unicode="&#x2155;" horiz-adv-x="822" 
d="M201 292h-45v387l-82 -73v52l82 71h45v-437zM604 729l-340 -729h-46l340 729h46zM786 144c0 -44 -3 -84 -34 -115c-20 -20 -50 -33 -88 -33c-39 0 -70 12 -89 31c-20 20 -28 46 -30 76h45c5 -43 28 -66 74 -66c22 0 41 6 54 19c23 23 23 56 23 88c0 53 -12 106 -73 106
c-38 0 -64 -16 -72 -43h-41v230h221v-41h-180v-136c16 18 43 29 78 29c33 0 59 -10 76 -27c32 -33 36 -77 36 -118z" />
    <glyph glyph-name="uni2156" unicode="&#x2156;" horiz-adv-x="822" 
d="M287 292h-242v41l172 218c15 20 24 41 24 63c0 48 -27 78 -75 78c-40 0 -76 -21 -76 -78h-45c0 70 47 119 121 119c73 0 121 -45 121 -119c0 -36 -10 -57 -35 -89l-153 -192h188v-41zM604 729l-340 -729h-46l340 729h46zM786 144c0 -44 -3 -84 -34 -115
c-20 -20 -50 -33 -88 -33c-39 0 -70 12 -89 31c-20 20 -28 46 -30 76h45c5 -43 28 -66 74 -66c22 0 41 6 54 19c23 23 23 56 23 88c0 53 -12 106 -73 106c-38 0 -64 -16 -72 -43h-41v230h221v-41h-180v-136c16 18 43 29 78 29c33 0 59 -10 76 -27c32 -33 36 -77 36 -118z
" />
    <glyph glyph-name="uni2157" unicode="&#x2157;" horiz-adv-x="822" 
d="M289 413c0 -81 -56 -125 -128 -125c-70 0 -127 37 -130 116h46c3 -54 42 -75 84 -75c46 0 83 32 83 84c0 51 -28 83 -86 83h-8v40h8c51 0 78 29 78 77c0 51 -36 79 -76 79c-46 0 -74 -27 -78 -71h-45c5 71 56 112 123 112c73 0 121 -46 121 -119c0 -47 -20 -79 -59 -96
c44 -16 67 -51 67 -105zM604 729l-340 -729h-46l340 729h46zM786 144c0 -44 -3 -84 -34 -115c-20 -20 -50 -33 -88 -33c-39 0 -70 12 -89 31c-20 20 -28 46 -30 76h45c5 -43 28 -66 74 -66c22 0 41 6 54 19c23 23 23 56 23 88c0 53 -12 106 -73 106c-38 0 -64 -16 -72 -43
h-41v230h221v-41h-180v-136c16 18 43 29 78 29c33 0 59 -10 76 -27c32 -33 36 -77 36 -118z" />
    <glyph glyph-name="uni2158" unicode="&#x2158;" horiz-adv-x="822" 
d="M297 360h-53v-68h-45v68h-174v41l157 328h48l-156 -328h125v123h45v-123h53v-41zM604 729l-340 -729h-46l340 729h46zM786 144c0 -44 -3 -84 -34 -115c-20 -20 -50 -33 -88 -33c-39 0 -70 12 -89 31c-20 20 -28 46 -30 76h45c5 -43 28 -66 74 -66c22 0 41 6 54 19
c23 23 23 56 23 88c0 53 -12 106 -73 106c-38 0 -64 -16 -72 -43h-41v230h221v-41h-180v-136c16 18 43 29 78 29c33 0 59 -10 76 -27c32 -33 36 -77 36 -118z" />
    <glyph glyph-name="uni2159" unicode="&#x2159;" horiz-adv-x="822" 
d="M201 292h-45v387l-82 -73v52l82 71h45v-437zM604 729l-340 -729h-46l340 729h46zM784 126c0 -75 -45 -130 -120 -130s-122 51 -122 127c0 30 7 56 26 97l108 217h47l-97 -195c13 6 29 8 45 8c68 0 113 -52 113 -124zM739 124c0 48 -26 88 -76 88c-46 0 -76 -34 -76 -88
c0 -53 30 -87 76 -87s76 34 76 87z" />
    <glyph glyph-name="uni215A" unicode="&#x215a;" horiz-adv-x="822" 
d="M285 436c0 -44 -4 -84 -35 -115c-20 -20 -50 -33 -88 -33c-39 0 -69 11 -88 30c-20 20 -29 47 -31 77h45c5 -43 28 -66 74 -66c22 0 41 6 54 19c23 23 24 56 24 88c0 53 -13 106 -74 106c-38 0 -64 -16 -72 -43h-41v230h221v-41h-180v-136c16 18 43 29 78 29
c33 0 59 -10 76 -27c32 -33 37 -77 37 -118zM604 729l-340 -729h-46l340 729h46zM784 126c0 -75 -45 -130 -120 -130s-122 51 -122 127c0 30 7 56 26 97l108 217h47l-97 -195c13 6 29 8 45 8c68 0 113 -52 113 -124zM739 124c0 48 -26 88 -76 88c-46 0 -76 -34 -76 -88
c0 -53 30 -87 76 -87s76 34 76 87z" />
    <glyph glyph-name="oneeighth" unicode="&#x215b;" horiz-adv-x="822" 
d="M201 292h-45v387l-82 -73v52l82 71h45v-437zM604 729l-340 -729h-46l340 729h46zM792 121c0 -75 -56 -125 -129 -125s-129 50 -129 125c0 51 28 86 65 106c-35 19 -57 52 -57 97c0 68 51 117 121 117s120 -49 120 -117c0 -45 -21 -78 -57 -97c37 -20 66 -55 66 -106z
M746 121c0 48 -35 85 -83 85s-84 -37 -84 -85s36 -84 84 -84s83 36 83 84zM738 324c0 45 -29 76 -75 76s-76 -31 -76 -76s31 -78 76 -78s75 33 75 78z" />
    <glyph glyph-name="threeeighths" unicode="&#x215c;" horiz-adv-x="822" 
d="M289 413c0 -81 -56 -125 -128 -125c-70 0 -127 37 -130 116h46c3 -54 42 -75 84 -75c46 0 83 32 83 84c0 51 -28 83 -86 83h-8v40h8c51 0 78 29 78 77c0 51 -36 79 -76 79c-46 0 -74 -27 -78 -71h-45c5 71 56 112 123 112c73 0 121 -46 121 -119c0 -47 -20 -79 -59 -96
c44 -16 67 -51 67 -105zM604 729l-340 -729h-46l340 729h46zM792 121c0 -75 -56 -125 -129 -125s-129 50 -129 125c0 51 28 86 65 106c-35 19 -57 52 -57 97c0 68 51 117 121 117s120 -49 120 -117c0 -45 -21 -78 -57 -97c37 -20 66 -55 66 -106zM746 121
c0 48 -35 85 -83 85s-84 -37 -84 -85s36 -84 84 -84s83 36 83 84zM738 324c0 45 -29 76 -75 76s-76 -31 -76 -76s31 -78 76 -78s75 33 75 78z" />
    <glyph glyph-name="fiveeighths" unicode="&#x215d;" horiz-adv-x="822" 
d="M285 436c0 -44 -4 -84 -35 -115c-20 -20 -50 -33 -88 -33c-39 0 -69 11 -88 30c-20 20 -29 47 -31 77h45c5 -43 28 -66 74 -66c22 0 41 6 54 19c23 23 24 56 24 88c0 53 -13 106 -74 106c-38 0 -64 -16 -72 -43h-41v230h221v-41h-180v-136c16 18 43 29 78 29
c33 0 59 -10 76 -27c32 -33 37 -77 37 -118zM604 729l-340 -729h-46l340 729h46zM792 121c0 -75 -56 -125 -129 -125s-129 50 -129 125c0 51 28 86 65 106c-35 19 -57 52 -57 97c0 68 51 117 121 117s120 -49 120 -117c0 -45 -21 -78 -57 -97c37 -20 66 -55 66 -106z
M746 121c0 48 -35 85 -83 85s-84 -37 -84 -85s36 -84 84 -84s83 36 83 84zM738 324c0 45 -29 76 -75 76s-76 -31 -76 -76s31 -78 76 -78s75 33 75 78z" />
    <glyph glyph-name="seveneighths" unicode="&#x215e;" horiz-adv-x="822" 
d="M290 689l-152 -397h-45l152 396h-155v-73h-44v114h244v-40zM604 729l-340 -729h-46l340 729h46zM792 121c0 -75 -56 -125 -129 -125s-129 50 -129 125c0 51 28 86 65 106c-35 19 -57 52 -57 97c0 68 51 117 121 117s120 -49 120 -117c0 -45 -21 -78 -57 -97
c37 -20 66 -55 66 -106zM746 121c0 48 -35 85 -83 85s-84 -37 -84 -85s36 -84 84 -84s83 36 83 84zM738 324c0 45 -29 76 -75 76s-76 -31 -76 -76s31 -78 76 -78s75 33 75 78z" />
    <glyph glyph-name="uni215F" unicode="&#x215f;" horiz-adv-x="501" 
d="M201 292h-45v387l-82 -73v52l82 71h45v-437zM604 729l-340 -729h-46l340 729h46z" />
    <glyph glyph-name="uni2189" unicode="&#x2189;" horiz-adv-x="822" 
d="M281 409c0 -73 -51 -121 -120 -121s-120 48 -120 121v203c0 73 51 121 120 121s120 -48 120 -121v-203zM236 411v199c0 47 -27 83 -75 83s-75 -35 -75 -83v-199c0 -48 27 -82 75 -82s75 35 75 82zM604 729l-340 -729h-46l340 729h46zM791 121c0 -81 -56 -125 -128 -125
c-70 0 -128 38 -131 117h47c3 -54 42 -76 84 -76c46 0 82 32 82 84c0 51 -28 83 -86 83h-8v40h8c51 0 78 30 78 78c0 51 -35 78 -75 78c-46 0 -74 -27 -78 -71h-45c5 71 56 112 123 112c73 0 120 -45 120 -118c0 -47 -19 -80 -58 -97c44 -16 67 -51 67 -105z" />
    <glyph glyph-name="arrowleft" unicode="&#x2190;" horiz-adv-x="1051" 
d="M994 244h-838l388 -388h-71l-414 413l414 414h71l-388 -388h838v-51z" />
    <glyph glyph-name="arrowup" unicode="&#x2191;" horiz-adv-x="1051" 
d="M940 253l-388 388v-839h-51v839l-388 -388v71l413 413l414 -413v-71z" />
    <glyph glyph-name="arrowright" unicode="&#x2192;" horiz-adv-x="1051" 
d="M994 269l-413 -413h-71l388 388h-839v51h839l-388 388h71z" />
    <glyph glyph-name="arrowdown" unicode="&#x2193;" horiz-adv-x="1051" 
d="M940 216l-414 -414l-413 414v71l388 -388v838h51v-838l388 388v-71z" />
    <glyph glyph-name="uni2196" unicode="&#x2196;" horiz-adv-x="1051" 
d="M874 -43l-35 -36l-594 593v-549l-49 49v586h584l50 -50h-548z" />
    <glyph glyph-name="uni2197" unicode="&#x2197;" horiz-adv-x="1051" 
d="M856 14l-49 -49v549l-594 -593l-36 36l593 593h-549l50 50h585v-586z" />
    <glyph glyph-name="uni2198" unicode="&#x2198;" horiz-adv-x="1051" 
d="M856 -79h-585l-50 49h549l-593 593l36 37l594 -593v549l49 -50v-585z" />
    <glyph glyph-name="uni2199" unicode="&#x2199;" horiz-adv-x="1051" 
d="M874 563l-592 -593h548l-50 -49h-584v585l49 50v-549l594 593z" />
    <glyph glyph-name="partialdiff" unicode="&#x2202;" horiz-adv-x="552" 
d="M454 247c0 -71 -10 -147 -60 -199c-34 -35 -79 -54 -132 -54s-98 19 -132 54c-50 52 -59 128 -59 199c0 78 9 152 59 202c28 28 72 51 125 51c55 0 103 -13 146 -70v88c0 97 -46 171 -149 171c-62 0 -89 -19 -128 -54l-34 34c52 46 88 66 162 66c129 0 202 -87 202 -214
v-274zM401 247c0 57 -3 124 -42 165c-26 27 -59 42 -97 42s-71 -15 -97 -42c-39 -41 -42 -108 -42 -165s3 -124 42 -165c26 -27 59 -42 97 -42s71 15 97 42c39 41 42 108 42 165z" />
    <glyph glyph-name="Delta" unicode="&#x2206;" horiz-adv-x="605" 
d="M595 0h-585l269 729h48zM523 49l-221 606l-220 -606h441z" />
    <glyph glyph-name="product" unicode="&#x220f;" horiz-adv-x="715" 
d="M603 -236h-55v965h-380v-965h-55v1014h490v-1014z" />
    <glyph glyph-name="summation" unicode="&#x2211;" horiz-adv-x="564" 
d="M507 -236h-442v50l211 472l-211 443v49h442v-49h-380l200 -419v-49l-200 -447h380v-50z" />
    <glyph glyph-name="minus" unicode="&#x2212;" 
d="M472 246h-418v48h418v-48z" />
    <glyph glyph-name="uni2219" unicode="&#x2219;" 
d="M430 342c0 -92 -75 -167 -167 -167s-167 75 -167 167s75 167 167 167s167 -75 167 -167z" />
    <glyph glyph-name="radical" unicode="&#x221a;" horiz-adv-x="563" 
d="M532 680h-90l-222 -680h-47l-163 494h58l129 -397l203 632h132v-49z" />
    <glyph glyph-name="infinity" unicode="&#x221e;" horiz-adv-x="811" 
d="M737 266c0 -87 -62 -151 -150 -151c-71 0 -118 31 -181 110c-63 -79 -112 -111 -181 -111c-88 0 -151 65 -151 152s63 154 151 154c67 0 118 -34 181 -113c63 79 109 113 181 113c88 0 150 -67 150 -154zM375 266c-53 65 -92 108 -147 108c-62 0 -105 -46 -105 -108
s43 -104 105 -104c55 0 94 39 147 104zM688 266c0 62 -43 106 -105 106c-55 0 -94 -41 -147 -106c53 -65 92 -104 147 -104c62 0 105 42 105 104z" />
    <glyph glyph-name="integral" unicode="&#x222b;" horiz-adv-x="336" 
d="M306 683h-36c-52 0 -75 -31 -75 -82v-707c0 -75 -41 -130 -119 -130h-45v47h36c52 0 75 30 75 81v708c0 75 41 129 119 129h45v-46z" />
    <glyph glyph-name="approxequal" unicode="&#x2248;" 
d="M472 366c-55 -55 -79 -64 -119 -64c-34 0 -67 17 -104 32c-29 12 -51 23 -78 23c-29 0 -44 -5 -85 -46l-32 32c55 55 79 64 119 64c34 0 68 -17 105 -32c29 -12 50 -24 77 -24c29 0 44 5 85 46zM472 202c-55 -55 -79 -64 -119 -64c-34 0 -67 17 -104 32
c-29 12 -51 24 -78 24c-29 0 -44 -6 -85 -47l-32 32c55 55 79 64 119 64c34 0 68 -17 105 -32c29 -12 50 -24 77 -24c29 0 44 5 85 46z" />
    <glyph glyph-name="notequal" unicode="&#x2260;" 
d="M472 167h-277l-107 -107l-34 34l73 73h-73v48h121l109 109h-230v48h278l106 106l34 -34l-73 -72h73v-48h-121l-108 -109h229v-48z" />
    <glyph glyph-name="lessequal" unicode="&#x2264;" 
d="M419 122l-311 165v49l311 165v-57l-260 -133l260 -133v-56zM419 -6l-311 165v56l311 -165v-56z" />
    <glyph glyph-name="greaterequal" unicode="&#x2265;" 
d="M419 287l-311 -165v56l260 133l-260 133v57l311 -165v-49zM419 159l-311 -165v56l311 165v-56z" />
    <glyph glyph-name="dotmath" unicode="&#x22c5;" 
d="M301 232h-76v76h76v-76z" />
    <glyph glyph-name="lozenge" unicode="&#x25ca;" horiz-adv-x="669" 
d="M596 365l-261 -372l-261 372l261 371zM538 365l-203 291l-203 -291l203 -294z" />
    <glyph glyph-name="fi" unicode="&#xfb01;" horiz-adv-x="560" 
d="M279 455h-112v-455h-52v455h-68v39h68v106c0 75 40 129 118 129h46v-46h-36c-52 0 -76 -30 -76 -82v-107h112v-39zM461 0h-52v494h52v-494zM467 665h-65v64h65v-64z" />
    <glyph glyph-name="fl" unicode="&#xfb02;" horiz-adv-x="600" 
d="M279 455h-112v-455h-52v455h-68v39h68v106c0 75 40 129 118 129h46v-46h-36c-52 0 -76 -30 -76 -82v-107h112v-39zM567 0h-45c-81 0 -119 50 -119 128v601h53v-600c0 -56 17 -83 75 -83h36v-46z" />
    <glyph glyph-name="i.latn_TRK" horiz-adv-x="250" 
d="M152 0h-53v494h53v-494zM158 665h-65v64h65v-64z" />
    <glyph glyph-name="Ldot.latn_CAT" horiz-adv-x="585" 
d="M555 0h-442v729h55v-680h387v-49zM470 335h-63v64h63v-64z" />
    <glyph glyph-name="ldot.latn_CAT" horiz-adv-x="300" 
d="M261 0h-45c-81 0 -119 50 -119 128v601h53v-600c0 -56 17 -83 75 -83h36v-46zM305 238h-63v64h63v-64z" />
    <glyph glyph-name="zero.numr" horiz-adv-x="320" 
d="M281 409c0 -73 -51 -121 -120 -121s-120 48 -120 121v203c0 73 51 121 120 121s120 -48 120 -121v-203zM236 411v199c0 47 -27 83 -75 83s-75 -35 -75 -83v-199c0 -48 27 -82 75 -82s75 35 75 82z" />
    <glyph glyph-name="one.numr" horiz-adv-x="320" 
d="M201 292h-45v387l-82 -73v52l82 71h45v-437z" />
    <glyph glyph-name="two.numr" horiz-adv-x="320" 
d="M287 292h-242v41l172 218c15 20 24 41 24 63c0 48 -27 78 -75 78c-40 0 -76 -21 -76 -78h-45c0 70 47 119 121 119c73 0 121 -45 121 -119c0 -36 -10 -57 -35 -89l-153 -192h188v-41z" />
    <glyph glyph-name="three.numr" horiz-adv-x="320" 
d="M289 413c0 -81 -56 -125 -128 -125c-70 0 -127 37 -130 116h46c3 -54 42 -75 84 -75c46 0 83 32 83 84c0 51 -28 83 -86 83h-8v40h8c51 0 78 29 78 77c0 51 -36 79 -76 79c-46 0 -74 -27 -78 -71h-45c5 71 56 112 123 112c73 0 121 -46 121 -119c0 -47 -20 -79 -59 -96
c44 -16 67 -51 67 -105z" />
    <glyph glyph-name="four.numr" horiz-adv-x="320" 
d="M297 360h-53v-68h-45v68h-174v41l157 328h48l-156 -328h125v123h45v-123h53v-41z" />
    <glyph glyph-name="five.numr" horiz-adv-x="320" 
d="M285 436c0 -44 -4 -84 -35 -115c-20 -20 -50 -33 -88 -33c-39 0 -69 11 -88 30c-20 20 -29 47 -31 77h45c5 -43 28 -66 74 -66c22 0 41 6 54 19c23 23 24 56 24 88c0 53 -13 106 -74 106c-38 0 -64 -16 -72 -43h-41v230h221v-41h-180v-136c16 18 43 29 78 29
c33 0 59 -10 76 -27c32 -33 37 -77 37 -118z" />
    <glyph glyph-name="six.numr" horiz-adv-x="320" 
d="M283 418c0 -75 -46 -130 -121 -130s-122 51 -122 127c0 30 8 56 27 97l107 217h47l-97 -195c13 6 29 8 45 8c68 0 114 -52 114 -124zM238 416c0 48 -27 88 -77 88c-46 0 -76 -34 -76 -88c0 -53 30 -87 76 -87s77 34 77 87z" />
    <glyph glyph-name="seven.numr" horiz-adv-x="320" 
d="M290 689l-152 -397h-45l152 396h-155v-73h-44v114h244v-40z" />
    <glyph glyph-name="eight.numr" horiz-adv-x="320" 
d="M290 413c0 -75 -56 -125 -129 -125s-129 50 -129 125c0 51 28 86 65 106c-35 19 -57 51 -57 96c0 68 51 118 121 118s121 -50 121 -118c0 -45 -22 -77 -58 -96c37 -20 66 -55 66 -106zM245 413c0 48 -36 85 -84 85s-84 -37 -84 -85s36 -84 84 -84s84 36 84 84zM237 615
c0 45 -30 77 -76 77s-76 -32 -76 -77s31 -77 76 -77s76 32 76 77z" />
    <glyph glyph-name="nine.numr" horiz-adv-x="320" 
d="M282 606c0 -31 -9 -57 -28 -96l-108 -218h-47l99 195c-13 -5 -30 -8 -46 -8c-69 0 -114 52 -114 124c0 75 47 130 122 130s122 -51 122 -127zM237 605c0 53 -30 87 -77 87s-77 -34 -77 -87c0 -48 27 -88 77 -88c46 0 77 34 77 88z" />
    <glyph glyph-name="zero.dnom" horiz-adv-x="320" 
d="M281 117c0 -73 -51 -121 -120 -121s-120 48 -120 121v204c0 73 51 120 120 120s120 -47 120 -120v-204zM236 119v199c0 47 -27 83 -75 83s-75 -35 -75 -83v-199c0 -48 27 -82 75 -82s75 35 75 82z" />
    <glyph glyph-name="one.dnom" horiz-adv-x="320" 
d="M201 0h-45v387l-82 -73v53l82 70h45v-437z" />
    <glyph glyph-name="two.dnom" horiz-adv-x="320" 
d="M287 0h-242v41l172 218c15 20 24 42 24 64c0 48 -27 77 -75 77c-40 0 -76 -20 -76 -77h-45c0 70 47 118 121 118c73 0 121 -44 121 -118c0 -36 -10 -58 -35 -90l-153 -192h188v-41z" />
    <glyph glyph-name="three.dnom" horiz-adv-x="320" 
d="M289 121c0 -81 -56 -125 -128 -125c-70 0 -127 38 -130 117h46c3 -54 42 -76 84 -76c46 0 83 32 83 84c0 51 -28 83 -86 83h-8v40h8c51 0 78 30 78 78c0 51 -36 78 -76 78c-46 0 -74 -27 -78 -71h-45c5 71 56 112 123 112c73 0 121 -45 121 -118c0 -47 -20 -80 -59 -97
c44 -16 67 -51 67 -105z" />
    <glyph glyph-name="four.dnom" horiz-adv-x="320" 
d="M297 69h-53v-69h-45v69h-174v41l157 327h48l-156 -327h125v122h45v-122h53v-41z" />
    <glyph glyph-name="five.dnom" horiz-adv-x="320" 
d="M285 144c0 -44 -4 -84 -35 -115c-20 -20 -50 -33 -88 -33c-39 0 -69 12 -88 31c-20 20 -29 46 -31 76h45c5 -43 28 -66 74 -66c22 0 41 6 54 19c23 23 24 56 24 88c0 53 -13 106 -74 106c-38 0 -64 -16 -72 -43h-41v230h221v-41h-180v-136c16 18 43 29 78 29
c33 0 59 -10 76 -27c32 -33 37 -77 37 -118z" />
    <glyph glyph-name="six.dnom" horiz-adv-x="320" 
d="M283 126c0 -75 -46 -130 -121 -130s-122 51 -122 127c0 30 8 56 27 97l107 217h47l-97 -195c13 6 29 8 45 8c68 0 114 -52 114 -124zM238 124c0 48 -27 88 -77 88c-46 0 -76 -34 -76 -88c0 -53 30 -87 76 -87s77 34 77 87z" />
    <glyph glyph-name="seven.dnom" horiz-adv-x="320" 
d="M290 397l-152 -397h-45l152 396h-155v-72h-44v113h244v-40z" />
    <glyph glyph-name="eight.dnom" horiz-adv-x="320" 
d="M290 121c0 -75 -56 -125 -129 -125s-129 50 -129 125c0 51 28 86 65 106c-35 19 -57 52 -57 97c0 68 51 117 121 117s121 -49 121 -117c0 -45 -22 -78 -58 -97c37 -20 66 -55 66 -106zM245 121c0 48 -36 85 -84 85s-84 -37 -84 -85s36 -84 84 -84s84 36 84 84zM237 324
c0 45 -30 76 -76 76s-76 -31 -76 -76s31 -78 76 -78s76 33 76 78z" />
    <glyph glyph-name="nine.dnom" horiz-adv-x="320" 
d="M282 314c0 -31 -9 -57 -28 -96l-108 -218h-47l99 196c-13 -5 -30 -9 -46 -9c-69 0 -114 52 -114 124c0 75 47 130 122 130s122 -51 122 -127zM237 313c0 53 -30 87 -77 87s-77 -34 -77 -87c0 -48 27 -88 77 -88c46 0 77 34 77 88z" />
    <glyph glyph-name="space.frac" horiz-adv-x="52" 
 />
    <glyph glyph-name="zero.osf" 
d="M455 188c0 -114 -79 -194 -192 -194s-191 80 -191 194v235c0 114 78 194 191 194s192 -80 192 -194v-235zM402 194v224c0 86 -48 153 -139 153s-139 -67 -139 -153v-224c0 -86 48 -154 139 -154s139 68 139 154z" />
    <glyph glyph-name="one.osf" horiz-adv-x="358" 
d="M236 0h-53v552l-132 -117v63l132 113h53v-611z" />
    <glyph glyph-name="two.osf" horiz-adv-x="502" 
d="M446 0h-405v46l264 264c43 43 69 92 69 147c0 75 -59 135 -140 135c-77 0 -139 -56 -139 -136h-52c0 101 79 182 191 182c117 0 192 -82 192 -181c0 -72 -34 -127 -82 -175l-235 -236h337v-46z" />
    <glyph glyph-name="three.osf" horiz-adv-x="521" 
d="M456 76c0 -130 -90 -202 -207 -202c-114 0 -201 58 -208 184h52c7 -99 80 -138 156 -138c87 0 154 59 154 156c0 98 -46 155 -158 155h-13v47h13c97 0 144 53 144 146c0 96 -62 147 -141 147c-86 0 -137 -52 -146 -133h-52c10 114 93 179 198 179c115 0 193 -76 193 -193
c0 -77 -30 -135 -103 -166c81 -28 118 -90 118 -182z" />
    <glyph glyph-name="four.osf" horiz-adv-x="535" 
d="M495 31h-98v-157h-52v157h-309v46l278 563h55l-279 -563h255v231h52v-231h98v-46z" />
    <glyph glyph-name="five.osf" horiz-adv-x="517" 
d="M447 121c0 -70 -4 -142 -56 -194c-34 -34 -80 -52 -140 -52c-59 0 -108 16 -140 49c-28 28 -46 67 -50 119h53c10 -78 52 -122 137 -122c40 0 76 13 100 37c43 43 44 109 44 163c0 91 -16 194 -136 194c-67 0 -117 -27 -132 -76h-46v372h350v-46h-304v-258
c32 37 79 54 138 54c52 0 94 -15 123 -44c51 -51 59 -127 59 -196z" />
    <glyph glyph-name="six.osf" horiz-adv-x="531" 
d="M475 224c0 -127 -76 -230 -209 -230s-210 92 -210 222c0 50 14 109 47 166l207 363h55l-188 -321c33 16 58 21 93 21c130 0 205 -97 205 -221zM423 219c0 96 -54 182 -158 182c-96 0 -156 -72 -156 -182c0 -109 60 -181 156 -181s158 72 158 181z" />
    <glyph glyph-name="seven.osf" horiz-adv-x="494" 
d="M459 565l-307 -693h-55l307 693h-306v-114h-52v160h413v-46z" />
    <glyph glyph-name="eight.osf" horiz-adv-x="538" 
d="M477 197c0 -117 -90 -203 -208 -203s-208 86 -208 203c0 84 46 145 116 182c-65 35 -100 91 -100 166c0 108 78 190 192 190s193 -82 193 -190c0 -75 -35 -131 -100 -166c70 -37 115 -98 115 -182zM425 197c0 89 -68 157 -156 157s-155 -68 -155 -157s67 -157 155 -157
s156 68 156 157zM410 545c0 84 -58 144 -141 144s-140 -60 -140 -144c0 -85 57 -145 140 -145s141 60 141 145z" />
    <glyph glyph-name="nine.osf" horiz-adv-x="531" 
d="M475 395c0 -50 -14 -109 -47 -166l-207 -363h-54l187 321c-33 -16 -58 -21 -93 -21c-130 0 -205 97 -205 221c0 127 76 230 209 230s210 -92 210 -222zM423 392c0 109 -61 181 -157 181s-157 -72 -157 -181c0 -96 53 -182 157 -182c96 0 157 72 157 182z" />
    <glyph glyph-name="zero.lf" 
d="M455 188c0 -114 -79 -194 -192 -194c-112 0 -191 80 -191 194v353c0 114 79 194 191 194c113 0 192 -80 192 -194v-353zM402 194v342c0 86 -48 153 -139 153s-139 -67 -139 -153v-342c0 -86 48 -154 139 -154s139 68 139 154z" />
    <glyph glyph-name="one.lf" horiz-adv-x="358" 
d="M236 0h-53v670l-132 -117v62l132 114h53v-729z" />
    <glyph glyph-name="two.lf" horiz-adv-x="483" 
d="M427 0h-386v46l293 384c29 37 41 72 41 114c0 87 -52 145 -141 145c-76 0 -140 -43 -140 -145h-52c0 109 72 191 192 191c117 0 193 -76 193 -191c0 -54 -13 -93 -50 -141l-274 -357h324v-46z" />
    <glyph glyph-name="three.lf" horiz-adv-x="517" 
d="M456 195c0 -130 -89 -202 -207 -202c-114 0 -200 58 -208 184h52c8 -99 79 -138 156 -138c87 0 154 59 154 156c0 98 -46 155 -158 155h-13v46h13c98 0 144 53 144 147c0 95 -62 147 -141 147c-86 0 -137 -51 -146 -133h-52c11 115 92 179 198 179
c115 0 193 -75 193 -193c0 -78 -29 -134 -103 -166c82 -28 118 -89 118 -182z" />
    <glyph glyph-name="four.lf" horiz-adv-x="515" 
d="M474 120h-97v-120h-52v120h-289v46l268 563h55l-268 -563h234v231h52v-231h97v-46z" />
    <glyph glyph-name="five.lf" horiz-adv-x="517" 
d="M447 239c0 -70 -4 -142 -56 -194c-35 -35 -82 -52 -140 -52c-60 0 -108 16 -140 49c-29 29 -46 69 -50 119h53c11 -78 51 -122 137 -122c40 0 76 13 100 37c43 43 44 108 44 163c0 91 -17 194 -136 194c-67 0 -117 -28 -132 -77h-46v373h350v-46h-304v-258
c32 36 78 54 138 54c52 0 93 -14 123 -44c52 -52 59 -127 59 -196z" />
    <glyph glyph-name="six.lf" horiz-adv-x="488" 
d="M437 206c0 -117 -69 -212 -192 -212s-194 86 -194 205c0 48 11 91 41 152l188 378h52l-168 -337c25 11 53 18 85 18c119 0 188 -90 188 -204zM385 202c0 87 -48 162 -141 162c-86 0 -141 -64 -141 -162s55 -162 141 -162s141 64 141 162z" />
    <glyph glyph-name="seven.lf" horiz-adv-x="458" 
d="M423 683l-258 -683h-53l258 683h-277v-115h-52v161h382v-46z" />
    <glyph glyph-name="eight.lf" horiz-adv-x="538" 
d="M477 197c0 -117 -90 -203 -208 -203s-208 86 -208 203c0 85 46 145 116 182c-66 36 -100 91 -100 166c0 106 78 190 192 190s193 -84 193 -190c0 -75 -33 -130 -100 -166c70 -37 115 -97 115 -182zM425 197c0 89 -68 157 -156 157s-155 -68 -155 -157
c0 -90 67 -157 155 -157s156 67 156 157zM410 545c0 85 -58 144 -141 144s-140 -59 -140 -144s57 -145 140 -145s141 60 141 145z" />
    <glyph glyph-name="nine.lf" horiz-adv-x="488" 
d="M437 530c0 -48 -11 -91 -41 -152l-187 -378h-52l168 337c-25 -11 -53 -18 -86 -18c-120 0 -188 90 -188 204c0 117 70 212 193 212s193 -86 193 -205zM385 527c0 98 -55 162 -141 162s-141 -64 -141 -162c0 -87 48 -161 141 -161c86 0 141 63 141 161z" />
    <glyph glyph-name="zero.tosf" 
d="M455 188c0 -114 -79 -194 -192 -194s-191 80 -191 194v235c0 114 78 194 191 194s192 -80 192 -194v-235zM402 194v224c0 86 -48 153 -139 153s-139 -67 -139 -153v-224c0 -86 48 -154 139 -154s139 68 139 154z" />
    <glyph glyph-name="one.tosf" 
d="M321 0h-53v552l-132 -117v63l132 113h53v-611z" />
    <glyph glyph-name="two.tosf" 
d="M471 0h-405v46l264 264c43 43 68 92 68 147c0 75 -58 135 -139 135c-77 0 -139 -56 -139 -136h-52c0 101 79 182 191 182c117 0 192 -82 192 -181c0 -72 -34 -127 -82 -175l-236 -236h338v-46z" />
    <glyph glyph-name="three.tosf" 
d="M458 76c0 -130 -90 -202 -207 -202c-114 0 -201 58 -208 184h52c7 -99 80 -138 156 -138c87 0 155 59 155 156c0 98 -47 155 -159 155h-13v47h13c97 0 144 53 144 146c0 96 -62 147 -141 147c-86 0 -137 -52 -146 -133h-52c10 114 93 179 198 179c115 0 193 -76 193 -193
c0 -77 -30 -135 -103 -166c81 -28 118 -90 118 -182z" />
    <glyph glyph-name="four.tosf" 
d="M493 31h-98v-157h-52v157h-309v46l278 563h55l-279 -563h255v231h52v-231h98v-46z" />
    <glyph glyph-name="five.tosf" 
d="M457 121c0 -70 -5 -142 -57 -194c-34 -34 -80 -52 -140 -52c-59 0 -108 16 -140 49c-28 28 -45 67 -49 119h52c10 -78 52 -122 137 -122c40 0 76 13 100 37c43 43 44 109 44 163c0 91 -16 194 -136 194c-67 0 -117 -27 -132 -76h-46v372h350v-46h-304v-258
c32 37 79 54 138 54c52 0 94 -15 123 -44c51 -51 60 -127 60 -196z" />
    <glyph glyph-name="six.tosf" 
d="M475 224c0 -127 -76 -230 -209 -230s-210 92 -210 222c0 50 14 109 47 166l207 363h55l-188 -321c33 16 58 21 93 21c130 0 205 -97 205 -221zM423 219c0 96 -54 182 -158 182c-96 0 -156 -72 -156 -182c0 -109 60 -181 156 -181s158 72 158 181z" />
    <glyph glyph-name="seven.tosf" 
d="M480 565l-307 -693h-54l307 693h-306v-114h-52v160h412v-46z" />
    <glyph glyph-name="eight.tosf" 
d="M471 197c0 -117 -90 -203 -208 -203s-208 86 -208 203c0 84 46 145 116 182c-65 35 -100 91 -100 166c0 108 78 190 192 190s193 -82 193 -190c0 -75 -35 -131 -100 -166c70 -37 115 -98 115 -182zM419 197c0 89 -68 157 -156 157s-155 -68 -155 -157s67 -157 155 -157
s156 68 156 157zM403 545c0 84 -57 144 -140 144s-140 -60 -140 -144c0 -85 57 -145 140 -145s140 60 140 145z" />
    <glyph glyph-name="nine.tosf" 
d="M470 395c0 -50 -14 -109 -47 -166l-207 -363h-54l187 321c-33 -16 -58 -21 -93 -21c-130 0 -205 97 -205 221c0 127 76 230 209 230s210 -92 210 -222zM418 392c0 109 -61 181 -157 181s-158 -72 -158 -181c0 -96 54 -182 158 -182c96 0 157 72 157 182z" />
    <glyph glyph-name="uni2007.tosf" 
 />
    <glyph glyph-name="hyphen.case" horiz-adv-x="436" 
d="M352 340h-268v48h268v-48z" />
    <glyph glyph-name="exclamdown.case" horiz-adv-x="311" 
d="M169 0h-56l3 532h50zM175 660h-69v69h69v-69z" />
    <glyph glyph-name="guillemotleft.case" horiz-adv-x="539" 
d="M244 164l-201 201l201 200v-67l-133 -133l133 -134v-67zM456 164l-201 201l201 200v-67l-133 -133l133 -134v-67z" />
    <glyph glyph-name="uni00AD.case" horiz-adv-x="436" 
d="M352 340h-268v48h268v-48z" />
    <glyph glyph-name="guillemotright.case" horiz-adv-x="539" 
d="M285 365l-201 -201v67l133 134l-133 133v67zM497 365l-201 -201v67l133 134l-133 133v67z" />
    <glyph glyph-name="questiondown.case" horiz-adv-x="499" 
d="M418 174c0 -98 -74 -180 -184 -180c-104 0 -183 78 -183 180c0 48 17 82 45 122l87 128c13 19 19 45 19 61v49h52v-47c0 -40 -10 -62 -30 -92l-86 -127c-20 -32 -35 -54 -35 -94c0 -77 56 -134 131 -134c80 0 132 62 132 134h52zM262 660h-68v69h68v-69z" />
    <glyph glyph-name="endash.case" 
d="M472 340h-418v48h418v-48z" />
    <glyph glyph-name="emdash.case" horiz-adv-x="893" 
d="M810 340h-726v48h726v-48z" />
    <glyph glyph-name="afii00208.case" horiz-adv-x="893" 
d="M810 341h-726v48h726v-48z" />
    <glyph glyph-name="guilsinglleft.case" horiz-adv-x="327" 
d="M244 164l-201 201l201 200v-67l-133 -133l133 -134v-67z" />
    <glyph glyph-name="guilsinglright.case" horiz-adv-x="327" 
d="M285 365l-201 -201v67l133 134l-133 133v67z" />
    <glyph glyph-name="caroncomma.ss01" horiz-adv-x="538" 
d="M610 598l-54 -57v188h54v-131z" />
    <glyph glyph-name="commaaccent.ss01" horiz-adv-x="264" 
d="M193 -136c0 -55 -42 -96 -103 -96v37c34 0 61 26 61 59s-27 58 -61 58v38c61 0 103 -41 103 -96z" />
    <glyph glyph-name="commaturn.ss01" horiz-adv-x="264" 
d="M168 562c-61 0 -102 41 -102 96s41 97 102 97v-38c-34 0 -60 -26 -60 -59s26 -58 60 -58v-38z" />
    <glyph glyph-name="exclam.ss01" horiz-adv-x="311" 
d="M200 729l-6 -532h-46l-6 532h58zM212 38c0 -23 -18 -41 -41 -41s-41 18 -41 41s18 41 41 41s41 -18 41 -41z" />
    <glyph glyph-name="period.ss01" horiz-adv-x="270" 
d="M182 44c0 -26 -21 -47 -47 -47s-47 21 -47 47s21 47 47 47s47 -21 47 -47z" />
    <glyph glyph-name="colon.ss01" horiz-adv-x="299" 
d="M211 351c0 -26 -21 -47 -47 -47s-47 21 -47 47s21 47 47 47s47 -21 47 -47zM211 44c0 -26 -21 -47 -47 -47s-47 21 -47 47s21 47 47 47s47 -21 47 -47z" />
    <glyph glyph-name="semicolon.ss01" horiz-adv-x="299" 
d="M199 -70l-70 -69v209h70v-140zM211 351c0 -26 -21 -47 -47 -47s-47 21 -47 47s21 47 47 47s47 -21 47 -47z" />
    <glyph glyph-name="question.ss01" horiz-adv-x="499" 
d="M449 555c0 -47 -19 -83 -46 -122l-87 -128c-13 -19 -18 -45 -18 -61v-48h-52v46c0 39 9 62 29 92l86 127c20 31 35 55 35 94c0 76 -56 134 -131 134c-80 0 -131 -62 -131 -134h-52c0 97 74 180 183 180c104 0 184 -78 184 -180zM312 38c0 -23 -18 -41 -41 -41
s-41 18 -41 41s18 41 41 41s41 -18 41 -41z" />
    <glyph glyph-name="at.ss01" horiz-adv-x="964" 
d="M894 324c0 -161 -124 -299 -293 -299h-49l13 62c-33 -44 -74 -69 -129 -69c-80 0 -142 44 -142 148c0 27 4 62 8 82c14 79 42 142 85 180c39 34 82 47 123 47c69 0 105 -37 117 -75l14 70h46l-81 -404c138 0 238 126 238 258c0 185 -138 312 -323 312
c-212 0 -385 -175 -385 -393c0 -224 154 -398 392 -398h42l-9 -45h-41c-253 0 -436 190 -436 443c0 246 195 441 437 441c221 0 373 -145 373 -360zM602 329c0 77 -48 102 -94 102c-34 0 -67 -14 -91 -38c-29 -29 -50 -67 -65 -146c-5 -29 -9 -59 -9 -81
c0 -77 47 -104 93 -104c7 0 53 1 92 40c29 29 50 67 65 146c5 29 9 59 9 81z" />
    <glyph glyph-name="C.ss01" horiz-adv-x="610" 
d="M540 85c-58 -55 -119 -91 -206 -91c-73 0 -134 26 -177 69c-68 68 -73 125 -73 302s5 233 73 301c43 43 104 69 177 69c87 0 148 -36 206 -91l-37 -37c-50 49 -93 79 -169 79c-53 0 -100 -18 -138 -56c-52 -52 -57 -111 -57 -265s5 -214 57 -266c38 -38 85 -56 138 -56
c76 0 119 30 169 79z" />
    <glyph glyph-name="G.ss01" horiz-adv-x="663" 
d="M585 254c0 -76 -17 -130 -60 -176c-48 -53 -117 -84 -191 -84c-73 0 -134 26 -177 69c-68 68 -73 125 -73 302s5 233 73 301c43 43 104 69 177 69c94 0 152 -36 217 -101l-37 -37c-55 55 -98 89 -180 89c-53 0 -100 -18 -138 -56c-52 -52 -57 -111 -57 -265
s5 -214 57 -266c38 -38 85 -56 138 -56c57 0 113 25 151 71c32 39 44 82 44 144v66h-195v49h251v-119z" />
    <glyph glyph-name="i.ss01" horiz-adv-x="250" 
d="M152 0h-53v494h53v-494zM164 697c0 -22 -18 -39 -38 -39c-22 0 -39 18 -39 38c0 22 18 39 38 39c22 0 39 -18 39 -38z" />
    <glyph glyph-name="j.ss01" horiz-adv-x="250" 
d="M152 -108c0 -77 -39 -128 -119 -128h-45v47h36c58 0 75 28 75 83v600h53v-602zM164 697c0 -22 -18 -39 -38 -39c-22 0 -39 18 -39 38c0 22 18 39 38 39c22 0 39 -18 39 -38z" />
    <glyph glyph-name="exclamdown.ss01" horiz-adv-x="311" 
d="M169 -236h-57l6 533h45zM181 456c0 -23 -18 -41 -41 -41s-41 18 -41 41s18 41 41 41s41 -18 41 -41z" />
    <glyph glyph-name="dieresis.ss01" horiz-adv-x="512" 
d="M188 653c0 -22 -17 -39 -37 -39c-22 0 -39 18 -39 38c0 22 18 39 38 39c22 0 38 -18 38 -38zM400 653c0 -22 -18 -39 -38 -39c-22 0 -38 18 -38 38c0 22 17 39 37 39c22 0 39 -18 39 -38z" />
    <glyph glyph-name="periodcentered.ss01" horiz-adv-x="270" 
d="M182 266c0 -26 -21 -47 -47 -47s-47 21 -47 47s21 47 47 47s47 -21 47 -47z" />
    <glyph glyph-name="cedilla.ss01" horiz-adv-x="512" 
d="M328 -136c0 -55 -42 -96 -103 -96v37c34 0 61 26 61 59s-27 58 -61 58v38c61 0 103 -41 103 -96z" />
    <glyph glyph-name="questiondown.ss01" horiz-adv-x="499" 
d="M418 -61c0 -97 -75 -181 -184 -181c-104 0 -183 79 -183 181c0 47 18 82 45 121l87 128c13 19 19 46 19 62v48h52v-46c0 -39 -10 -62 -30 -92l-86 -127c-20 -31 -35 -55 -35 -94c0 -76 56 -135 131 -135c80 0 132 63 132 135h52zM269 456c0 -23 -18 -41 -41 -41
s-41 18 -41 41s18 41 41 41s41 -18 41 -41z" />
    <glyph glyph-name="Adieresis.ss01" horiz-adv-x="616" 
d="M601 0h-59l-64 177h-340l-63 -177h-60l269 729h49zM308 655l-152 -429h305zM453 848c0 -22 -18 -39 -38 -39c-22 0 -39 18 -39 38c0 22 18 39 38 39c22 0 39 -18 39 -38zM241 848c0 -22 -18 -39 -38 -39c-22 0 -39 18 -39 38c0 22 18 39 38 39c22 0 39 -18 39 -38z" />
    <glyph glyph-name="Ccedilla.ss01" horiz-adv-x="610" 
d="M540 85c-58 -55 -119 -91 -206 -91c-73 0 -134 26 -177 69c-68 68 -73 125 -73 302s5 233 73 301c43 43 104 69 177 69c87 0 148 -36 206 -91l-37 -37c-50 49 -93 79 -169 79c-53 0 -100 -18 -138 -56c-52 -52 -57 -111 -57 -265s5 -214 57 -266c38 -38 85 -56 138 -56
c76 0 119 30 169 79zM388 -136c0 -55 -41 -96 -102 -96v37c34 0 60 26 60 59s-26 58 -60 58v38c61 0 102 -41 102 -96z" />
    <glyph glyph-name="Edieresis.ss01" horiz-adv-x="612" 
d="M555 0h-442v729h442v-49h-387v-288h330v-49h-330v-294h387v-49zM466 848c0 -22 -18 -39 -38 -39c-22 0 -39 18 -39 38c0 22 18 39 38 39c22 0 39 -18 39 -38zM254 848c0 -22 -18 -39 -38 -39c-22 0 -39 18 -39 38c0 22 18 39 38 39c22 0 39 -18 39 -38z" />
    <glyph glyph-name="Idieresis.ss01" horiz-adv-x="280" 
d="M168 0h-55v729h55v-729zM286 848c0 -22 -18 -39 -38 -39c-22 0 -39 18 -39 38c0 22 18 39 38 39c22 0 39 -18 39 -38zM74 848c0 -22 -18 -39 -38 -39c-22 0 -39 18 -39 38c0 22 18 39 38 39c22 0 39 -18 39 -38z" />
    <glyph glyph-name="Odieresis.ss01" horiz-adv-x="667" 
d="M584 365c0 -177 -5 -234 -73 -302c-43 -43 -104 -69 -177 -69s-134 26 -177 69c-68 68 -73 125 -73 302s5 233 73 301c43 43 104 69 177 69s134 -26 177 -69c68 -68 73 -124 73 -301zM528 365c0 154 -4 213 -56 265c-38 38 -85 56 -138 56s-100 -18 -138 -56
c-52 -52 -57 -111 -57 -265s5 -214 57 -266c38 -38 85 -56 138 -56s100 18 138 56c52 52 56 112 56 266zM478 848c0 -22 -18 -39 -38 -39c-22 0 -39 18 -39 38c0 22 18 39 38 39c22 0 39 -18 39 -38zM266 848c0 -22 -18 -39 -38 -39c-22 0 -39 18 -39 38c0 22 18 39 38 39
c22 0 39 -18 39 -38z" />
    <glyph glyph-name="Udieresis.ss01" horiz-adv-x="704" 
d="M602 237c0 -142 -104 -243 -250 -243s-250 101 -250 243v492h56v-485c0 -121 76 -201 194 -201s195 80 195 201v485h55v-492zM497 848c0 -22 -18 -39 -38 -39c-22 0 -39 18 -39 38c0 22 18 39 38 39c22 0 39 -18 39 -38zM285 848c0 -22 -18 -39 -38 -39
c-22 0 -39 18 -39 38c0 22 18 39 38 39c22 0 39 -18 39 -38z" />
    <glyph glyph-name="adieresis.ss01" horiz-adv-x="536" 
d="M441 0h-52v49c-42 -42 -80 -55 -150 -55c-74 0 -114 12 -146 45c-24 24 -36 59 -36 96c0 90 64 143 172 143h160v55c0 79 -38 121 -139 121c-70 0 -104 -18 -136 -63l-38 33c42 58 93 76 174 76c131 0 191 -59 191 -162v-338zM389 172v64h-153c-84 0 -126 -33 -126 -100
c0 -66 39 -96 129 -96c45 0 86 4 122 38c18 17 28 49 28 94zM187 653c0 -22 -17 -39 -37 -39c-22 0 -39 18 -39 38c0 22 17 39 37 39c22 0 39 -18 39 -38zM399 653c0 -22 -18 -39 -38 -39c-22 0 -38 18 -38 38c0 22 17 39 37 39c22 0 39 -18 39 -38z" />
    <glyph glyph-name="ccedilla.ss01" horiz-adv-x="504" 
d="M451 70c-52 -58 -95 -76 -163 -76c-135 0 -217 96 -217 253s82 253 217 253c68 0 111 -18 163 -76l-36 -33c-42 47 -75 63 -127 63c-56 0 -101 -22 -131 -66c-25 -36 -34 -74 -34 -141s9 -106 34 -142c30 -44 75 -65 131 -65c52 0 85 16 127 62zM328 -136
c0 -55 -42 -96 -103 -96v37c34 0 61 26 61 59s-27 58 -61 58v38c61 0 103 -41 103 -96z" />
    <glyph glyph-name="edieresis.ss01" horiz-adv-x="535" 
d="M466 236h-343c0 -126 56 -195 161 -195c58 0 94 17 136 59l39 -30c-50 -50 -96 -76 -178 -76c-136 0 -210 88 -210 253c0 160 73 253 197 253s198 -89 198 -241v-23zM414 278c-3 47 -5 63 -18 93c-22 52 -71 83 -128 83s-104 -32 -128 -83c-13 -30 -14 -46 -17 -93h291z
M203 653c0 -22 -18 -39 -38 -39c-22 0 -39 18 -39 38c0 22 18 39 38 39c22 0 39 -18 39 -38zM415 653c0 -22 -18 -39 -38 -39c-22 0 -39 18 -39 38c0 22 18 39 38 39c22 0 39 -18 39 -38z" />
    <glyph glyph-name="idieresis.ss01" horiz-adv-x="250" 
d="M152 0h-53v494h53v-494zM62 653c0 -22 -17 -39 -37 -39c-22 0 -39 18 -39 38c0 22 18 39 38 39c22 0 38 -18 38 -38zM274 653c0 -22 -17 -39 -37 -39c-22 0 -39 18 -39 38c0 22 18 39 38 39c22 0 38 -18 38 -38z" />
    <glyph glyph-name="odieresis.ss01" horiz-adv-x="538" 
d="M468 247c0 -71 -9 -147 -61 -199c-36 -36 -83 -54 -138 -54s-101 18 -137 54c-52 52 -61 128 -61 199s9 146 61 198c36 36 82 55 137 55s102 -19 138 -55c52 -52 61 -127 61 -198zM416 247c0 57 -3 124 -44 165c-28 28 -63 42 -103 42s-74 -14 -102 -42
c-41 -41 -44 -108 -44 -165s3 -124 44 -165c28 -28 62 -42 102 -42s75 14 103 42c41 41 44 108 44 165zM202 653c0 -22 -18 -39 -38 -39c-22 0 -39 18 -39 38c0 22 18 39 38 39c22 0 39 -18 39 -38zM414 653c0 -22 -18 -39 -38 -39c-22 0 -39 18 -39 38c0 22 18 39 38 39
c22 0 39 -18 39 -38z" />
    <glyph glyph-name="divide.ss01" 
d="M310 96c0 -26 -21 -47 -47 -47s-47 21 -47 47s21 47 47 47s47 -21 47 -47zM472 246h-418v48h418v-48zM310 443c0 -26 -21 -47 -47 -47s-47 21 -47 47s21 47 47 47s47 -21 47 -47z" />
    <glyph glyph-name="udieresis.ss01" horiz-adv-x="572" 
d="M473 0h-52v58c-37 -43 -86 -64 -146 -64c-54 0 -98 15 -131 47c-34 33 -51 79 -51 137v316h52v-307c0 -95 48 -147 137 -147s139 53 139 147v307h52v-494zM215 653c0 -22 -18 -39 -38 -39c-22 0 -39 18 -39 38c0 22 18 39 38 39c22 0 39 -18 39 -38zM427 653
c0 -22 -18 -39 -38 -39c-22 0 -39 18 -39 38c0 22 18 39 38 39c22 0 39 -18 39 -38z" />
    <glyph glyph-name="ydieresis.ss01" horiz-adv-x="440" 
d="M426 494l-229 -628c-9 -27 -21 -46 -34 -57c-25 -24 -60 -32 -93 -32h-25v46h20c56 0 73 18 90 67l40 110l-181 494h58l148 -433l149 433h57zM153 653c0 -22 -18 -39 -38 -39c-22 0 -39 18 -39 38c0 22 18 39 38 39c22 0 39 -18 39 -38zM365 653c0 -22 -18 -39 -38 -39
c-22 0 -39 18 -39 38c0 22 18 39 38 39c22 0 39 -18 39 -38z" />
    <glyph glyph-name="Aogonek.ss01" horiz-adv-x="616" 
d="M601 0h-59l-64 177h-340l-63 -177h-60l269 729h49zM308 655l-152 -429h305zM593 -232c-61 0 -103 41 -103 96s42 96 103 96v-38c-34 0 -61 -25 -61 -58s27 -59 61 -59v-37z" />
    <glyph glyph-name="aogonek.ss01" horiz-adv-x="536" 
d="M441 0h-52v49c-42 -42 -80 -55 -150 -55c-74 0 -114 12 -146 45c-24 24 -36 59 -36 96c0 90 64 143 172 143h160v55c0 79 -38 121 -139 121c-70 0 -104 -18 -136 -63l-38 33c42 58 93 76 174 76c131 0 191 -59 191 -162v-338zM389 172v64h-153c-84 0 -126 -33 -126 -100
c0 -66 39 -96 129 -96c45 0 86 4 122 38c18 17 28 49 28 94zM433 -232c-61 0 -102 41 -102 96s41 96 102 96v-38c-34 0 -60 -25 -60 -58s26 -59 60 -59v-37z" />
    <glyph glyph-name="Cacute.ss01" horiz-adv-x="610" 
d="M540 85c-58 -55 -119 -91 -206 -91c-73 0 -134 26 -177 69c-68 68 -73 125 -73 302s5 233 73 301c43 43 104 69 177 69c87 0 148 -36 206 -91l-37 -37c-50 49 -93 79 -169 79c-53 0 -100 -18 -138 -56c-52 -52 -57 -111 -57 -265s5 -214 57 -266c38 -38 85 -56 138 -56
c76 0 119 30 169 79zM436 949l-108 -150h-60l100 150h68z" />
    <glyph glyph-name="Ccircumflex.ss01" horiz-adv-x="610" 
d="M540 85c-58 -55 -119 -91 -206 -91c-73 0 -134 26 -177 69c-68 68 -73 125 -73 302s5 233 73 301c43 43 104 69 177 69c87 0 148 -36 206 -91l-37 -37c-50 49 -93 79 -169 79c-53 0 -100 -18 -138 -56c-52 -52 -57 -111 -57 -265s5 -214 57 -266c38 -38 85 -56 138 -56
c76 0 119 30 169 79zM487 799h-58l-95 111l-95 -111h-59l126 150h55z" />
    <glyph glyph-name="Cdotaccent.ss01" horiz-adv-x="610" 
d="M540 85c-58 -55 -119 -91 -206 -91c-73 0 -134 26 -177 69c-68 68 -73 125 -73 302s5 233 73 301c43 43 104 69 177 69c87 0 148 -36 206 -91l-37 -37c-50 49 -93 79 -169 79c-53 0 -100 -18 -138 -56c-52 -52 -57 -111 -57 -265s5 -214 57 -266c38 -38 85 -56 138 -56
c76 0 119 30 169 79zM372 850c0 -22 -18 -39 -38 -39c-22 0 -39 18 -39 38c0 22 18 39 38 39c22 0 39 -18 39 -38z" />
    <glyph glyph-name="cdotaccent.ss01" horiz-adv-x="504" 
d="M451 70c-52 -58 -95 -76 -163 -76c-135 0 -217 96 -217 253s82 253 217 253c68 0 111 -18 163 -76l-36 -33c-42 47 -75 63 -127 63c-56 0 -101 -22 -131 -66c-25 -36 -34 -74 -34 -141s9 -106 34 -142c30 -44 75 -65 131 -65c52 0 85 16 127 62zM326 666
c0 -22 -18 -39 -38 -39c-22 0 -39 18 -39 38c0 22 18 38 38 38c22 0 39 -17 39 -37z" />
    <glyph glyph-name="Ccaron.ss01" horiz-adv-x="610" 
d="M540 85c-58 -55 -119 -91 -206 -91c-73 0 -134 26 -177 69c-68 68 -73 125 -73 302s5 233 73 301c43 43 104 69 177 69c87 0 148 -36 206 -91l-37 -37c-50 49 -93 79 -169 79c-53 0 -100 -18 -138 -56c-52 -52 -57 -111 -57 -265s5 -214 57 -266c38 -38 85 -56 138 -56
c76 0 119 30 169 79zM472 949l-126 -150h-55l-126 150h58l95 -111l96 111h58z" />
    <glyph glyph-name="dcaron.ss01" horiz-adv-x="552" 
d="M454 0h-53v63c-44 -57 -90 -69 -146 -69c-52 0 -95 17 -121 43c-50 50 -63 132 -63 210s13 160 63 210c26 26 69 43 121 43c56 0 102 -13 146 -70v299h53v-729zM401 247c0 102 -18 207 -139 207s-139 -105 -139 -207s18 -207 139 -207s139 105 139 207zM610 598l-54 -57
v188h54v-131z" />
    <glyph glyph-name="Edotaccent.ss01" horiz-adv-x="612" 
d="M555 0h-442v729h442v-49h-387v-288h330v-49h-330v-294h387v-49zM360 850c0 -22 -17 -39 -37 -39c-22 0 -39 18 -39 38c0 22 18 39 38 39c22 0 38 -18 38 -38z" />
    <glyph glyph-name="edotaccent.ss01" horiz-adv-x="535" 
d="M466 236h-343c0 -126 56 -195 161 -195c58 0 94 17 136 59l39 -30c-50 -50 -96 -76 -178 -76c-136 0 -210 88 -210 253c0 160 73 253 197 253s198 -89 198 -241v-23zM414 278c-3 47 -5 63 -18 93c-22 52 -71 83 -128 83s-104 -32 -128 -83c-13 -30 -14 -46 -17 -93h291z
M305 664c0 -22 -18 -39 -38 -39c-22 0 -39 18 -39 38c0 22 18 38 38 38c22 0 39 -17 39 -37z" />
    <glyph glyph-name="Eogonek.ss01" horiz-adv-x="612" 
d="M555 0h-442v729h442v-49h-387v-288h330v-49h-330v-294h387v-49zM547 -232c-61 0 -103 41 -103 96s42 96 103 96v-38c-34 0 -61 -25 -61 -58s27 -59 61 -59v-37z" />
    <glyph glyph-name="eogonek.ss01" horiz-adv-x="535" 
d="M466 236h-343c0 -126 56 -195 161 -195c58 0 94 17 136 59l39 -30c-50 -50 -96 -76 -178 -76c-136 0 -210 88 -210 253c0 160 73 253 197 253s198 -89 198 -241v-23zM414 278c-3 47 -5 63 -18 93c-22 52 -71 83 -128 83s-104 -32 -128 -83c-13 -30 -14 -46 -17 -93h291z
M430 -232c-61 0 -102 41 -102 96s41 96 102 96v-38c-34 0 -60 -25 -60 -58s26 -59 60 -59v-37z" />
    <glyph glyph-name="Gcircumflex.ss01" horiz-adv-x="663" 
d="M585 254c0 -76 -17 -130 -60 -176c-48 -53 -117 -84 -191 -84c-73 0 -134 26 -177 69c-68 68 -73 125 -73 302s5 233 73 301c43 43 104 69 177 69c94 0 152 -36 217 -101l-37 -37c-55 55 -98 89 -180 89c-53 0 -100 -18 -138 -56c-52 -52 -57 -111 -57 -265
s5 -214 57 -266c38 -38 85 -56 138 -56c57 0 113 25 151 71c32 39 44 82 44 144v66h-195v49h251v-119zM487 799h-58l-95 111l-95 -111h-59l126 150h55z" />
    <glyph glyph-name="Gbreve.ss01" horiz-adv-x="663" 
d="M585 254c0 -76 -17 -130 -60 -176c-48 -53 -117 -84 -191 -84c-73 0 -134 26 -177 69c-68 68 -73 125 -73 302s5 233 73 301c43 43 104 69 177 69c94 0 152 -36 217 -101l-37 -37c-55 55 -98 89 -180 89c-53 0 -100 -18 -138 -56c-52 -52 -57 -111 -57 -265
s5 -214 57 -266c38 -38 85 -56 138 -56c57 0 113 25 151 71c32 39 44 82 44 144v66h-195v49h251v-119zM503 949c-9 -87 -58 -138 -169 -138s-160 51 -169 138h46c8 -57 52 -92 123 -92s115 35 123 92h46z" />
    <glyph glyph-name="Gdotaccent.ss01" horiz-adv-x="663" 
d="M585 254c0 -76 -17 -130 -60 -176c-48 -53 -117 -84 -191 -84c-73 0 -134 26 -177 69c-68 68 -73 125 -73 302s5 233 73 301c43 43 104 69 177 69c94 0 152 -36 217 -101l-37 -37c-55 55 -98 89 -180 89c-53 0 -100 -18 -138 -56c-52 -52 -57 -111 -57 -265
s5 -214 57 -266c38 -38 85 -56 138 -56c57 0 113 25 151 71c32 39 44 82 44 144v66h-195v49h251v-119zM372 850c0 -22 -18 -39 -38 -39c-22 0 -39 18 -39 38c0 22 18 39 38 39c22 0 39 -18 39 -38z" />
    </font>
</defs>
</svg>
